<?xml version="1.0" encoding="iso-8859-1"?>
<!-- Generator: Adobe Illustrator 16.0.0, SVG Export Plug-In . SVG Version: 6.00 Build 0)  -->
<!DOCTYPE svg PUBLIC "-//W3C//DTD SVG 1.1//EN" "http://www.w3.org/Graphics/SVG/1.1/DTD/svg11.dtd">
<svg version="1.1" id="Capa_1" xmlns="http://www.w3.org/2000/svg" xmlns:xlink="http://www.w3.org/1999/xlink" x="0px" y="0px"
	 width="37.06px" height="37.059px" viewBox="0 0 37.06 37.059" style="enable-background:new 0 0 37.06 37.059;"
	 xml:space="preserve">
<g>
	<g>
		<path d="M32.91,15.914l-2.625-7.242c-0.217-0.594-0.779-0.988-1.41-0.988H1.5c-0.83,0-1.5,0.671-1.5,1.5v8v7
			c0,0.828,0.67,1.5,1.5,1.5h1.492c0.482,2.109,2.366,3.691,4.62,3.691c2.255,0,4.14-1.582,4.622-3.691h12.59
			c0.481,2.109,2.365,3.691,4.619,3.691c2.256,0,4.139-1.582,4.623-3.691h1.493c0.828,0,1.5-0.672,1.5-1.5v-2.75
			C37.062,18.818,35.304,16.609,32.91,15.914z M3,15.684v-5h3.938v5H3z M7.614,26.376c-0.966,0-1.748-0.783-1.748-1.748
			c0-0.968,0.782-1.75,1.748-1.75c0.967,0,1.749,0.782,1.749,1.75C9.363,25.593,8.58,26.376,7.614,26.376z M14.187,15.684h-4.25v-5
			h4.25V15.684z M21.438,15.684h-4.25v-5h4.25V15.684z M24.438,15.684v-5h3.386l1.812,5H24.438z M29.447,26.376
			c-0.967,0-1.75-0.783-1.75-1.748c0-0.968,0.783-1.75,1.75-1.75c0.965,0,1.748,0.782,1.748,1.75
			C31.195,25.593,30.412,26.376,29.447,26.376z"/>
	</g>
</g>
<g>
</g>
<g>
</g>
<g>
</g>
<g>
</g>
<g>
</g>
<g>
</g>
<g>
</g>
<g>
</g>
<g>
</g>
<g>
</g>
<g>
</g>
<g>
</g>
<g>
</g>
<g>
</g>
<g>
</g>
</svg>
