<?xml version="1.0" encoding="UTF-8"?>
<svg width="400" height="400" version="1.1" viewBox="0 0 400 400" xmlns="http://www.w3.org/2000/svg" xmlns:cc="http://creativecommons.org/ns#" xmlns:dc="http://purl.org/dc/elements/1.1/" xmlns:rdf="http://www.w3.org/1999/02/22-rdf-syntax-ns#">
 <metadata>
  <rdf:RDF>
   <cc:Work rdf:about="">
    <dc:format>image/svg+xml</dc:format>
    <dc:type rdf:resource="http://purl.org/dc/dcmitype/StillImage"/>
    <dc:title/>
   </cc:Work>
  </rdf:RDF>
 </metadata>
 <g>
  <path d="m178.35 398.85c0.97297-0.25354 2.323-0.23687 3 0.0371 0.67703 0.27393-0.11903 0.48137-1.769 0.46099-1.65-0.0204-2.2039-0.2445-1.231-0.49804zm39 0c0.97297-0.25354 2.323-0.23687 3 0.0371 0.67703 0.27393-0.11903 0.48137-1.769 0.46099-1.65-0.0204-2.2039-0.2445-1.231-0.49804zm-44.457-0.99012c0.72187-0.28887 1.5844-0.25335 1.9167 0.0789 0.33229 0.33229-0.25834 0.56864-1.3125 0.52522-1.165-0.048-1.4019-0.28494-0.60417-0.60416zm51 0c0.72187-0.28887 1.5844-0.25335 1.9167 0.0789 0.33229 0.33229-0.25834 0.56864-1.3125 0.52522-1.165-0.048-1.4019-0.28494-0.60417-0.60416zm-60-1c0.72187-0.28887 1.5844-0.25335 1.9167 0.0789 0.33229 0.33229-0.25834 0.56864-1.3125 0.52522-1.165-0.048-1.4019-0.28494-0.60417-0.60416zm68 0c0.72187-0.28887 1.5844-0.25335 1.9167 0.0789 0.33229 0.33229-0.25834 0.56864-1.3125 0.52522-1.165-0.048-1.4019-0.28494-0.60417-0.60416zm-72-1c0.72187-0.28887 1.5844-0.25335 1.9167 0.0789 0.33229 0.33229-0.25834 0.56864-1.3125 0.52522-1.165-0.048-1.4019-0.28494-0.60417-0.60416zm77 0c0.72187-0.28887 1.5844-0.25335 1.9167 0.0789 0.33229 0.33229-0.25834 0.56864-1.3125 0.52522-1.165-0.048-1.4019-0.28494-0.60417-0.60416zm-105.81-7.3169c-0.825-0.53316-1.05-0.96937-0.5-0.96937s1.675 0.43621 2.5 0.96937 1.05 0.96937 0.5 0.96937-1.675-0.43621-2.5-0.96937zm-15-6c-0.90129-0.58246-1.0246-0.97549-0.30902-0.98469 0.65504-8e-3 1.4691 0.43469 1.809 0.98469 0.7673 1.2415 0.42112 1.2415-1.5 0zm164.73-0.12409c0.67834-0.68342 1.4852-0.99067 1.7931-0.68278s-0.24711 0.86705-1.2333 1.2426c-1.4252 0.54268-1.5401 0.42782-0.5598-0.5598zm8-4c0.67834-0.68342 1.4852-0.99067 1.7931-0.68278s-0.24711 0.86705-1.2333 1.2426c-1.4252 0.54268-1.5401 0.42782-0.5598-0.5598zm-184.73-1.8759c-0.90129-0.58246-1.0246-0.97549-0.30902-0.98469 0.65504-8e-3 1.4691 0.43469 1.809 0.98469 0.7673 1.2415 0.42112 1.2415-1.5 0zm188.73-0.12409c0.67834-0.68342 1.4852-0.99067 1.7931-0.68278s-0.24711 0.86705-1.2333 1.2426c-1.4252 0.54268-1.5401 0.42782-0.5598-0.5598zm-215.86-17.626c-1.2439-1.5861-1.2085-1.6214 0.37756-0.37756 0.9625 0.75485 1.75 1.5424 1.75 1.75 0 0.82304-0.82119 0.29331-2.1276-1.3724zm242.13 1.3724c0-0.20765 0.7875-0.99515 1.75-1.75 1.5861-1.2439 1.6214-1.2085 0.37756 0.37756-1.3064 1.6658-2.1276 2.1955-2.1276 1.3724zm-246.6-4.8724-1.905-2.25 2.25 1.905c2.1144 1.7902 2.7052 2.595 1.905 2.595-0.18976 0-1.2023-1.0125-2.25-2.25zm251.6 0.87244c0-0.20765 0.7875-0.99515 1.75-1.75 1.5861-1.2439 1.6214-1.2085 0.37756 0.37756-1.3064 1.6658-2.1276 2.1955-2.1276 1.3724zm-259.56-7.8724-2.9371-3.25 3.25 2.9371c1.7875 1.6154 3.25 3.0779 3.25 3.25 0 0.77256-0.82513 0.0924-3.5629-2.9371zm265.56 2.9371c0-0.1721 1.4625-1.6346 3.25-3.25l3.25-2.9371-2.9371 3.25c-2.7378 3.0295-3.5629 3.7096-3.5629 2.9371zm-280.56-17.937-2.9371-3.25 3.25 2.9371c1.7875 1.6154 3.25 3.0779 3.25 3.25 0 0.77256-0.82513 0.0924-3.5629-2.9371zm297.06 1.25c0.99549-1.1 2.035-2 2.31-2s-0.31449 0.9-1.31 2-2.035 2-2.31 2 0.31449-0.9 1.31-2zm-149.23-1.693c0.97297-0.25354 2.323-0.23687 3 0.0371 0.67703 0.27393-0.11903 0.48137-1.769 0.46099-1.65-0.0204-2.2039-0.2445-1.231-0.49804zm-11.019-0.99634c0.9625-0.25152 2.5375-0.25152 3.5 0 0.9625 0.25153 0.175 0.45733-1.75 0.45733s-2.7125-0.2058-1.75-0.45733zm22 0c0.9625-0.25152 2.5375-0.25152 3.5 0 0.9625 0.25153 0.175 0.45733-1.75 0.45733s-2.7125-0.2058-1.75-0.45733zm-32.438-0.99378c0.72187-0.28887 1.5844-0.25335 1.9167 0.0789 0.33229 0.33229-0.25834 0.56864-1.3125 0.52522-1.165-0.048-1.4019-0.28494-0.60417-0.60416zm44 0c0.72187-0.28887 1.5844-0.25335 1.9167 0.0789 0.33229 0.33229-0.25834 0.56864-1.3125 0.52522-1.165-0.048-1.4019-0.28494-0.60417-0.60416zm4-1c0.72187-0.28887 1.5844-0.25335 1.9167 0.0789 0.33229 0.33229-0.25834 0.56864-1.3125 0.52522-1.165-0.048-1.4019-0.28494-0.60417-0.60416zm-179.41-2.5669-1.905-2.25 2.25 1.905c2.1144 1.7902 2.7052 2.595 1.905 2.595-0.18976 0-1.2023-1.0125-2.25-2.25zm308.1 0.25c0.99549-1.1 2.035-2 2.31-2s-0.31449 0.9-1.31 2-2.035 2-2.31 2 0.31449-0.9 1.31-2zm-114.5-1c0.825-0.53316 1.95-0.96937 2.5-0.96937s0.325 0.43621-0.5 0.96937-1.95 0.96937-2.5 0.96937-0.325-0.43621 0.5-0.96937zm-86-2c-0.825-0.53316-1.05-0.96937-0.5-0.96937s1.675 0.43621 2.5 0.96937 1.05 0.96937 0.5 0.96937-1.675-0.43621-2.5-0.96937zm-111.6-2.25-1.905-2.25 2.25 1.905c2.1144 1.7902 2.7052 2.595 1.905 2.595-0.18976 0-1.2023-1.0125-2.25-2.25zm316.1 0.25c0.99549-1.1 2.035-2 2.31-2s-0.31449 0.9-1.31 2-2.035 2-2.31 2 0.31449-0.9 1.31-2zm-108.5 0.60699c0-0.21616 0.69837-0.661 1.5519-0.98855 0.88992-0.34149 1.2913-0.17385 0.94098 0.39301-0.58726 0.95021-2.4929 1.4054-2.4929 0.59554zm-105.49-2.5955c-0.35034-0.56686 0.0511-0.7345 0.94098-0.39301 1.7324 0.66479 2.0494 1.3816 0.61096 1.3816-0.51754 0-1.2159-0.44485-1.5519-0.98855zm-8-4c-0.35034-0.56686 0.0511-0.7345 0.94098-0.39301 1.7324 0.66479 2.0494 1.3816 0.61096 1.3816-0.51754 0-1.2159-0.44485-1.5519-0.98855zm-13.635-8.7614c-1.2439-1.5861-1.2085-1.6214 0.37756-0.37756 0.9625 0.75485 1.75 1.5424 1.75 1.75 0 0.82304-0.82119 0.29331-2.1276-1.3724zm-4-3c-1.2439-1.5861-1.2085-1.6214 0.37756-0.37756 0.9625 0.75485 1.75 1.5424 1.75 1.75 0 0.82304-0.82119 0.29331-2.1276-1.3724zm164.63-1.25c0.99549-1.1 2.035-2 2.31-2s-0.31449 0.9-1.31 2-2.035 2-2.31 2 0.31449-0.9 1.31-2zm-170.58-3.75-2.4243-2.75 2.75 2.4243c2.5703 2.2659 3.2086 3.0757 2.4243 3.0757-0.17912 0-1.4166-1.2375-2.75-2.75zm181.58-6.25c3.2656-3.3 6.1624-6 6.4374-6s-2.1718 2.7-5.4374 6-6.1624 6-6.4374 6 2.1718-2.7 5.4374-6zm-195.58-7.75-2.4243-2.75 2.75 2.4243c2.5703 2.2659 3.2086 3.0757 2.4243 3.0757-0.17912 0-1.4166-1.2375-2.75-2.75zm282.64-0.54313c0.37553-0.98622 0.93469-1.5412 1.2426-1.2333s6.4e-4 1.1148-0.68278 1.7931c-0.98762 0.98026-1.1025 0.8654-0.5598-0.5598zm-77.064-2.7069c0.99549-1.1 2.035-2 2.31-2s-0.31449 0.9-1.31 2-2.035 2-2.31 2 0.31449-0.9 1.31-2zm-210.1-2.25-1.905-2.25 2.25 1.905c2.1144 1.7902 2.7052 2.595 1.905 2.595-0.18976 0-1.2023-1.0125-2.25-2.25zm-78.841-3.4569c-0.54268-1.4252-0.42782-1.5401 0.5598-0.5598 0.68342 0.67834 0.99067 1.4852 0.68278 1.7931s-0.86705-0.24711-1.2426-1.2333zm369.44 0.76589c0-0.51754 0.44485-1.2159 0.98855-1.5519 0.56686-0.35034 0.7345 0.0511 0.39301 0.94098-0.66479 1.7324-1.3816 2.0494-1.3816 0.61096zm-371.44-5.7659c-0.54268-1.4252-0.42782-1.5401 0.5598-0.5598 0.68342 0.67834 0.99067 1.4852 0.68278 1.7931s-0.86705-0.24711-1.2426-1.2333zm373.44 0.76589c0-0.51754 0.44485-1.2159 0.98855-1.5519 0.56686-0.35034 0.7345 0.0511 0.39301 0.94098-0.66479 1.7324-1.3816 2.0494-1.3816 0.61096zm-301.54-5.1256c-0.36253-0.58659-0.44468-1.281-0.18256-1.5431s0.74307 0.21781 1.0688 1.0665c0.67618 1.7621 0.09985 2.0721-0.8862 0.4766zm-77.835-13.472c-0.96498-2.5147-0.68031-3.1636 0.49853-1.1363 0.58369 1.0038 0.8506 2.0357 0.59313 2.2931s-0.74872-0.26309-1.0917-1.1568zm69.835-2.5279c-0.36253-0.58659-0.44468-1.281-0.18256-1.5431s0.74307 0.21781 1.0688 1.0665c0.67618 1.7621 0.09985 2.0721-0.8862 0.4766zm246.11-1.2266c0.37553-0.98622 0.93469-1.5412 1.2426-1.2333s6.4e-4 1.1148-0.68278 1.7931c-0.98762 0.98026-1.1025 0.8654-0.5598-0.5598zm-317.49-2.3751c-0.043421-0.64252-0.33792-1.9925-0.65445-3-0.54705-1.7412-0.51883-1.7434 0.57077-0.0441 0.63045 0.98322 0.92496 2.3332 0.65445 3-0.35498 0.87499-0.51379 0.88727-0.57077 0.0441zm69.545-0.87045c-0.96498-2.5147-0.68031-3.1636 0.49853-1.1363 0.58369 1.0038 0.8506 2.0357 0.59313 2.2931-0.25747 0.25747-0.74872-0.26309-1.0917-1.1568zm319.46 0.53866c-0.0302-0.825 0.38124-2.175 0.9144-3 1.1813-1.828 1.1813-0.24909 0 2.5-0.56668 1.3187-0.87815 1.4891-0.9144 0.5zm-68.055-6.5c0-0.55 0.43621-1.675 0.96937-2.5s0.96937-1.05 0.96937-0.5-0.43621 1.675-0.96937 2.5-0.96937 1.05-0.96937 0.5zm-322.95-3.0833c0.047984-1.165 0.28494-1.4019 0.60417-0.60417 0.28887 0.72187 0.25334 1.5844-0.078947 1.9167-0.33229 0.33229-0.56864-0.25834-0.52522-1.3125zm393 0c0.048-1.165 0.28494-1.4019 0.60416-0.60417 0.28887 0.72187 0.25335 1.5844-0.0789 1.9167-0.33229 0.33229-0.56864-0.25834-0.52522-1.3125zm-394-4c0.047984-1.165 0.28494-1.4019 0.60417-0.60417 0.28887 0.72187 0.25334 1.5844-0.078947 1.9167-0.33229 0.33229-0.56864-0.25834-0.52522-1.3125zm395 0c0.048-1.165 0.28494-1.4019 0.60416-0.60417 0.28887 0.72187 0.25335 1.5844-0.0789 1.9167-0.33229 0.33229-0.56864-0.25834-0.52522-1.3125zm-395.92-8.4167c0-1.375 0.22697-1.9375 0.50439-1.25 0.27741 0.6875 0.27741 1.8125 0 2.5-0.27741 0.6875-0.50439 0.125-0.50439-1.25zm397 0c0-1.375 0.22698-1.9375 0.50439-1.25s0.27741 1.8125 0 2.5-0.50439 0.125-0.50439-1.25zm-68.079-0.58333c0.048-1.165 0.28494-1.4019 0.60416-0.60417 0.28887 0.72187 0.25335 1.5844-0.0789 1.9167-0.33229 0.33229-0.56864-0.25834-0.52522-1.3125zm-262-1c0.04798-1.165 0.28494-1.4019 0.60417-0.60417 0.28887 0.72187 0.25334 1.5844-0.07895 1.9167-0.33229 0.33229-0.56864-0.25834-0.52522-1.3125zm263-3c0.048-1.165 0.28494-1.4019 0.60416-0.60417 0.28887 0.72187 0.25335 1.5844-0.0789 1.9167-0.33229 0.33229-0.56864-0.25834-0.52522-1.3125zm-330.92-1.4167c0-1.375 0.22697-1.9375 0.50439-1.25 0.27741 0.6875 0.27741 1.8125 0 2.5-0.27741 0.6875-0.50439 0.125-0.50439-1.25zm399.04-0.5c0.0204-1.65 0.2445-2.2039 0.49804-1.231s0.23687 2.323-0.0371 3c-0.27393 0.67703-0.48137-0.11903-0.46099-1.769zm-332.04-3.5c0-1.375 0.22697-1.9375 0.50439-1.25 0.27741 0.6875 0.27741 1.8125 0 2.5-0.27741 0.6875-0.50439 0.125-0.50439-1.25zm265.07-5c0-1.925 0.2058-2.7125 0.45733-1.75 0.25152 0.9625 0.25152 2.5375 0 3.5-0.25153 0.9625-0.45733 0.175-0.45733-1.75zm-265.96-3c0-2.475 0.19502-3.4875 0.43337-2.25s0.23835 3.2625 0 4.5-0.43337 0.225-0.43337-2.25zm266.92-8.5c0.0204-1.65 0.2445-2.2039 0.49804-1.231s0.23687 2.323-0.0371 3c-0.27393 0.67703-0.48137-0.11903-0.46099-1.769zm-266.96-8.5c0-1.925 0.2058-2.7125 0.45732-1.75 0.25153 0.9625 0.25153 2.5375 0 3.5-0.25153 0.9625-0.45732 0.175-0.45732-1.75zm266-2c0-1.925 0.2058-2.7125 0.45733-1.75 0.25152 0.9625 0.25152 2.5375 0 3.5-0.25153 0.9625-0.45733 0.175-0.45733-1.75zm-265.07-5c0-1.375 0.22697-1.9375 0.50439-1.25 0.27741 0.6875 0.27741 1.8125 0 2.5-0.27741 0.6875-0.50439 0.125-0.50439-1.25zm332.04-3.5c0.0204-1.65 0.2445-2.2039 0.49804-1.231s0.23687 2.323-0.0371 3c-0.27393 0.67703-0.48137-0.11903-0.46099-1.769zm-399.04-0.5c0-1.375 0.22697-1.9375 0.50439-1.25 0.27741 0.6875 0.27741 1.8125 0 2.5-0.27741 0.6875-0.50439 0.125-0.50439-1.25zm330.92-2.5833c0.048-1.165 0.28494-1.4019 0.60416-0.60417 0.28887 0.72187 0.25335 1.5844-0.0789 1.9167-0.33229 0.33229-0.56864-0.25834-0.52522-1.3125zm-329.92-3.4167c0-1.375 0.22697-1.9375 0.50439-1.25 0.27741 0.6875 0.27741 1.8125 0 2.5-0.27741 0.6875-0.50439 0.125-0.50439-1.25zm397 0c0-1.375 0.22698-1.9375 0.50439-1.25s0.27741 1.8125 0 2.5-0.50439 0.125-0.50439-1.25zm-329.08-2.5833c0.04798-1.165 0.28494-1.4019 0.60417-0.60417 0.28887 0.72187 0.25334 1.5844-0.07895 1.9167-0.33229 0.33229-0.56864-0.25834-0.52522-1.3125zm328-6c0.048-1.165 0.28494-1.4019 0.60416-0.60417 0.28887 0.72187 0.25335 1.5844-0.0789 1.9167-0.33229 0.33229-0.56864-0.25834-0.52522-1.3125zm-394-4c0.047984-1.165 0.28494-1.4019 0.60417-0.60417 0.28887 0.72187 0.25334 1.5844-0.078947 1.9167-0.33229 0.33229-0.56864-0.25834-0.52522-1.3125zm393 0c0.048-1.165 0.28494-1.4019 0.60416-0.60417 0.28887 0.72187 0.25335 1.5844-0.0789 1.9167-0.33229 0.33229-0.56864-0.25834-0.52522-1.3125zm-324.05-1.9167c0-0.55 0.43622-1.675 0.96937-2.5s0.96937-1.05 0.96937-0.5-0.43622 1.675-0.96937 2.5-0.96937 1.05-0.96937 0.5zm-67.945-4c0.10413-1.8942 1.7708-5.0838 1.8288-3.5 0.030235 0.825-0.38125 2.175-0.9144 3s-0.94464 1.05-0.9144 0.5zm320.54-1.0387c-0.96498-2.5147-0.68031-3.1636 0.49853-1.1363 0.58369 1.0038 0.8506 2.0357 0.59313 2.2931s-0.74872-0.26309-1.0917-1.1568zm70 0c-0.34295-0.8937-0.59502-2.1506-0.56015-2.7931 0.0349-0.64251 0.49453-0.0904 1.0215 1.227 0.52695 1.3174 0.77902 2.5743 0.56015 2.7931s-0.67854-0.33327-1.0215-1.227zm-388.59-6.9613c0-0.55 0.43622-1.675 0.96937-2.5s0.96937-1.05 0.96937-0.5-0.43622 1.675-0.96937 2.5-0.96937 1.05-0.96937 0.5zm314.53-3.2069c-0.54268-1.4252-0.42782-1.5401 0.5598-0.5598 0.68342 0.67834 0.99067 1.4852 0.68278 1.7931s-0.86705-0.24711-1.2426-1.2333zm-242.56-0.23411c0-0.51754 0.44485-1.2159 0.98855-1.5519 0.56686-0.35034 0.73451 0.0511 0.39301 0.94098-0.66479 1.7324-1.3816 2.0494-1.3816 0.61096zm238.56-7.7659c-0.54268-1.4252-0.42782-1.5401 0.5598-0.5598 0.68342 0.67834 0.99067 1.4852 0.68278 1.7931s-0.86705-0.24711-1.2426-1.2333zm-304-8.5863c0.37553-0.98622 0.93469-1.5412 1.2426-1.2333s6.34e-4 1.1148-0.68278 1.7931c-0.98762 0.98026-1.1025 0.8654-0.5598-0.5598zm373.89 0.2266c-0.36253-0.58659-0.44468-1.281-0.18255-1.5431 0.26212-0.26213 0.74306 0.21781 1.0688 1.0665 0.67618 1.7621 0.0999 2.0721-0.8862 0.4766zm-371.89-5.2266c0.37553-0.98622 0.93469-1.5412 1.2426-1.2333s6.34e-4 1.1148-0.68278 1.7931c-0.98762 0.98026-1.1025 0.8654-0.5598-0.5598zm293.31-0.45687c-1.2439-1.5861-1.2085-1.6214 0.37756-0.37756 0.9625 0.75485 1.75 1.5424 1.75 1.75 0 0.82304-0.82119 0.29331-2.1276-1.3724zm76.586 0.68347c-0.36253-0.58659-0.44468-1.281-0.18255-1.5431 0.26212-0.26213 0.74306 0.21781 1.0688 1.0665 0.67618 1.7621 0.0999 2.0721-0.8862 0.4766zm-79.586-4.6835c-1.2439-1.5861-1.2085-1.6214 0.37756-0.37756 1.6658 1.3064 2.1955 2.1276 1.3724 2.1276-0.20765 0-0.99515-0.7875-1.75-1.75zm-209.37-2.25c0.99549-1.1 2.035-2 2.31-2s-0.31449 0.9-1.31 2-2.035 2-2.31 2 0.31449-0.9 1.31-2zm204.42-3.75-2.4243-2.75 2.75 2.4243c2.5703 2.2659 3.2086 3.0757 2.4243 3.0757-0.17912 0-1.4166-1.2375-2.75-2.75zm-201.92 0.47497c0-0.15126 3.4875-3.6388 7.75-7.75l7.75-7.475-7.475 7.75c-6.9426 7.198-8.025 8.2063-8.025 7.475zm-75.436-7.0181c0.37553-0.98622 0.93469-1.5412 1.2426-1.2333s6.34e-4 1.1148-0.68278 1.7931c-0.98762 0.98026-1.1025 0.8654-0.5598-0.5598zm263.36-7.4569-2.4243-2.75 2.75 2.4243c2.5703 2.2659 3.2086 3.0757 2.4243 3.0757-0.17912 0-1.4166-1.2375-2.75-2.75zm-170.42-2.25c0.99549-1.1 2.035-2 2.31-2s-0.31449 0.9-1.31 2-2.035 2-2.31 2 0.31449-0.9 1.31-2zm164.9-2.25-1.905-2.25 2.25 1.905c2.1144 1.7902 2.7052 2.595 1.905 2.595-0.18976 0-1.2023-1.0125-2.25-2.25zm-13.405-8.75c-0.90129-0.58246-1.0246-0.97549-0.30902-0.98469 0.65504-0.0084 1.4691 0.43469 1.809 0.98469 0.7673 1.2415 0.42112 1.2415-1.5 0zm-124.27-6.1241c0.67834-0.68342 1.4852-0.99067 1.7931-0.68278s-0.24711 0.86705-1.2333 1.2426c-1.4252 0.54269-1.5401 0.42782-0.5598-0.5598zm-101.23-1.8759c0.99549-1.1 2.035-2 2.31-2s-0.31449 0.9-1.31 2-2.035 2-2.31 2 0.31449-0.9 1.31-2zm315.9-0.25-1.905-2.25 2.25 1.905c1.2375 1.0477 2.25 2.0602 2.25 2.25 0 0.80025-0.80479 0.20946-2.595-1.905zm-106.4 0.25c-0.90129-0.58246-1.0246-0.97549-0.30902-0.98469 0.65504-0.0084 1.4691 0.43469 1.809 0.98469 0.7673 1.2415 0.42112 1.2415-1.5 0zm-5-2c-0.825-0.53316-1.05-0.96937-0.5-0.96937s1.675 0.43622 2.5 0.96937 1.05 0.96937 0.5 0.96937-1.675-0.43622-2.5-0.96937zm-200.5-3c0.99549-1.1 2.035-2 2.31-2s-0.31449 0.9-1.31 2-2.035 2-2.31 2 0.31449-0.9 1.31-2zm111.5 1c0.825-0.53316 1.95-0.96937 2.5-0.96937s0.325 0.43622-0.5 0.96937-1.95 0.96937-2.5 0.96937-0.325-0.43622 0.5-0.96937zm196.4-1.25-1.905-2.25 2.25 1.905c2.1144 1.7902 2.7052 2.595 1.905 2.595-0.18976 0-1.2023-1.0125-2.25-2.25zm-182.59-2.4331c0.72187-0.28887 1.5844-0.25334 1.9167 0.07895 0.33229 0.33229-0.25834 0.56864-1.3125 0.52522-1.165-0.04798-1.4019-0.28494-0.60417-0.60417zm-122.81-0.6298c0-0.1721 1.4625-1.6346 3.25-3.25l3.25-2.9371-2.9371 3.25c-2.7378 3.0295-3.5629 3.7097-3.5629 2.9371zm175.81-0.3702c0.72187-0.28887 1.5844-0.25334 1.9167 0.07895 0.33229 0.33229-0.25834 0.56864-1.3125 0.52522-1.165-0.04798-1.4019-0.28494-0.60417-0.60417zm-41.062-0.97917c0.6875-0.27741 1.8125-0.27741 2.5 0 0.6875 0.27741 0.125 0.50439-1.25 0.50439s-1.9375-0.22697-1.25-0.50439zm32 0c0.6875-0.27741 1.8125-0.27741 2.5 0 0.6875 0.27741 0.125 0.50439-1.25 0.50439s-1.9375-0.22697-1.25-0.50439zm133.17-2.0877-2.4243-2.75 2.75 2.4243c2.5703 2.2659 3.2086 3.0757 2.4243 3.0757-0.17912 0-1.4166-1.2375-2.75-2.75zm-158.67 1.0607c0.9625-0.25153 2.5375-0.25153 3.5 0 0.9625 0.25153 0.175 0.45732-1.75 0.45732s-2.7125-0.20579-1.75-0.45732zm16.5-0.01641c1.2375-0.23835 3.2625-0.23835 4.5 0 1.2375 0.23835 0.225 0.43337-2.25 0.43337s-3.4875-0.19502-2.25-0.43337zm-142.75-12.607c0-0.1721 1.4625-1.6346 3.25-3.25l3.25-2.9371-2.9371 3.25c-2.7378 3.0295-3.5629 3.7097-3.5629 2.9371zm270.44-2.9371-2.9371-3.25 3.25 2.9371c1.7875 1.6154 3.25 3.0779 3.25 3.25 0 0.77256-0.82513 0.09236-3.5629-2.9371zm-259.94-6.75c0.99549-1.1 2.035-2 2.31-2s-0.31449 0.9-1.31 2-2.035 2-2.31 2 0.31449-0.9 1.31-2zm252.37 0.25c-1.2439-1.5861-1.2085-1.6214 0.37756-0.37756 1.6658 1.3064 2.1955 2.1276 1.3724 2.1276-0.20765 0-0.99515-0.7875-1.75-1.75zm-248.87-2.6276c0-0.20766 0.7875-0.99516 1.75-1.75 1.5861-1.2439 1.6214-1.2085 0.37756 0.37756-1.3064 1.6657-2.1276 2.1955-2.1276 1.3724zm243.87-1.3724c-1.2439-1.5861-1.2085-1.6214 0.37756-0.37756 0.9625 0.75484 1.75 1.5423 1.75 1.75 0 0.82303-0.82119 0.2933-2.1276-1.3724zm-216.87-16.643c0-0.21616 0.69837-0.661 1.5519-0.98855 0.88992-0.3415 1.2913-0.17385 0.94098 0.39301-0.58726 0.9502-2.4929 1.4054-2.4929 0.59554zm4-2c0-0.21616 0.69837-0.661 1.5519-0.98855 0.88992-0.3415 1.2913-0.17385 0.94098 0.39301-0.58726 0.9502-2.4929 1.4054-2.4929 0.59554zm181.51-0.59554c-0.35034-0.56686 0.0511-0.73451 0.94098-0.39301 1.7324 0.66479 2.0494 1.3816 0.61096 1.3816-0.51754 0-1.2159-0.44485-1.5519-0.98855zm-173.51-3.4045c0-0.21616 0.69837-0.661 1.5519-0.98855 0.88992-0.3415 1.2913-0.17385 0.94098 0.39301-0.58726 0.9502-2.4929 1.4054-2.4929 0.59554zm165.51-0.59554c-0.35034-0.56686 0.0511-0.73451 0.94098-0.39301 1.7324 0.66479 2.0494 1.3816 0.61096 1.3816-0.51754 0-1.2159-0.44485-1.5519-0.98855zm-149.51-6.0115c0.825-0.53316 1.95-0.96937 2.5-0.96937s0.325 0.43622-0.5 0.96937-1.95 0.96937-2.5 0.96937-0.325-0.43622 0.5-0.96937zm134 0c-0.825-0.53316-1.05-0.96937-0.5-0.96937s1.675 0.43622 2.5 0.96937 1.05 0.96937 0.5 0.96937-1.675-0.43622-2.5-0.96937zm-105.19-7.6831c0.72187-0.28887 1.5844-0.25334 1.9167 0.078947 0.33229 0.33229-0.25834 0.56864-1.3125 0.52522-1.165-0.047984-1.4019-0.28494-0.60417-0.60417zm77 0c0.72187-0.28887 1.5844-0.25334 1.9167 0.078947 0.33229 0.33229-0.25834 0.56864-1.3125 0.52522-1.165-0.047984-1.4019-0.28494-0.60417-0.60417zm-73-1c0.72187-0.28887 1.5844-0.25334 1.9167 0.078947 0.33229 0.33229-0.25834 0.56864-1.3125 0.52522-1.165-0.047984-1.4019-0.28494-0.60417-0.60417zm69 0c0.72187-0.28887 1.5844-0.25334 1.9167 0.078947 0.33229 0.33229-0.25834 0.56864-1.3125 0.52522-1.165-0.047984-1.4019-0.28494-0.60417-0.60417zm-60-1c0.72187-0.28887 1.5844-0.25334 1.9167 0.078947 0.33229 0.33229-0.25834 0.56864-1.3125 0.52522-1.165-0.047984-1.4019-0.28494-0.60417-0.60417zm51 0c0.72187-0.28887 1.5844-0.25334 1.9167 0.078947 0.33229 0.33229-0.25834 0.56864-1.3125 0.52522-1.165-0.047984-1.4019-0.28494-0.60417-0.60417zm-45.543-1.0099c0.97297-0.25354 2.323-0.23687 3 0.037054s-0.11903 0.48137-1.769 0.46099c-1.65-0.02038-2.2039-0.2445-1.231-0.49804zm39 0c0.97297-0.25354 2.323-0.23687 3 0.037054s-0.11903 0.48137-1.769 0.46099c-1.65-0.02038-2.2039-0.2445-1.231-0.49804z" fill="#b9b9b9"/>
  <path d="m184.33 398.82c1.5125-0.22913 3.9875-0.22913 5.5 0 1.5125 0.22912 0.275 0.41659-2.75 0.41659s-4.2625-0.18747-2.75-0.41659zm24 0c1.5125-0.22913 3.9875-0.22913 5.5 0 1.5125 0.22912 0.275 0.41659-2.75 0.41659s-4.2625-0.18747-2.75-0.41659zm-32.5-0.94603c0.6875-0.27741 1.8125-0.27741 2.5 0s0.125 0.50439-1.25 0.50439-1.9375-0.22698-1.25-0.50439zm44 0c0.6875-0.27741 1.8125-0.27741 2.5 0s0.125 0.50439-1.25 0.50439-1.9375-0.22698-1.25-0.50439zm-53-1c0.6875-0.27741 1.8125-0.27741 2.5 0s0.125 0.50439-1.25 0.50439-1.9375-0.22698-1.25-0.50439zm62.062-0.0208c0.72187-0.28887 1.5844-0.25335 1.9167 0.0789 0.33229 0.33229-0.25834 0.56864-1.3125 0.52522-1.165-0.048-1.4019-0.28494-0.60417-0.60416zm-66-1c0.72187-0.28887 1.5844-0.25335 1.9167 0.0789 0.33229 0.33229-0.25834 0.56864-1.3125 0.52522-1.165-0.048-1.4019-0.28494-0.60417-0.60416zm71 0c0.72187-0.28887 1.5844-0.25335 1.9167 0.0789 0.33229 0.33229-0.25834 0.56864-1.3125 0.52522-1.165-0.048-1.4019-0.28494-0.60417-0.60416zm-94.812-5.3169c-0.825-0.53316-1.05-0.96937-0.5-0.96937s1.675 0.43621 2.5 0.96937 1.05 0.96937 0.5 0.96937-1.675-0.43621-2.5-0.96937zm118 0c0.825-0.53316 1.95-0.96937 2.5-0.96937s0.325 0.43621-0.5 0.96937-1.95 0.96937-2.5 0.96937-0.325-0.43621 0.5-0.96937zm-130-4c-0.90129-0.58246-1.0246-0.97549-0.30902-0.98469 0.65504-8e-3 1.4691 0.43469 1.809 0.98469 0.7673 1.2415 0.42112 1.2415-1.5 0zm142.73-0.12409c0.67834-0.68342 1.4852-0.99067 1.7931-0.68278s-0.24711 0.86705-1.2333 1.2426c-1.4252 0.54268-1.5401 0.42782-0.5598-0.5598zm47.267-25.253c0-0.20765 0.7875-0.99515 1.75-1.75 1.5861-1.2439 1.6214-1.2085 0.37756 0.37756-1.3064 1.6658-2.1276 2.1955-2.1276 1.3724zm-249.56-10.872-2.9371-3.25 3.25 2.9371c1.7875 1.6154 3.25 3.0779 3.25 3.25 0 0.77256-0.82513 0.0924-3.5629-2.9371zm259.56 2.9371c0-0.1721 1.4625-1.6346 3.25-3.25l3.25-2.9371-2.9371 3.25c-2.7378 3.0295-3.5629 3.7096-3.5629 2.9371zm-278.6-21.937-1.905-2.25 2.25 1.905c1.2375 1.0477 2.25 2.0602 2.25 2.25 0 0.80025-0.80479 0.20945-2.595-1.905zm140.86 1.5324c1.5201-0.22986 3.7701-0.22371 5 0.0136 1.2299 0.23736-0.0137 0.42542-2.7638 0.41792-2.75-8e-3 -3.7563-0.20172-2.2362-0.43157zm14 0c1.5201-0.22986 3.7701-0.22371 5 0.0136 1.2299 0.23736-0.0137 0.42542-2.7638 0.41792-2.75-8e-3 -3.7563-0.20172-2.2362-0.43157zm145.24-1.2824c0.99549-1.1 2.035-2 2.31-2s-0.31449 0.9-1.31 2-2.035 2-2.31 2 0.31449-0.9 1.31-2zm-166.75 0.33772c0.6875-0.27741 1.8125-0.27741 2.5 0s0.125 0.50439-1.25 0.50439-1.9375-0.22698-1.25-0.50439zm32 0c0.6875-0.27741 1.8125-0.27741 2.5 0s0.125 0.50439-1.25 0.50439-1.9375-0.22698-1.25-0.50439zm9.0625-1.0208c0.72187-0.28887 1.5844-0.25335 1.9167 0.0789 0.33229 0.33229-0.25834 0.56864-1.3125 0.52522-1.165-0.048-1.4019-0.28494-0.60417-0.60416zm-66.812-4.3169c-0.825-0.53316-1.05-0.96937-0.5-0.96937s1.675 0.43621 2.5 0.96937 1.05 0.96937 0.5 0.96937-1.675-0.43621-2.5-0.96937zm89-2c0.825-0.53316 1.95-0.96937 2.5-0.96937s0.325 0.43621-0.5 0.96937-1.95 0.96937-2.5 0.96937-0.325-0.43621 0.5-0.96937zm5.7333-2.1241c0.67834-0.68342 1.4852-0.99067 1.7931-0.68278s-0.24711 0.86705-1.2333 1.2426c-1.4252 0.54268-1.5401 0.42782-0.5598-0.5598zm105.27-0.25347c0-0.20765 0.7875-0.99515 1.75-1.75 1.5861-1.2439 1.6214-1.2085 0.37756 0.37756-1.3064 1.6658-2.1276 2.1955-2.1276 1.3724zm-319.6-5.8724-1.905-2.25 2.25 1.905c2.1144 1.7902 2.7052 2.595 1.905 2.595-0.18976 0-1.2023-1.0125-2.25-2.25zm324.1 0.25c0.99549-1.1 2.035-2 2.31-2s-0.31449 0.9-1.31 2-2.035 2-2.31 2 0.31449-0.9 1.31-2zm-245.63-12.75c-1.2439-1.5861-1.2085-1.6214 0.37756-0.37756 0.9625 0.75485 1.75 1.5424 1.75 1.75 0 0.82304-0.82119 0.29331-2.1276-1.3724zm169.63-2.25c0.99549-1.1 2.035-2 2.31-2s-0.31449 0.9-1.31 2-2.035 2-2.31 2 0.31449-0.9 1.31-2zm-176.06-3.25-2.9371-3.25 3.25 2.9371c1.7875 1.6154 3.25 3.0779 3.25 3.25 0 0.77256-0.82513 0.0924-3.5629-2.9371zm-10.032-10-1.905-2.25 2.25 1.905c2.1144 1.7902 2.7052 2.595 1.905 2.595-0.18976 0-1.2023-1.0125-2.25-2.25zm202.1-2.75c0.99549-1.1 2.035-2 2.31-2s-0.31449 0.9-1.31 2-2.035 2-2.31 2 0.31449-0.9 1.31-2zm-207.63-3.75c-1.2439-1.5861-1.2085-1.6214 0.37756-0.37756 0.9625 0.75485 1.75 1.5424 1.75 1.75 0 0.82304-0.82119 0.29331-2.1276-1.3724zm-79.414-6.3165c-0.36253-0.58659-0.44468-1.281-0.18256-1.5431s0.74307 0.21781 1.0688 1.0665c0.67618 1.7621 0.09985 2.0721-0.8862 0.4766zm370.11-0.2266c0.37553-0.98622 0.93469-1.5412 1.2426-1.2333s6.4e-4 1.1148-0.68278 1.7931c-0.98762 0.98026-1.1025 0.8654-0.5598-0.5598zm-372.11-4.7734c-0.36253-0.58659-0.44468-1.281-0.18256-1.5431s0.74307 0.21781 1.0688 1.0665c0.67618 1.7621 0.09985 2.0721-0.8862 0.4766zm374.11-0.2266c0.37553-0.98622 0.93469-1.5412 1.2426-1.2333s6.4e-4 1.1148-0.68278 1.7931c-0.98762 0.98026-1.1025 0.8654-0.5598-0.5598zm3.4663-10.207c0-0.55 0.43621-1.675 0.96937-2.5s0.96937-1.05 0.96937-0.5-0.43621 1.675-0.96937 2.5-0.96937 1.05-0.96937 0.5zm-313.47-7.2069c-0.54268-1.4252-0.42782-1.5401 0.5598-0.5598 0.68342 0.67834 0.99067 1.4852 0.68278 1.7931s-0.86705-0.24711-1.2426-1.2333zm245.44-0.23411c0-0.51754 0.44485-1.2159 0.98855-1.5519 0.56686-0.35034 0.7345 0.0511 0.39301 0.94098-0.66479 1.7324-1.3816 2.0494-1.3816 0.61096zm70.031 0.44098c0-0.55 0.43621-1.675 0.96937-2.5s0.96937-1.05 0.96937-0.5-0.43621 1.675-0.96937 2.5-0.96937 1.05-0.96937 0.5zm-68-5c0-0.55 0.43621-1.675 0.96937-2.5s0.96937-1.05 0.96937-0.5-0.43621 1.675-0.96937 2.5-0.96937 1.05-0.96937 0.5zm-251.41-5.0387c-0.96498-2.5147-0.68031-3.1636 0.49853-1.1363 0.58369 1.0038 0.8506 2.0357 0.59313 2.2931-0.25747 0.25747-0.74872-0.26309-1.0917-1.1568zm324.46-12.045c0.048-1.165 0.28494-1.4019 0.60416-0.60417 0.28887 0.72187 0.25335 1.5844-0.0789 1.9167-0.33229 0.33229-0.56864-0.25834-0.52522-1.3125zm-66-7c0.048-1.165 0.28494-1.4019 0.60416-0.60417 0.28887 0.72187 0.25335 1.5844-0.0789 1.9167-0.33229 0.33229-0.56864-0.25834-0.52522-1.3125zm-329.92-2.4167c0-1.375 0.22697-1.9375 0.50439-1.25 0.27741 0.6875 0.27741 1.8125 0 2.5-0.27741 0.6875-0.50439 0.125-0.50439-1.25zm397 0c0-1.375 0.22698-1.9375 0.50439-1.25s0.27741 1.8125 0 2.5-0.50439 0.125-0.50439-1.25zm-331.08-2.5833c0.04798-1.165 0.28494-1.4019 0.60417-0.60417 0.28887 0.72187 0.25334 1.5844-0.07895 1.9167-0.33229 0.33229-0.56864-0.25834-0.52522-1.3125zm-66.847-4.4167c0-1.925 0.2058-2.7125 0.45732-1.75 0.25153 0.9625 0.25153 2.5375 0 3.5-0.25153 0.9625-0.45732 0.175-0.45732-1.75zm331.93 1c0-1.375 0.22698-1.9375 0.50439-1.25s0.27741 1.8125 0 2.5-0.50439 0.125-0.50439-1.25zm67.037-1.5c0.0204-1.65 0.2445-2.2039 0.49804-1.231s0.23687 2.323-0.0371 3c-0.27393 0.67703-0.48137-0.11903-0.46099-1.769zm-333.04-0.5c0-1.375 0.22697-1.9375 0.50439-1.25 0.27741 0.6875 0.27741 1.8125 0 2.5-0.27741 0.6875-0.50439 0.125-0.50439-1.25zm267.13-7.5c8e-3 -2.75 0.20172-3.7563 0.43157-2.2362 0.22986 1.5201 0.22371 3.7701-0.0136 5-0.23736 1.2299-0.42542-0.0137-0.41792-2.7638zm0-14c8e-3 -2.75 0.20172-3.7563 0.43157-2.2362 0.22986 1.5201 0.22371 3.7701-0.0136 5-0.23736 1.2299-0.42542-0.0137-0.41792-2.7638zm-333.05-7.5c0-1.925 0.2058-2.7125 0.45732-1.75 0.25153 0.9625 0.25153 2.5375 0 3.5-0.25153 0.9625-0.45732 0.175-0.45732-1.75zm65.963 0.5c0.02038-1.65 0.2445-2.2039 0.49804-1.231 0.25354 0.97297 0.23687 2.323-0.03705 3-0.27393 0.67703-0.48137-0.11903-0.46099-1.769zm333 0c0.0204-1.65 0.2445-2.2039 0.49804-1.231s0.23687 2.323-0.0371 3c-0.27393 0.67703-0.48137-0.11903-0.46099-1.769zm-67.037-1.5c0-1.375 0.22698-1.9375 0.50439-1.25s0.27741 1.8125 0 2.5-0.50439 0.125-0.50439-1.25zm-265-4c0-1.375 0.22697-1.9375 0.50439-1.25 0.27741 0.6875 0.27741 1.8125 0 2.5-0.27741 0.6875-0.50439 0.125-0.50439-1.25zm-66-2c0-1.375 0.22697-1.9375 0.50439-1.25 0.27741 0.6875 0.27741 1.8125 0 2.5-0.27741 0.6875-0.50439 0.125-0.50439-1.25zm397 0c0-1.375 0.22698-1.9375 0.50439-1.25s0.27741 1.8125 0 2.5-0.50439 0.125-0.50439-1.25zm-330.08-5.5833c0.04798-1.165 0.28494-1.4019 0.60417-0.60417 0.28887 0.72187 0.25334 1.5844-0.07895 1.9167-0.33229 0.33229-0.56864-0.25834-0.52522-1.3125zm329-4c0.048-1.165 0.28494-1.4019 0.60416-0.60417 0.28887 0.72187 0.25335 1.5844-0.0789 1.9167-0.33229 0.33229-0.56864-0.25834-0.52522-1.3125zm-395-1c0.047984-1.165 0.28494-1.4019 0.60417-0.60417 0.28887 0.72187 0.25334 1.5844-0.078947 1.9167-0.33229 0.33229-0.56864-0.25834-0.52522-1.3125zm67.952-2.9167c0-0.55 0.43622-1.675 0.96937-2.5s0.96937-1.05 0.96937-0.5-0.43622 1.675-0.96937 2.5-0.96937 1.05-0.96937 0.5zm256.59-6.0387c-0.96498-2.5147-0.68031-3.1636 0.49853-1.1363 0.58369 1.0038 0.8506 2.0357 0.59313 2.2931s-0.74872-0.26309-1.0917-1.1568zm-252.62-6.4023c0-0.51754 0.44485-1.2159 0.98855-1.5519 0.56686-0.35034 0.73451 0.0511 0.39301 0.94098-0.66479 1.7324-1.3816 2.0494-1.3816 0.61096zm318.62-3.5977c-0.96498-2.5147-0.68031-3.1636 0.49853-1.1363 0.58369 1.0038 0.8506 2.0357 0.59313 2.2931s-0.74872-0.26309-1.0917-1.1568zm-310.62-13.402c0-0.51754 0.44485-1.2159 0.98855-1.5519 0.56686-0.35034 0.73451 0.0511 0.39301 0.94098-0.66479 1.7324-1.3816 2.0494-1.3816 0.61096zm-70-5c0-0.51754 0.44485-1.2159 0.98855-1.5519 0.56686-0.35034 0.73451 0.0511 0.39301 0.94098-0.66479 1.7324-1.3816 2.0494-1.3816 0.61096zm374.56-0.76589c-0.54268-1.4252-0.42782-1.5401 0.5598-0.5598 0.68342 0.67834 0.99067 1.4852 0.68278 1.7931s-0.86705-0.24711-1.2426-1.2333zm-372.56-4.2341c0-0.51754 0.44485-1.2159 0.98855-1.5519 0.56686-0.35034 0.73451 0.0511 0.39301 0.94098-0.66479 1.7324-1.3816 2.0494-1.3816 0.61096zm370.56-0.76589c-0.54268-1.4252-0.42782-1.5401 0.5598-0.5598 0.68342 0.67834 0.99067 1.4852 0.68278 1.7931s-0.86705-0.24711-1.2426-1.2333zm-80.692-8.0431c-1.2439-1.5861-1.2085-1.6214 0.37756-0.37756 1.6658 1.3064 2.1955 2.1276 1.3724 2.1276-0.20765 0-0.99515-0.7875-1.75-1.75zm-5.4354-6.5-2.9371-3.25 3.25 2.9371c3.0295 2.7378 3.7096 3.5629 2.9371 3.5629-0.1721 0-1.6346-1.4625-3.25-3.25zm-193.94-4.75c2.7086-2.75 5.1498-5 5.4248-5s-1.7162 2.25-4.4248 5-5.1498 5-5.4248 5 1.7162-2.25 4.4248-5zm183.9-5.25-1.905-2.25 2.25 1.905c2.1144 1.7902 2.7052 2.595 1.905 2.595-0.18976 0-1.2023-1.0125-2.25-2.25zm-6.5326-5.5c-1.2439-1.5861-1.2085-1.6214 0.37756-0.37756 0.9625 0.75484 1.75 1.5423 1.75 1.75 0 0.82303-0.82119 0.2933-2.1276-1.3724zm-244.37-11.25c0.99549-1.1 2.035-2 2.31-2s-0.31449 0.9-1.31 2-2.035 2-2.31 2 0.31449-0.9 1.31-2zm323.9-0.25-1.905-2.25 2.25 1.905c2.1144 1.7902 2.7052 2.595 1.905 2.595-0.18976 0-1.2023-1.0125-2.25-2.25zm-227.67 0.12591c0.67834-0.68342 1.4852-0.99067 1.7931-0.68278s-0.24711 0.86705-1.2333 1.2426c-1.4252 0.54269-1.5401 0.42782-0.5598-0.5598zm118.77-5.8645c-0.35034-0.56686 0.0511-0.73451 0.94098-0.39301 1.7324 0.66479 2.0494 1.3816 0.61096 1.3816-0.51754 0-1.2159-0.44485-1.5519-0.98855zm-101.77-2.1355c0.67834-0.68342 1.4852-0.99067 1.7931-0.68278s-0.24711 0.86705-1.2333 1.2426c-1.4252 0.54269-1.5401 0.42782-0.5598-0.5598zm91.267-1.8759c-0.825-0.53316-1.05-0.96937-0.5-0.96937s1.675 0.43622 2.5 0.96937 1.05 0.96937 0.5 0.96937-1.675-0.43622-2.5-0.96937zm-80-2c0.825-0.53316 1.95-0.96937 2.5-0.96937s0.325 0.43622-0.5 0.96937-1.95 0.96937-2.5 0.96937-0.325-0.43622 0.5-0.96937zm-112.5-3c0.99549-1.1 2.035-2 2.31-2s-0.31449 0.9-1.31 2-2.035 2-2.31 2 0.31449-0.9 1.31-2zm299.9-0.25-1.905-2.25 2.25 1.905c1.2375 1.0477 2.25 2.0602 2.25 2.25 0 0.80025-0.80479 0.20946-2.595-1.905zm-177.59 0.56689c0.72187-0.28887 1.5844-0.25334 1.9167 0.07895 0.33229 0.33229-0.25834 0.56864-1.3125 0.52522-1.165-0.04798-1.4019-0.28494-0.60417-0.60417zm6.9375-0.97917c0.6875-0.27741 1.8125-0.27741 2.5 0 0.6875 0.27741 0.125 0.50439-1.25 0.50439s-1.9375-0.22697-1.25-0.50439zm40.062-0.02083c0.72187-0.28887 1.5844-0.25334 1.9167 0.07895 0.33229 0.33229-0.25834 0.56864-1.3125 0.52522-1.165-0.04798-1.4019-0.28494-0.60417-0.60417zm-34.543-1.0099c0.97297-0.25354 2.323-0.23687 3 0.03705 0.67703 0.27392-0.11903 0.48137-1.769 0.46099s-2.2039-0.2445-1.231-0.49804zm28.481 0.03071c0.6875-0.27741 1.8125-0.27741 2.5 0 0.6875 0.27741 0.125 0.50439-1.25 0.50439s-1.9375-0.22697-1.25-0.50439zm-146.75-14.651c0-0.1721 1.4625-1.6346 3.25-3.25l3.25-2.9371-2.9371 3.25c-2.7378 3.0295-3.5629 3.7097-3.5629 2.9371zm264.44-2.9371-2.9371-3.25 3.25 2.9371c1.7875 1.6154 3.25 3.0779 3.25 3.25 0 0.77256-0.82513 0.09236-3.5629-2.9371zm-6.0321-5-1.905-2.25 2.25 1.905c1.2375 1.0477 2.25 2.0602 2.25 2.25 0 0.80025-0.80479 0.20946-2.595-1.905zm-245.4-3.1276c0-0.20766 0.7875-0.99516 1.75-1.75 1.5861-1.2439 1.6214-1.2085 0.37756 0.37756-1.3064 1.6657-2.1276 2.1955-2.1276 1.3724zm239.87-1.3724c-1.2439-1.5861-1.2085-1.6214 0.37756-0.37756 1.6658 1.3064 2.1955 2.1276 1.3724 2.1276-0.20765 0-0.99515-0.7875-1.75-1.75zm-191.87-25.643c0-0.21616 0.69837-0.661 1.5519-0.98855 0.88992-0.3415 1.2913-0.17385 0.94098 0.39301-0.58726 0.9502-2.4929 1.4054-2.4929 0.59554zm143.51-0.59554c-0.35034-0.56686 0.0511-0.73451 0.94098-0.39301 1.7324 0.66479 2.0494 1.3816 0.61096 1.3816-0.51754 0-1.2159-0.44485-1.5519-0.98855zm-130.51-4.0115c0.825-0.53316 1.95-0.96937 2.5-0.96937s0.325 0.43622-0.5 0.96937-1.95 0.96938-2.5 0.96938-0.325-0.43622 0.5-0.96938zm118 0c-0.825-0.53316-1.05-0.96937-0.5-0.96937s1.675 0.43622 2.5 0.96937 1.05 0.96938 0.5 0.96938-1.675-0.43622-2.5-0.96938zm-94.188-5.6831c0.72187-0.28887 1.5844-0.25334 1.9167 0.078947 0.33229 0.33229-0.25834 0.56864-1.3125 0.52522-1.165-0.047984-1.4019-0.28494-0.60417-0.60417zm71 0c0.72187-0.28887 1.5844-0.25334 1.9167 0.078947 0.33229 0.33229-0.25834 0.56864-1.3125 0.52522-1.165-0.047984-1.4019-0.28494-0.60417-0.60417zm-67.062-0.97917c0.6875-0.27741 1.8125-0.27741 2.5 0s0.125 0.50439-1.25 0.50439-1.9375-0.22697-1.25-0.50439zm62 0c0.6875-0.27741 1.8125-0.27741 2.5 0s0.125 0.50439-1.25 0.50439-1.9375-0.22697-1.25-0.50439zm-53-1c0.6875-0.27741 1.8125-0.27741 2.5 0 0.6875 0.27741 0.125 0.50439-1.25 0.50439s-1.9375-0.22697-1.25-0.50439zm44 0c0.6875-0.27741 1.8125-0.27741 2.5 0 0.6875 0.27741 0.125 0.50439-1.25 0.50439s-1.9375-0.22697-1.25-0.50439zm-35.5-1.054c1.5125-0.22912 3.9875-0.22912 5.5 0 1.5125 0.22912 0.275 0.41659-2.75 0.41659s-4.2625-0.18747-2.75-0.41659zm24 0c1.5125-0.22912 3.9875-0.22912 5.5 0 1.5125 0.22912 0.275 0.41659-2.75 0.41659s-4.2625-0.18747-2.75-0.41659z" fill="#8c8c8c"/>
  <path d="m195.33 398.81c2.0625-0.21574 5.4375-0.21574 7.5 0 2.0625 0.21575 0.375 0.39226-3.75 0.39226s-5.8125-0.17651-3.75-0.39226zm-13.986-0.98911c1.5201-0.22986 3.7701-0.22371 5 0.0136 1.2299 0.23736-0.0137 0.42542-2.7638 0.41792-2.75-8e-3 -3.7563-0.20172-2.2362-0.43157zm31 0c1.5201-0.22986 3.7701-0.22371 5 0.0136 1.2299 0.23736-0.0137 0.42542-2.7638 0.41792-2.75-8e-3 -3.7563-0.20172-2.2362-0.43157zm-41.514-0.9447c0.6875-0.27741 1.8125-0.27741 2.5 0s0.125 0.50439-1.25 0.50439-1.9375-0.22698-1.25-0.50439zm54 0c0.6875-0.27741 1.8125-0.27741 2.5 0s0.125 0.50439-1.25 0.50439-1.9375-0.22698-1.25-0.50439zm-58.938-1.0208c0.72187-0.28887 1.5844-0.25335 1.9167 0.0789 0.33229 0.33229-0.25834 0.56864-1.3125 0.52522-1.165-0.048-1.4019-0.28494-0.60417-0.60416zm65 0c0.72187-0.28887 1.5844-0.25335 1.9167 0.0789 0.33229 0.33229-0.25834 0.56864-1.3125 0.52522-1.165-0.048-1.4019-0.28494-0.60417-0.60416zm-74.812-1.3626c-1.0955-0.74131-0.69092-0.83408 1.5-0.34401 3.6769 0.82247 4.4751 1.3948 1.9167 1.3744-1.0542-8e-3 -2.5917-0.47209-3.4167-1.0304zm81.083 0.68637c0.22917-0.19763 1.7667-0.6613 3.4167-1.0304 2.1909-0.49007 2.5955-0.3973 1.5 0.34401-1.3504 0.91381-5.9202 1.5518-4.9167 0.68637zm8.7292-2.3238c0.72187-0.28887 1.5844-0.25335 1.9167 0.0789 0.33229 0.33229-0.25834 0.56864-1.3125 0.52522-1.165-0.048-1.4019-0.28494-0.60417-0.60416zm-103-2c0.72187-0.28887 1.5844-0.25335 1.9167 0.0789 0.33229 0.33229-0.25834 0.56864-1.3125 0.52522-1.165-0.048-1.4019-0.28494-0.60417-0.60416zm111 0c0.72187-0.28887 1.5844-0.25335 1.9167 0.0789 0.33229 0.33229-0.25834 0.56864-1.3125 0.52522-1.165-0.048-1.4019-0.28494-0.60417-0.60416zm-119.81-2.3169c-1.828-1.1813-0.24909-1.1813 2.5 0 1.3187 0.56668 1.4891 0.87815 0.5 0.9144-0.825 0.0302-2.175-0.38124-3-0.9144zm-5.4424-1.9067c-0.30822-0.49871 0.34022-0.67122 1.441-0.38337 2.335 0.61061 2.6302 1.2901 0.5604 1.2901-0.79254 0-1.6932-0.40803-2.0014-0.90674zm137.44 0.52337c0-0.21085 0.90062-0.61888 2.0014-0.90674 1.1008-0.28785 1.7492-0.11534 1.441 0.38337-0.53825 0.87091-3.4424 1.3124-3.4424 0.52337zm-143-2.6166c-0.825-0.53316-1.05-0.96937-0.5-0.96937s1.675 0.43621 2.5 0.96937 1.05 0.96937 0.5 0.96937-1.675-0.43621-2.5-0.96937zm150 0c0.825-0.53316 1.95-0.96937 2.5-0.96937s0.325 0.43621-0.5 0.96937-1.95 0.96937-2.5 0.96937-0.325-0.43621 0.5-0.96937zm-154.49-1.9886c-0.35034-0.56686 0.0511-0.7345 0.94098-0.39301 1.7324 0.66479 2.0494 1.3816 0.61096 1.3816-0.51754 0-1.2159-0.44485-1.5519-0.98855zm158.49 0.59554c0-0.21616 0.69837-0.661 1.5519-0.98855 0.88992-0.34149 1.2913-0.17385 0.94098 0.39301-0.58726 0.95021-2.4929 1.4054-2.4929 0.59554zm-163-2.607c-0.90129-0.58246-1.0246-0.97549-0.30902-0.98469 0.65504-8e-3 1.4691 0.43469 1.809 0.98469 0.7673 1.2415 0.42112 1.2415-1.5 0zm168.73-0.12409c0.67834-0.68342 1.4852-0.99067 1.7931-0.68278s-0.24711 0.86705-1.2333 1.2426c-1.4252 0.54268-1.5401 0.42782-0.5598-0.5598zm4-2c0.67834-0.68342 1.4852-0.99067 1.7931-0.68278s-0.24711 0.86705-1.2333 1.2426c-1.4252 0.54268-1.5401 0.42782-0.5598-0.5598zm-184.23-3.8645c-0.35034-0.56686 0.0511-0.7345 0.94098-0.39301 1.7324 0.66479 2.0494 1.3816 0.61096 1.3816-0.51754 0-1.2159-0.44485-1.5519-0.98855zm190.49 0.59554c0-0.21616 0.69837-0.661 1.5519-0.98855 0.88992-0.34149 1.2913-0.17385 0.94098 0.39301-0.58726 0.95021-2.4929 1.4054-2.4929 0.59554zm-215.04-16.679-3.4622-3.0722 3.75 2.6908c3.3139 2.3779 4.3922 3.4535 3.4622 3.4535-0.15828 0-1.8458-1.3825-3.75-3.0722zm238.04 2.6946c0-0.20765 0.7875-0.99515 1.75-1.75 1.5861-1.2439 1.6214-1.2085 0.37756 0.37756-1.3064 1.6658-2.1276 2.1955-2.1276 1.3724zm4-3c0-0.20765 0.7875-0.99515 1.75-1.75 1.5861-1.2439 1.6214-1.2085 0.37756 0.37756-1.3064 1.6658-2.1276 2.1955-2.1276 1.3724zm-251.08-7.3724-2.4243-2.75 2.75 2.4243c2.5703 2.2659 3.2086 3.0757 2.4243 3.0757-0.17913 0-1.4166-1.2375-2.75-2.75zm259.08 0.25c1.2918-1.375 2.5736-2.5 2.8486-2.5s-0.55688 1.125-1.8486 2.5-2.5736 2.5-2.8486 2.5 0.55688-1.125 1.8486-2.5zm-270.53-10.75-6.9732-7.25 7.25 6.9732c3.9875 3.8352 7.25 7.0978 7.25 7.25 0 0.73351-1.0501-0.23938-7.5268-6.9732zm282.03 0.25c3.8205-3.85 7.1714-7 7.4464-7s-2.6259 3.15-6.4464 7-7.1714 7-7.4464 7 2.6259-3.15 6.4464-7zm-156.23-7.693c0.97297-0.25354 2.323-0.23687 3 0.0371 0.67703 0.27393-0.11903 0.48137-1.769 0.46099-1.65-0.0204-2.2039-0.2445-1.231-0.49804zm28 0c0.97297-0.25354 2.323-0.23687 3 0.0371 0.67703 0.27393-0.11903 0.48137-1.769 0.46099-1.65-0.0204-2.2039-0.2445-1.231-0.49804zm-34-1c0.97297-0.25354 2.323-0.23687 3 0.0371 0.67703 0.27393-0.11903 0.48137-1.769 0.46099-1.65-0.0204-2.2039-0.2445-1.231-0.49804zm40.481 0.0307c0.6875-0.27741 1.8125-0.27741 2.5 0s0.125 0.50439-1.25 0.50439-1.9375-0.22698-1.25-0.50439zm130.75-1.3377c0.99549-1.1 2.035-2 2.31-2s-0.31449 0.9-1.31 2-2.035 2-2.31 2 0.31449-0.9 1.31-2zm-300.63-0.75c-1.2439-1.5861-1.2085-1.6214 0.37756-0.37756 1.6657 1.3064 2.1955 2.1276 1.3724 2.1276-0.20766 0-0.99516-0.7875-1.75-1.75zm120.63 0.75c-1.2606-0.54172-1.4455-0.85943-0.5-0.85943 0.825 0 2.4 0.38674 3.5 0.85943 1.2606 0.54172 1.4455 0.85943 0.5 0.85943-0.825 0-2.4-0.38674-3.5-0.85943zm60.312-0.68311c0.72187-0.28887 1.5844-0.25335 1.9167 0.0789 0.33229 0.33229-0.25834 0.56864-1.3125 0.52522-1.165-0.048-1.4019-0.28494-0.60417-0.60416zm-68.312-1.3169c-1.3187-0.56668-1.4891-0.87815-0.5-0.9144 0.825-0.0302 2.175 0.38124 3 0.9144 1.828 1.1813 0.24909 1.1813-2.5 0zm80.5-2c0.825-0.53316 1.95-0.96937 2.5-0.96937s0.325 0.43621-0.5 0.96937-1.95 0.96937-2.5 0.96937-0.325-0.43621 0.5-0.96937zm-198.6-3.25-1.905-2.25 2.25 1.905c2.1144 1.7902 2.7052 2.595 1.905 2.595-0.18976 0-1.2023-1.0125-2.25-2.25zm106.6 1.25c-0.825-0.53316-1.05-0.96937-0.5-0.96937s1.675 0.43621 2.5 0.96937 1.05 0.96937 0.5 0.96937-1.675-0.43621-2.5-0.96937zm204 0.62244c0-0.20765 0.7875-0.99515 1.75-1.75 1.5861-1.2439 1.6214-1.2085 0.37756 0.37756-1.3064 1.6658-2.1276 2.1955-2.1276 1.3724zm-208.49-2.611c-0.35034-0.56686 0.0511-0.7345 0.94098-0.39301 1.7324 0.66479 2.0494 1.3816 0.61096 1.3816-0.51754 0-1.2159-0.44485-1.5519-0.98855zm-4.5071-2.0114c-0.90129-0.58246-1.0246-0.97549-0.30902-0.98469 0.65504-8e-3 1.4691 0.43469 1.809 0.98469 0.7673 1.2415 0.42112 1.2415-1.5 0zm216 0.62244c0-0.20765 0.7875-0.99515 1.75-1.75 1.5861-1.2439 1.6214-1.2085 0.37756 0.37756-1.3064 1.6658-2.1276 2.1955-2.1276 1.3724zm-320.13-6.3724c-1.2439-1.5861-1.2085-1.6214 0.37756-0.37756 0.9625 0.75485 1.75 1.5424 1.75 1.75 0 0.82304-0.82119 0.29331-2.1276-1.3724zm324.13 1.3724c0-0.20765 0.7875-0.99515 1.75-1.75 1.5861-1.2439 1.6214-1.2085 0.37756 0.37756-1.3064 1.6658-2.1276 2.1955-2.1276 1.3724zm-240-7.7445c-3.4851-3.0552-3.4862-3.0591-0.28024-0.92654 1.7709 1.178 3.4849 2.5708 3.809 3.0952 0.96465 1.5608 0.16463 1.0692-3.5288-2.1686zm245.87-0.37794c0.54004-1.1 1.7147-2.9 2.6103-4l1.6284-2-0.98189 2c-0.54004 1.1-1.7147 2.9-2.6103 4l-1.6284 2zm-336.87-3.5c-0.5887-1.1-0.84537-2-0.57037-2s0.98167 0.9 1.5704 2 0.84537 2 0.57037 2-0.98167-0.9-1.5704-2zm251 1.6224c0-0.20765 0.7875-0.99515 1.75-1.75 1.5861-1.2439 1.6214-1.2085 0.37756 0.37756-1.3064 1.6658-2.1276 2.1955-2.1276 1.3724zm-166.6-2.8724-1.905-2.25 2.25 1.905c2.1144 1.7902 2.7052 2.595 1.905 2.595-0.18976 0-1.2023-1.0125-2.25-2.25zm170.6-0.0629c0-0.1721 1.4625-1.6346 3.25-3.25l3.25-2.9371-2.9371 3.25c-2.7378 3.0295-3.5629 3.7096-3.5629 2.9371zm-181.03-9.4371-5.4658-5.75 5.75 5.4658c5.3419 5.0779 6.2081 6.0342 5.4658 6.0342-0.15629 0-2.7438-2.5875-5.75-5.75zm-79.507 1.6835c-0.36253-0.58659-0.44468-1.281-0.18256-1.5431s0.74307 0.21781 1.0688 1.0665c0.67618 1.7621 0.09985 2.0721-0.8862 0.4766zm350.11-0.2266c0.37553-0.98622 0.93469-1.5412 1.2426-1.2333s6.4e-4 1.1148-0.68278 1.7931c-0.98762 0.98026-1.1025 0.8654-0.5598-0.5598zm-352.11-3.7734c-0.36253-0.58659-0.44468-1.281-0.18256-1.5431s0.74307 0.21781 1.0688 1.0665c0.67618 1.7621 0.09985 2.0721-0.8862 0.4766zm354.11-0.2266c0.37553-0.98622 0.93469-1.5412 1.2426-1.2333s6.4e-4 1.1148-0.68278 1.7931c-0.98762 0.98026-1.1025 0.8654-0.5598-0.5598zm-78.564-1.0198c0-0.1721 1.4625-1.6346 3.25-3.25l3.25-2.9371-2.9371 3.25c-2.7378 3.0295-3.5629 3.7096-3.5629 2.9371zm-277.54-2.7536c-0.36253-0.58659-0.44468-1.281-0.18256-1.5431s0.74307 0.21781 1.0688 1.0665c0.67618 1.7621 0.09985 2.0721-0.8862 0.4766zm358.11-0.2266c0.37553-0.98622 0.93469-1.5412 1.2426-1.2333s6.4e-4 1.1148-0.68278 1.7931c-0.98762 0.98026-1.1025 0.8654-0.5598-0.5598zm-283.64-3.4569-2.4243-2.75 2.75 2.4243c2.5703 2.2659 3.2086 3.0757 2.4243 3.0757-0.17913 0-1.4166-1.2375-2.75-2.75zm-76.465-0.31653c-0.36253-0.58659-0.44468-1.281-0.18256-1.5431s0.74307 0.21781 1.0688 1.0665c0.67618 1.7621 0.09985 2.0721-0.8862 0.4766zm285.54-0.31103c0-0.20765 0.7875-0.99515 1.75-1.75 1.5861-1.2439 1.6214-1.2085 0.37756 0.37756-1.3064 1.6658-2.1276 2.1955-2.1276 1.3724zm-221.44-17.329c-0.54268-1.4252-0.42782-1.5401 0.5598-0.5598 0.68342 0.67834 0.99067 1.4852 0.68278 1.7931s-0.86705-0.24711-1.2426-1.2333zm-76.485-17.876c0.047984-1.165 0.28494-1.4019 0.60417-0.60417 0.28887 0.72187 0.25334 1.5844-0.078947 1.9167-0.33229 0.33229-0.56864-0.25834-0.52522-1.3125zm387 0c0.048-1.165 0.28494-1.4019 0.60416-0.60417 0.28887 0.72187 0.25335 1.5844-0.0789 1.9167-0.33229 0.33229-0.56864-0.25834-0.52522-1.3125zm-67.048-3.9167c0-0.55 0.43621-1.675 0.96937-2.5s0.96937-1.05 0.96937-0.5-0.43621 1.675-0.96937 2.5-0.96937 1.05-0.96937 0.5zm-321.87-4.5c0-1.375 0.22697-1.9375 0.50439-1.25s0.27741 1.8125 0 2.5-0.50439 0.125-0.50439-1.25zm391 0c0-1.375 0.22698-1.9375 0.50439-1.25s0.27741 1.8125 0 2.5-0.50439 0.125-0.50439-1.25zm-324.08 0.33179c-0.04342-0.64252-0.33792-1.9925-0.65445-3-0.54705-1.7412-0.51883-1.7434 0.57077-0.0441 0.63045 0.98322 0.92496 2.3332 0.65445 3-0.35498 0.87499-0.51379 0.88727-0.57078 0.0441zm-68-6.9151c0.047984-1.165 0.28494-1.4019 0.60417-0.60417 0.28887 0.72187 0.25334 1.5844-0.078947 1.9167-0.33229 0.33229-0.56864-0.25834-0.52522-1.3125zm393 0c0.048-1.165 0.28494-1.4019 0.60416-0.60417 0.28887 0.72187 0.25335 1.5844-0.0789 1.9167-0.33229 0.33229-0.56864-0.25834-0.52522-1.3125zm-327-1c0.04798-1.165 0.28494-1.4019 0.60417-0.60417 0.28887 0.72187 0.25334 1.5844-0.07895 1.9167-0.33229 0.33229-0.56864-0.25834-0.52522-1.3125zm261-2c0.048-1.165 0.28494-1.4019 0.60416-0.60417 0.28887 0.72187 0.25335 1.5844-0.0789 1.9167-0.33229 0.33229-0.56864-0.25834-0.52522-1.3125zm-327.85-2.4167c0-1.925 0.2058-2.7125 0.45732-1.75 0.25153 0.9625 0.25153 2.5375 0 3.5-0.25153 0.9625-0.45732 0.175-0.45732-1.75zm394.96-0.5c0.0204-1.65 0.2445-2.2039 0.49804-1.231s0.23687 2.323-0.0371 3c-0.27393 0.67703-0.48137-0.11903-0.46099-1.769zm-330.04-4.5c0-1.375 0.22697-1.9375 0.50439-1.25 0.27741 0.6875 0.27741 1.8125 0 2.5-0.27741 0.6875-0.50439 0.125-0.50439-1.25zm265-3c0-1.375 0.22698-1.9375 0.50439-1.25s0.27741 1.8125 0 2.5-0.50439 0.125-0.50439-1.25zm-330.96-2.5c0.02038-1.65 0.2445-2.2039 0.49804-1.231 0.25354 0.97297 0.23687 2.323-0.037054 3-0.27392 0.67703-0.48137-0.11903-0.46099-1.769zm64.963 0.5c0-1.375 0.22697-1.9375 0.50439-1.25 0.27741 0.6875 0.27741 1.8125 0 2.5-0.27741 0.6875-0.50439 0.125-0.50439-1.25zm332.07-1c0-1.925 0.2058-2.7125 0.45733-1.75 0.25152 0.9625 0.25152 2.5375 0 3.5-0.25153 0.9625-0.45733 0.175-0.45733-1.75zm-65.037-3.5c0.0204-1.65 0.2445-2.2039 0.49804-1.231s0.23687 2.323-0.0371 3c-0.27393 0.67703-0.48137-0.11903-0.46099-1.769zm-332.81-13.5c0-6.875 0.15977-9.6875 0.35504-6.25s0.19527 9.0625 0 12.5-0.35504 0.625-0.35504-6.25zm399 0c0-6.875 0.15977-9.6875 0.35504-6.25s0.19527 9.0625 0 12.5-0.35504 0.625-0.35504-6.25zm-334.01-0.5c0.0023-6.05 0.16696-8.3961 0.36601-5.2135s0.1972 8.1326-0.0041 11c-0.20131 2.8674-0.36417 0.26349-0.36191-5.7865zm267.82-14c0.0204-1.65 0.2445-2.2039 0.49804-1.231s0.23687 2.323-0.0371 3c-0.27393 0.67703-0.48137-0.11903-0.46099-1.769zm65.037-2.5c0-1.925 0.2058-2.7125 0.45733-1.75 0.25152 0.9625 0.25152 2.5375 0 3.5-0.25153 0.9625-0.45733 0.175-0.45733-1.75zm-397.04-0.5c0.02038-1.65 0.2445-2.2039 0.49804-1.231 0.25354 0.97297 0.23687 2.323-0.037054 3-0.27392 0.67703-0.48137-0.11903-0.46099-1.769zm64.884-1.0833c0.04798-1.165 0.28494-1.4019 0.60417-0.60417 0.28887 0.72187 0.25334 1.5844-0.07895 1.9167-0.33229 0.33229-0.56864-0.25834-0.52522-1.3125zm266.12-1.9167c0.0204-1.65 0.2445-2.2039 0.49804-1.231s0.23687 2.323-0.0371 3c-0.27393 0.67703-0.48137-0.11903-0.46099-1.769zm-265.04-3.5c0-1.375 0.22697-1.9375 0.50439-1.25 0.27741 0.6875 0.27741 1.8125 0 2.5-0.27741 0.6875-0.50439 0.125-0.50439-1.25zm-64.926-4c0-1.925 0.2058-2.7125 0.45732-1.75 0.25153 0.9625 0.25153 2.5375 0 3.5-0.25153 0.9625-0.45732 0.175-0.45732-1.75zm394.96 0.5c0.0204-1.65 0.2445-2.2039 0.49804-1.231s0.23687 2.323-0.0371 3c-0.27393 0.67703-0.48137-0.11903-0.46099-1.769zm-66.624-1.0714c-0.36782-1.4655-0.47591-2.8574-0.24019-3.0931 0.23571-0.23571 0.72951 0.77049 1.0973 2.236s0.47591 2.8574 0.24019 3.0931c-0.23571 0.23571-0.72951-0.77049-1.0973-2.236zm-327.49-5.0119c0.047984-1.165 0.28494-1.4019 0.60417-0.60417 0.28887 0.72187 0.25334 1.5844-0.078947 1.9167-0.33229 0.33229-0.56864-0.25834-0.52522-1.3125zm393 0c0.048-1.165 0.28494-1.4019 0.60416-0.60417 0.28887 0.72187 0.25335 1.5844-0.0789 1.9167-0.33229 0.33229-0.56864-0.25834-0.52522-1.3125zm-67.455-2.9553c-0.34295-0.8937-0.59502-2.1506-0.56015-2.7931 0.0349-0.64251 0.49453-0.0904 1.0215 1.227 0.52695 1.3174 0.77902 2.5743 0.56015 2.7931s-0.67854-0.33327-1.0215-1.227zm-324.47-3.4613c0-1.375 0.22697-1.9375 0.50439-1.25s0.27741 1.8125 0 2.5-0.50439 0.125-0.50439-1.25zm391 0c0-1.375 0.22698-1.9375 0.50439-1.25s0.27741 1.8125 0 2.5-0.50439 0.125-0.50439-1.25zm-389.08-8.5833c0.047984-1.165 0.28494-1.4019 0.60417-0.60417 0.28887 0.72187 0.25334 1.5844-0.078947 1.9167-0.33229 0.33229-0.56864-0.25834-0.52522-1.3125zm318.54 0.0447c-0.96498-2.5147-0.68031-3.1636 0.49853-1.1363 0.58369 1.0038 0.8506 2.0357 0.59313 2.2931s-0.74872-0.26309-1.0917-1.1568zm68.455-0.0447c0.048-1.165 0.28494-1.4019 0.60416-0.60417 0.28887 0.72187 0.25335 1.5844-0.0789 1.9167-0.33229 0.33229-0.56864-0.25834-0.52522-1.3125zm-318.51-1.7098c0.37553-0.98622 0.93469-1.5412 1.2426-1.2333s6.34e-4 1.1148-0.68278 1.7931c-0.98762 0.98026-1.1025 0.8654-0.5598-0.5598zm248-3.4137c-0.54268-1.4252-0.42782-1.5401 0.5598-0.5598 0.68342 0.67834 0.99067 1.4852 0.68278 1.7931s-0.86705-0.24711-1.2426-1.2333zm-246.53 0.20687c0-0.55 0.43622-1.675 0.96937-2.5s0.96937-1.05 0.96937-0.5-0.43622 1.675-0.96937 2.5-0.96937 1.05-0.96937 0.5zm244.43-4.5665c-0.36253-0.58659-0.44468-1.281-0.18255-1.5431 0.26212-0.26213 0.74306 0.21781 1.0688 1.0665 0.67618 1.7621 0.0999 2.0721-0.8862 0.4766zm-241.89-1.2266c0.37553-0.98622 0.93469-1.5412 1.2426-1.2333s6.34e-4 1.1148-0.68278 1.7931c-0.98762 0.98026-1.1025 0.8654-0.5598-0.5598zm-68.479-2.7069c-0.03023-0.825 0.38125-2.175 0.9144-3 1.1813-1.828 1.1813-0.24909 0 2.5-0.56668 1.3187-0.87816 1.4891-0.9144 0.5zm70.479-1.2931c0.37553-0.98622 0.93469-1.5412 1.2426-1.2333s6.34e-4 1.1148-0.68278 1.7931c-0.98762 0.98026-1.1025 0.8654-0.5598-0.5598zm6.4357-11.084c0-0.20765 0.7875-0.99515 1.75-1.75 1.5861-1.2439 1.6214-1.2085 0.37756 0.37756-1.3064 1.6658-2.1276 2.1955-2.1276 1.3724zm222.86-2.3724c-2.8769-3.4732-4.0959-5.25-3.6015-5.25 0.27706 0 1.7051 1.575 3.1733 3.5 2.7247 3.5723 3.0547 4.9208 0.42818 1.75zm-216.36-6.25c0.99549-1.1 2.035-2 2.31-2s-0.31449 0.9-1.31 2-2.035 2-2.31 2 0.31449-0.9 1.31-2zm-75.5 0.059c0-0.51754 0.44485-1.2159 0.98855-1.5519 0.56686-0.35034 0.73451 0.0511 0.39301 0.94098-0.66479 1.7324-1.3816 2.0494-1.3816 0.61098zm362.56-0.76589c-0.54268-1.4252-0.42782-1.5401 0.5598-0.5598 0.68342 0.67834 0.99067 1.4852 0.68278 1.7931s-0.86705-0.24711-1.2426-1.2333zm-77.159-1.5431-1.905-2.25 2.25 1.905c2.1144 1.7902 2.7052 2.595 1.905 2.595-0.18976 0-1.2023-1.0125-2.25-2.25zm-283.4-1.691c0-0.51754 0.44485-1.2159 0.98855-1.5519 0.56686-0.35034 0.73451 0.0511 0.39301 0.94098-0.66479 1.7324-1.3816 2.0494-1.3816 0.61096zm77.5-1.059c0.99548-1.1 2.035-2 2.31-2 0.27501 0-0.31449 0.9-1.31 2-0.99549 1.1-2.035 2-2.31 2s0.31449-0.9 1.31-2zm281.06 0.29313c-0.54268-1.4252-0.42782-1.5401 0.5598-0.5598 0.68342 0.67834 0.99067 1.4852 0.68278 1.7931s-0.86705-0.24711-1.2426-1.2333zm-356.56-3.2341c0-0.51754 0.44485-1.2159 0.98855-1.5519 0.56686-0.35034 0.73451 0.0511 0.39301 0.94098-0.66479 1.7324-1.3816 2.0494-1.3816 0.61096zm271.97-4.809-5.4658-5.75 5.75 5.4658c3.1625 3.0062 5.75 5.5937 5.75 5.75 0 0.74225-0.95622-0.12391-6.0342-5.4658zm82.598 4.0431c-0.54268-1.4252-0.42782-1.5401 0.5598-0.5598 0.68342 0.67834 0.99067 1.4852 0.68278 1.7931s-0.86705-0.24711-1.2426-1.2333zm-352.56-3.2341c0-0.51754 0.44485-1.2159 0.98855-1.5519 0.56686-0.35034 0.73451 0.0511 0.39301 0.94098-0.66479 1.7324-1.3816 2.0494-1.3816 0.61096zm350.56-0.76589c-0.54268-1.4252-0.42782-1.5401 0.5598-0.5598 0.68342 0.67834 0.99067 1.4852 0.68278 1.7931s-0.86705-0.24711-1.2426-1.2333zm-263.06-6.2931c0.99549-1.1 2.035-2 2.31-2s-0.31449 0.9-1.31 2c-0.99549 1.1-2.035 2-2.31 2s0.31449-0.9 1.31-2zm172.42-2.75-2.4243-2.75 2.75 2.4243c1.5125 1.3334 2.75 2.5709 2.75 2.75 0 0.78427-0.8098 0.14598-3.0757-2.4243zm-253.92-0.25c0.5887-1.1 1.2954-2 1.5704-2s0.01833 0.9-0.57037 2c-0.5887 1.1-1.2954 2-1.5704 2s-0.01833-0.9 0.57037-2zm339.38 0.75c-0.40522-0.6875-1.3792-2.375-2.1645-3.75-1.3708-2.4002-1.3607-2.4202 0.25102-0.5 2.0312 2.4198 3.782 5.5 3.1264 5.5-0.26189 0-0.80771-0.5625-1.2129-1.25zm-252.88-1.75c0.99549-1.1 2.035-2 2.31-2s-0.31449 0.9-1.31 2-2.035 2-2.31 2 0.31449-0.9 1.31-2zm6.5-4.3776c0-0.20766 0.7875-0.99516 1.75-1.75 1.5861-1.2439 1.6214-1.2085 0.37756 0.37756-1.3064 1.6657-2.1276 2.1955-2.1276 1.3724zm-87-4c0-0.20766 0.7875-0.99516 1.75-1.75 1.5861-1.2439 1.6214-1.2085 0.37756 0.37756-1.3064 1.6657-2.1276 2.1955-2.1276 1.3724zm325.87-1.3724c-1.2439-1.5861-1.2085-1.6214 0.37756-0.37756 0.9625 0.75484 1.75 1.5423 1.75 1.75 0 0.82303-0.82119 0.2933-2.1276-1.3724zm-96.365-1.2385c-0.35034-0.56686 0.0511-0.73451 0.94098-0.39301 1.7324 0.66479 2.0494 1.3816 0.61096 1.3816-0.51754 0-1.2159-0.44485-1.5519-0.98855zm-130.51-1.4045c0-0.21616 0.69837-0.661 1.5519-0.98855 0.88992-0.3415 1.2913-0.17385 0.94098 0.39301-0.58726 0.9502-2.4929 1.4054-2.4929 0.59554zm4-2c0-0.21616 0.69837-0.661 1.5519-0.98855 0.88992-0.3415 1.2913-0.17385 0.94098 0.39301-0.58726 0.9502-2.4929 1.4054-2.4929 0.59554zm-95.5-3.607c0.99549-1.1 2.035-2 2.31-2s-0.31449 0.9-1.31 2-2.035 2-2.31 2 0.31449-0.9 1.31-2zm100.5 1c0.825-0.53316 1.95-0.96937 2.5-0.96937s0.325 0.43622-0.5 0.96937-1.95 0.96937-2.5 0.96937-0.325-0.43622 0.5-0.96937zm211.4-1.25-1.905-2.25 2.25 1.905c2.1144 1.7902 2.7052 2.595 1.905 2.595-0.18976 0-1.2023-1.0125-2.25-2.25zm-207.4-0.14301c0-0.21616 0.69837-0.661 1.5519-0.98855 0.88992-0.3415 1.2913-0.17385 0.94098 0.39301-0.58726 0.9502-2.4929 1.4054-2.4929 0.59554zm89-4.607c-1.828-1.1813-0.24909-1.1813 2.5 0 1.3187 0.56668 1.4891 0.87816 0.5 0.9144-0.825 0.03023-2.175-0.38125-3-0.9144zm-189-0.37756c0-0.20766 0.7875-0.99516 1.75-1.75 1.5861-1.2439 1.6214-1.2085 0.37756 0.37756-1.3064 1.6657-2.1276 2.1955-2.1276 1.3724zm301.87-1.3724c-1.2439-1.5861-1.2085-1.6214 0.37756-0.37756 1.6658 1.3064 2.1955 2.1276 1.3724 2.1276-0.20765 0-0.99515-0.7875-1.75-1.75zm-118.06 0.06689c0.72187-0.28887 1.5844-0.25334 1.9167 0.07895 0.33229 0.33229-0.25834 0.56864-1.3125 0.52522-1.165-0.04798-1.4019-0.28494-0.60417-0.60417zm-57.062-1.9792c0.6875-0.27741 1.8125-0.27741 2.5 0 0.6875 0.27741 0.125 0.50439-1.25 0.50439s-1.9375-0.22697-1.25-0.50439zm47 0c0.6875-0.27741 1.8125-0.27741 2.5 0 0.6875 0.27741 0.125 0.50439-1.25 0.50439s-1.9375-0.22697-1.25-0.50439zm-40.938-1.0208c0.72187-0.28887 1.5844-0.25334 1.9167 0.07895 0.33229 0.33229-0.25834 0.56864-1.3125 0.52522-1.165-0.04798-1.4019-0.28494-0.60417-0.60417zm35.938 0.02083c0.6875-0.27741 1.8125-0.27741 2.5 0 0.6875 0.27741 0.125 0.50439-1.25 0.50439s-1.9375-0.22697-1.25-0.50439zm-158.25-7.3377c3.8205-3.85 7.1714-7 7.4464-7s-2.6259 3.15-6.4464 7-7.1714 7-7.4464 7 2.6259-3.15 6.4464-7zm136.25 6.2628c2.8875-0.202 7.6125-0.202 10.5 0 2.8875 0.202 0.525 0.36728-5.25 0.36728s-8.1375-0.16527-5.25-0.36728zm145.72-6.5128-6.9732-7.25 7.25 6.9732c6.7338 6.4767 7.7067 7.5268 6.9732 7.5268-0.15225 0-3.4148-3.2625-7.25-7.25zm-270.47-10.25c1.2917-1.375 2.5736-2.5 2.8486-2.5s-0.55688 1.125-1.8486 2.5-2.5736 2.5-2.8486 2.5 0.55688-1.125 1.8486-2.5zm258.92-0.25-2.4243-2.75 2.75 2.4243c1.5125 1.3334 2.75 2.5709 2.75 2.75 0 0.78427-0.8098 0.14598-3.0757-2.4243zm-252.92-4.6276c0-0.20766 0.7875-0.99516 1.75-1.75 1.5861-1.2439 1.6214-1.2085 0.37756 0.37756-1.3064 1.6657-2.1276 2.1955-2.1276 1.3724zm245.87-1.3724c-1.2439-1.5861-1.2085-1.6214 0.37756-0.37756 1.6658 1.3064 2.1955 2.1276 1.3724 2.1276-0.20765 0-0.99515-0.7875-1.75-1.75zm-241.87-1.6276c0-0.20766 0.7875-0.99516 1.75-1.75 1.5861-1.2439 1.6214-1.2085 0.37756 0.37756-1.3064 1.6657-2.1276 2.1955-2.1276 1.3724zm237.87-1.3724c-1.2439-1.5861-1.2085-1.6214 0.37756-0.37756 0.9625 0.75484 1.75 1.5423 1.75 1.75 0 0.82303-0.82119 0.2933-2.1276-1.3724zm-214.14-14.374c0.67834-0.68342 1.4852-0.99067 1.7931-0.68278s-0.24711 0.86705-1.2333 1.2426c-1.4252 0.54268-1.5401 0.42782-0.5598-0.5598zm191.27 0.12409c-0.90129-0.58246-1.0246-0.97548-0.30902-0.98469 0.65504-0.0084 1.4691 0.43469 1.809 0.98469 0.7673 1.2415 0.42112 1.2415-1.5 0zm-185-3.393c0-0.21616 0.69837-0.661 1.5519-0.98855 0.88992-0.3415 1.2913-0.17385 0.94098 0.39301-0.58726 0.9502-2.4929 1.4054-2.4929 0.59554zm177.51-0.59554c-0.35034-0.56686 0.0511-0.73451 0.94098-0.39301 1.7324 0.66479 2.0494 1.3816 0.61096 1.3816-0.51754 0-1.2159-0.44485-1.5519-0.98855zm-172.51-2.0115c0.825-0.53316 1.95-0.96937 2.5-0.96937s0.325 0.43622-0.5 0.96937c-0.825 0.53316-1.95 0.96937-2.5 0.96937s-0.325-0.43622 0.5-0.96937zm168 0c-0.825-0.53316-1.05-0.96937-0.5-0.96937s1.675 0.43622 2.5 0.96937c0.825 0.53316 1.05 0.96937 0.5 0.96937s-1.675-0.43622-2.5-0.96937zm-163.27-2.1241c0.67834-0.68342 1.4852-0.99067 1.7931-0.68278 0.30789 0.30789-0.24711 0.86705-1.2333 1.2426-1.4252 0.54268-1.5401 0.42782-0.5598-0.55979zm159.27 0.12409c-0.90129-0.58246-1.0246-0.97548-0.30902-0.98469 0.65504-0.0084 1.4691 0.43469 1.809 0.98469 0.7673 1.2415 0.42112 1.2415-1.5 0zm-155-2c0.825-0.53316 1.95-0.96937 2.5-0.96937s0.325 0.43622-0.5 0.96937c-0.825 0.53316-1.95 0.96937-2.5 0.96937s-0.325-0.43622 0.5-0.96937zm150 0c-0.825-0.53316-1.05-0.96937-0.5-0.96937s1.675 0.43622 2.5 0.96937c0.825 0.53316 1.05 0.96937 0.5 0.96937s-1.675-0.43622-2.5-0.96937zm-144.23-2.1684c0.5811-0.5811 1.6468-0.8598 2.3683-0.61931 0.74895 0.24965 0.29565 0.70294-1.0566 1.0566-1.6634 0.43497-2.0538 0.30483-1.3117-0.43724zm138.73 0.16845c-1.6304-0.70061-1.6875-0.87242-0.30902-0.92972 0.93004-0.03866 1.9691 0.37972 2.309 0.92972 0.71066 1.1499 0.67591 1.1499-2 0zm-133.5-2c0.825-0.53316 2.175-0.94464 3-0.9144 0.98906 0.03625 0.81874 0.34772-0.5 0.9144-2.7491 1.1813-4.328 1.1813-2.5 0zm127.5 0c-1.3187-0.56668-1.4891-0.87816-0.5-0.9144 0.825-0.03023 2.175 0.38125 3 0.9144 1.828 1.1813 0.24909 1.1813-2.5 0zm-118.69-2.6831c0.72187-0.28887 1.5844-0.25334 1.9167 0.07895 0.33229 0.33229-0.25834 0.56864-1.3125 0.52522-1.165-0.04798-1.4019-0.28494-0.60417-0.60417zm111 0c0.72187-0.28887 1.5844-0.25334 1.9167 0.07895 0.33229 0.33229-0.25834 0.56864-1.3125 0.52522-1.165-0.04798-1.4019-0.28494-0.60417-0.60417zm-103-2c0.72187-0.28887 1.5844-0.25334 1.9167 0.078947 0.33229 0.33229-0.25834 0.56864-1.3125 0.52522-1.165-0.047984-1.4019-0.28494-0.60417-0.60417zm95 0c0.72187-0.28887 1.5844-0.25334 1.9167 0.078947 0.33229 0.33229-0.25834 0.56864-1.3125 0.52522-1.165-0.047984-1.4019-0.28494-0.60417-0.60417zm-89.812-1.2712c0.825-0.55829 2.3625-1.022 3.4167-1.0304 2.5584-0.02044 1.7603 0.55192-1.9167 1.3744-2.1909 0.49007-2.5955 0.3973-1.5-0.34401zm83-0.045689c-2.0596-0.65958-2.1476-0.8155-0.5-0.88501 1.1-0.046402 2.675 0.35185 3.5 0.88501 1.7521 1.1323 0.53568 1.1323-3 0zm-73.188-1.6831c0.72187-0.28887 1.5844-0.25334 1.9167 0.078947 0.33229 0.33229-0.25834 0.56864-1.3125 0.52522-1.165-0.047984-1.4019-0.28494-0.60417-0.60417zm65 0c0.72187-0.28887 1.5844-0.25334 1.9167 0.078947 0.33229 0.33229-0.25834 0.56864-1.3125 0.52522-1.165-0.047984-1.4019-0.28494-0.60417-0.60417zm-60.062-0.97917c0.6875-0.27741 1.8125-0.27741 2.5 0s0.125 0.50439-1.25 0.50439-1.9375-0.22697-1.25-0.50439zm54 0c0.6875-0.27741 1.8125-0.27741 2.5 0s0.125 0.50439-1.25 0.50439-1.9375-0.22697-1.25-0.50439zm-43.486-1.0553c1.5201-0.22985 3.7701-0.22371 5 0.01365 1.2299 0.23736-0.0137 0.42542-2.7638 0.41792-2.75-0.00751-3.7563-0.20171-2.2362-0.43157zm31 0c1.5201-0.22985 3.7701-0.22371 5 0.01365 1.2299 0.23736-0.0137 0.42542-2.7638 0.41792-2.75-0.00751-3.7563-0.20171-2.2362-0.43157zm-17.014-1.0109c2.0625-0.21574 5.4375-0.21574 7.5 0s0.375 0.39226-3.75 0.39226-5.8125-0.17652-3.75-0.39226z" fill="#606060"/>
  <path d="m184.08 397.96c-17.227-1.4267-36.924-5.6457-53.5-11.46-39.512-13.859-77.277-44.548-100.25-81.465-62.117-99.822-24.879-231.53 80.251-283.83 17.547-8.7301 39.315-15.486 60.5-18.778 11.094-1.7238 44.906-1.7238 56 0 42.038 6.5318 77.708 23.624 107.65 51.58 63.187 59.005 81.286 152.71 44.428 230.03-10.92 22.907-22.668 39.292-41.586 58-29.506 29.18-65.285 47.193-107.28 54.008-9.1155 1.4796-37.351 2.6507-46.212 1.9168zm42.5-66.801c26.044-5.9546 48.027-17.956 66.782-36.459 18.698-18.447 31.388-41.452 37.327-67.664 2.148-9.4811 2.9883-37.451 1.4227-47.357-4.167-26.363-14.576-48.805-31.885-68.741-23.712-27.311-57.387-43.86-93.603-45.998-38.076-2.2479-75.832 12.142-102.91 39.225-26.99 26.99-41.391 64.551-39.249 102.37 2.0729 36.59 18.548 70.294 46.022 94.147 19.411 16.853 39.816 26.515 67.097 31.771 7.6699 1.4776 40.692 0.60572 49-1.2938z" fill="#333"/>
 </g>
 <g fill="#fff">
  <path d="m180.35 332.22c0.0647-0.32361-0.43881-0.6391-1.1508-0.72102-0.6962-0.0801-1.2658-0.33902-1.2658-0.57537 0-0.55459-2.1653-0.56214-2.5074-9e-3 -0.1431 0.23154 2e-5 0.53981 0.31806 0.68503 0.31803 0.14523-0.0747 0.15091-0.87277 0.0126-0.79806-0.13829-2.2312-0.64917-3.1847-1.1353-1.0622-0.54156-2.5856-0.86467-3.9336-0.8343-1.4898 0.0335-2.7375-0.26761-3.8652-0.933-0.91592-0.5404-2.3149-1.0333-3.1089-1.0953-0.79394-0.062-1.8224-0.48168-2.2856-0.93263-0.46311-0.45095-1.457-0.9429-2.2085-1.0932s-1.3665-0.42941-1.3665-0.62021c0-0.50489-2.4015-1.4195-3.4637-1.3192-2.6467 0.24997-3.7887-0.13184-5.6862-1.9012-2.1055-1.9634-3.2782-2.3384-3.2782-1.0483 0 0.65173-0.12755 0.61076-0.71655-0.23015-0.42979-0.61361-1.2127-1.0307-1.9563-1.0423-0.68185-0.0106-1.9647-0.4162-2.8508-0.90131-1.3752-0.75288-1.4594-0.88484-0.57537-0.9013 1.3792-0.0257 1.3132-0.66566-0.13674-1.3263-1.5862-0.7227-2.2009-0.67169-1.8832 0.15627 0.14572 0.37974 0.16166 0.69044 0.0354 0.69044-0.1934 0-5.6901-3.2848-9.2929-5.5533-0.5697-0.35871-1.3442-1.302-1.721-2.0962-0.83194-1.7532-2.6616-3.0372-3.7388-2.6239-0.53656 0.2059-0.68314 0.13015-0.4568-0.23607 0.34681-0.56113-2.2903-3.2996-3.1774-3.2996-0.26868 0-1.6207-1.158-3.0044-2.5732-1.3838-1.4153-3.6552-3.3061-5.0476-4.2017-2.6785-1.723-6.5681-5.0631-6.8307-5.8657-0.66314-2.027-1.7506-3.6206-3.7413-5.4826-1.274-1.1917-2.3164-2.4536-2.3164-2.8041 0-0.77324-3.6836-4.3771-4.4811-4.384-0.86613-8e-3 -6.6463-8.8769-6.0323-9.2564 0.80833-0.49957 0.02102-2.703-1.122-3.1401-1.4975-0.57276-2.309-1.661-4.4892-6.0204-1.4523-2.9039-1.9795-4.5291-2.045-6.3042-0.10088-2.7317-0.9154-4.1405-1.9145-3.3114-0.40822 0.33879-0.62938 0.35402-0.62938 0.0433 0-0.26346-0.12898-0.81513-0.28662-1.2259-0.17933-0.46734-0.07165-0.6968 0.28769-0.61302 1.049 0.24458 0.95672-0.83358-0.21985-2.5674-0.63916-0.94186-1.1629-1.9622-1.1638-2.2674-9.67e-4 -0.30521-0.41522-1.2331-0.9206-2.062s-0.91965-1.8646-0.9206-2.3015c-9.67e-4 -0.43692-0.42795-1.4935-0.9489-2.348-0.52095-0.8545-0.99963-2.4441-1.0637-3.5325-0.06411-1.0884-0.33816-2.2534-0.609-2.5891-0.89516-1.1093-1.4327-4.7309-0.79118-5.3302 0.61085-0.57062 0.3653-2.4147-0.32154-2.4147-0.22364 0-0.40661-0.39701-0.40661-0.88224s-0.25892-0.98672-0.57537-1.1144c-0.4603-0.18573-0.4603-0.23943 0-0.26851 0.75122-0.0474 0.75122-2.6505 0-2.9536-0.4603-0.18574-0.4603-0.23944 0-0.26851 0.68736-0.0434 0.8009-3.2584 0.11507-3.2584-0.25316 0-0.4603-0.31352-0.4603-0.6967s-0.25892-1.1352-0.57537-1.6712c-0.4603-0.7796-0.4603-1.0162 0-1.1829 0.69865-0.25301 0.80858-5.6552 0.11508-5.6552-0.28326 0-0.4603-2.3015-0.4603-5.9839 0-3.6824 0.17704-5.9839 0.4603-5.9839 0.68208 0 0.57473-4.4729-0.11508-4.7948-0.4603-0.21481-0.4603-0.32221 0-0.53701 0.31646-0.14769 0.57537-0.76909 0.57537-1.3809 0-0.61182 0.20714-1.1124 0.4603-1.1124 0.67062 0 0.56489-3.1032-0.11507-3.3776-0.4603-0.18574-0.4603-0.23943 0-0.26851 0.35618-0.0225 0.57537-0.72315 0.57537-1.8392 0-1.0116-0.25253-1.9047-0.57537-2.035-0.4603-0.18574-0.4603-0.23944 0-0.26851 0.35192-0.0222 0.57537-0.70898 0.57537-1.7683 0-1.3101 0.28029-1.9424 1.1507-2.5961 1.322-0.99281 1.4462-1.755 0.44839-2.7527-0.59342-0.59341-0.61855-1.0447-0.16204-2.9098 0.29718-1.2141 0.92143-2.5756 1.3872-3.0256 1.0582-1.0224 1.6152-3.0867 0.94466-3.5011-0.56146-0.347 0.01422-1.5771 0.65531-1.4003 0.50039 0.13801 2.2281-3.2014 1.8513-3.5782-0.14822-0.14821-0.62397 0.019-1.0572 0.37149-0.69746 0.56749-0.75149 0.54432-0.47142-0.20221 0.17398-0.46374 0.31633-1.0262 0.31633-1.25s0.6214-1.0425 1.3809-1.8194c0.75949-0.77695 1.4133-1.8716 1.4529-2.4324 0.03963-0.56089 0.11192-1.5608 0.16065-2.222 0.10327-1.4012 1.5749-3.5955 2.4254-3.6165 0.32272-8e-3 0.78878-0.54578 1.0357-1.1952 0.58429-1.5368 0.5766-1.5811-0.27442-1.5811-0.65757 0-0.65757-0.0658 0-0.72333 0.39783-0.39782 0.73918-0.86388 0.75855-1.0357 0.16974-1.5054 0.58492-2.2784 2.0047-3.7324 1.0991-1.1256 1.6425-2.1125 1.6425-2.9833 0-1.5082 2.4283-5.6894 4.8024-8.269 0.90301-0.98119 1.6432-2.1204 1.6448-2.5316 0.0036-0.89956 3.6103-5.2175 4.1035-4.9127 0.63031 0.38955 3.861-3.3154 3.5646-4.0879-0.15978-0.4164-0.03652-0.72293 0.29071-0.72293 0.53947 0 8.4534-7.8299 13.557-13.413 1.3053-1.428 2.4607-2.3601 2.5675-2.0713 0.22881 0.61864 3.9916-2.8459 3.9916-3.6752 0-0.89756 3.7474-3.855 4.8846-3.855 0.61599 0 1.4183-0.53616 1.9775-1.3214 1.2359-1.7357 7.2749-5.3758 8.625-5.1989 0.61331 0.08037 1.3754-0.25418 1.855-0.81434 0.44773-0.52291 1.0714-0.95075 1.386-0.95075 0.31458 0 0.79367-0.41427 1.0646-0.9206 0.32057-0.59899 0.96378-0.9206 1.8412-0.9206 0.87741 0 1.5206-0.32161 1.8412-0.9206 0.27098-0.50633 0.7179-0.9206 0.99316-0.9206 0.32464 0 0.29591 0.24647-0.0818 0.70157-0.32024 0.38586-0.47594 0.80789-0.346 0.93783 0.36697 0.36696 2.655-0.80484 2.6712-1.3681 0.0258-0.8949 2.2707-2.1732 4.1437-2.3595 2.0306-0.20201 3.6669-0.92574 3.6669-1.6218 0-0.43966 0.79524-0.83212 3.2185-1.5884 1.0273-0.32061 1.0815-0.27894 0.51901 0.39884-0.54023 0.65094-0.52042 0.75684 0.14155 0.75684 1.2364 0 3.4857-1.3442 3.4857-2.0832 0-0.78201 0.76313-0.92088 1.0089-0.18358 0.22665 0.67997 2.364 0.09188 3.4948-0.96158 0.50173-0.46743 1.8168-1.0838 2.9224-1.3698s2.4228-0.64106 2.9271-0.78909c0.8064-0.23669 0.84124-0.17787 0.28886 0.4877-0.55827 0.67269-0.4796 0.75684 0.70753 0.75684 0.8076 0 1.598-0.36396 1.9992-0.9206 0.45086-0.62554 1.1916-0.9206 2.311-0.9206 0.90613 0 1.8961-0.24856 2.1999-0.55236 0.42961-0.42961 0.55236-0.42961 0.55236 0 0 0.3244 0.66487 0.55236 1.611 0.55236 0.94617 0 1.611-0.22796 1.611-0.55236 0-0.42961 0.12275-0.42961 0.55236 0 0.3038 0.3038 1.0238 0.55236 1.5999 0.55236 1.2292 0 3.9677-1.5517 3.5231-1.9963-0.16786-0.16787 0.29893-0.30204 1.0373-0.29816 0.92392 0.0049 1.1486 0.12995 0.72053 0.40121-0.44559 0.28237-0.24975 0.44456 0.69045 0.57184 1.9356 0.26203 3.3621-0.04113 3.1223-0.66356-0.1582-0.41065 1.4771-0.51189 6.5718-0.40683 4.4147 0.09104 6.5459 0.28944 6.1049 0.56832-0.4556 0.28813 0.37781 0.42846 2.5446 0.42846 2.2482 0 3.0134-0.13487 2.5316-0.4462-0.52255-0.3377-0.32007-0.44792 0.83269-0.45325 0.9636-0.0045 1.4116 0.17343 1.2195 0.48423-0.16719 0.27052 0.13086 0.6049 0.66328 0.74413 0.5318 0.13907 0.96692 0.43583 0.96692 0.65947 0 0.22364 0.72497 0.40661 1.611 0.40661 0.97822 0 1.6138-0.22601 1.6181-0.57537 5e-3 -0.44759 0.0862-0.45089 0.36321-0.01485 0.20824 0.32773 1.2962 0.54165 2.6196 0.51509 1.3127-0.02635 2.3363 0.17323 2.4369 0.47515 0.22482 0.67446 2.729 0.67921 2.9536 0.0056 0.20167-0.60501 5.4286 0.40456 5.4286 1.0485 0 0.21288 0.77675 0.38783 1.7261 0.38877 0.94936 9.67e-4 2.4041 0.41508 3.2327 0.92028 0.82862 0.50521 2.165 0.97049 2.9698 1.034 0.80478 0.06346 1.8304 0.4726 2.2792 0.9092 0.44876 0.4366 1.3888 0.93759 2.0889 1.1133 0.70014 0.17572 1.5484 0.59495 1.8851 0.93162 0.95005 0.95004 2.8889 1.2941 3.3241 0.58992 0.29111-0.47103 0.61788-0.49214 1.4466-0.09345 0.58877 0.28327 0.81158 0.52905 0.49513 0.54618-0.99682 0.05397-0.62593 0.90212 0.69045 1.5789 0.6962 0.35795 2.0944 0.59187 3.107 0.51982 1.4737-0.10485 2.737 0.33922 6.3291 2.2249 2.4684 1.2957 4.4879 2.6305 4.4879 2.9662 0 0.3357 0.54808 1.1183 1.218 1.7391 1.3928 1.2908 2.7139 1.5221 2.2832 0.39986-0.15384-0.4009-0.0943-0.65982 0.1324-0.57537 1.2034 0.44834 10.081 6.6208 9.7072 6.7492-0.64169 0.22054 3.3296 4.6812 4.1678 4.6814 0.38926 1.25e-4 1.7356 1.0546 2.9919 2.3433 2.0663 2.1196 3.8361 3.3127 5.0201 3.3844 0.8187 0.0495 6.7002 7.0055 6.7002 7.9242 0 0.20041 1.3487 1.7235 2.997 3.3846 1.6484 1.6611 3.3782 3.7376 3.844 4.6146 0.46583 0.87689 1.4214 1.8769 2.1235 2.2223 0.74222 0.3651 1.0696 0.75575 0.78228 0.93335-0.59628 0.36852 1.5372 3.2719 2.4042 3.2719 0.31727 0 1.0079 0.46606 1.5348 1.0357 0.91873 0.99328 6.107 9.2791 6.107 9.7531 0 0.12625-0.31071 0.11031-0.69045-0.0354-0.87065-0.3341-0.90845 0.74035-0.0666 1.8917 0.35399 0.48409 0.9266 0.73705 1.3236 0.5847 1.1197-0.42966 2.1867 2.2722 2.1966 5.562 4e-3 1.4471 0.80243 2.8423 1.6258 2.8423 0.37084 0 0.67426 0.26467 0.67426 0.58815 0 0.32349 0.37881 0.9125 0.8418 1.3089 0.64943 0.55606 0.81695 1.2739 0.73305 3.1414-0.0893 1.9866 0.1805 2.99 1.5042 5.5956 0.88711 1.7462 1.7731 3.1749 1.9689 3.1749 0.19578 0 0.46197 0.94051 0.59153 2.09 0.12957 1.1495 0.58236 2.4732 1.0062 2.9416 0.50086 0.55344 0.83762 1.9154 0.96202 3.8905 0.10593 1.6821 0.60824 3.9541 1.125 5.0884 1.1235 2.4661 1.1704 3.0825 0.20648 2.7126-0.57702-0.22142-0.6958-5e-3 -0.57537 1.0501 0.0868 0.76 0.39814 1.2799 0.72714 1.2141 0.37407-0.0748 0.57537 0.45806 0.57537 1.5231 0 0.97492 0.18637 1.523 0.4603 1.3537 0.25316-0.15647 0.4603-0.0651 0.4603 0.20298 0 0.26811-0.20714 0.48747-0.4603 0.48747-0.25317 0-0.4603 0.84076-0.4603 1.8684 0 1.1284 0.18231 1.7557 0.4603 1.5839 0.25316-0.15647 0.4603 0.0384 0.4603 0.43313 0 0.39469-0.20714 0.71762-0.4603 0.71762-0.25317 0-0.4603 1.0479-0.4603 2.3287 0 1.4352 0.1766 2.2195 0.4603 2.0442 0.47453-0.29328 0.56491 1.0323 0.56491 8.2854 0 7.8727-0.0995 9.4936-0.56491 9.206-0.2837-0.17533-0.4603 0.60895-0.4603 2.0442 0 1.2808 0.20713 2.3287 0.4603 2.3287 0.25316 0 0.4603 0.32293 0.4603 0.71762 0 0.39757-0.22218 0.5803-0.49818 0.40972-0.33235-0.20541-0.47136 0.3601-0.41761 1.699 0.11754 2.928-0.042 5.3169-0.31062 4.6507-0.36106-0.89562-1.0751-0.18783-1.0751 1.0657 0 0.69187 0.26529 1.1236 0.69045 1.1236 0.37975 0 0.69045 0.21936 0.69045 0.48747 0 0.2681-0.20872 0.35846-0.46383 0.2008-0.71359-0.44103-1.8377 0.94798-1.8377 2.2708 0 1.3024 0.41023 1.4863 1.3566 0.60825 0.50735-0.47076 0.56594-0.42207 0.32221 0.2678-0.16385 0.46374-0.2979 1.2405-0.2979 1.7261 0 0.48818-0.31694 0.88295-0.70889 0.88295-0.54342 0-0.68462 0.45661-0.60493 1.9563 0.12328 2.3198-1.4166 8.0452-1.9372 7.2028-0.24056-0.38924-0.65259-0.073-1.31 1.0054-1.0647 1.7464-1.2047 2.5665-0.47943 2.8082 0.27645 0.0922-0.11732 1.2861-0.9206 2.7914-0.77202 1.4467-1.4037 2.8606-1.4037 3.1419s-0.42187 1.0478-0.93748 1.7033c-0.6647 0.84503-0.90791 1.7631-0.83586 3.1551 0.0825 1.5939-0.38375 2.9107-2.4783 6.9988-4.4241 8.635-12.813 21.569-13.653 21.05-0.63549-0.39276-2.2072 1.0435-3.8612 3.5283-1.9259 2.8933-16.532 17.386-17.522 17.386-0.74746 0-3.5197 3.106-3.5197 3.9434 0 0.60285-5.4439 4.5838-11.246 8.2239-5.6088 3.5187-15.8 8.6514-15.998 8.0573-0.2197-0.6591-4.1041 0.22471-4.7341 1.0771-0.26021 0.35208-1.0282 0.77834-1.7067 0.94724s-1.507 0.56569-1.8412 0.88177c-1.0306 0.97481-3.5272 1.712-3.7309 1.1017-0.27718-0.83043-2.7844 0.23442-3.3002 1.4016-0.48823 1.1049-4.438 2.4442-7.2085 2.4442-0.88213 0-1.8146 0.21075-2.0722 0.46833-0.69268 0.69268-3.3982 1.3936-3.3982 0.88044 0-0.23549 0.32292-0.42817 0.71761-0.42817s0.5896-0.20713 0.43313-0.4603c-0.41916-0.67822-2.3365-0.55962-2.9525 0.18264-0.29348 0.35361-0.95385 0.53302-1.4675 0.3987-0.84241-0.2203-1.7507 0.0639-4.2106 1.3175-0.50602 0.25786-0.80552 0.2379-0.80552-0.0537 0-0.65042-2.4608-0.58111-3.13 0.0882-0.42962 0.42961-0.67511 0.42961-1.1047 0-0.71527-0.71526-3.7046-0.71433-4.4203 1e-3 -0.79402 0.79403-16.865 0.80778-17.658 0.0151-0.72785-0.72785-3.7129-0.73896-4.4354-0.0165-0.42961 0.42961-0.6751 0.42961-1.1047 0-0.65118-0.65117-2.9604-0.73893-3.3387-0.12689-0.14462 0.234 0.10207 0.52067 0.54821 0.63705 0.50583 0.13195 0.33469 0.23169-0.45466 0.26499-0.78805 0.0332-1.2224-0.16378-1.1508-0.52198z"/>
  <path d="m180.35 332.22c0.0647-0.32361-0.43881-0.6391-1.1508-0.72102-0.6962-0.0801-1.2658-0.33902-1.2658-0.57537 0-0.55459-2.1653-0.56214-2.5074-9e-3 -0.1431 0.23154 2e-5 0.53981 0.31806 0.68503 0.31803 0.14523-0.0747 0.15091-0.87277 0.0126-0.79806-0.13829-2.2312-0.64917-3.1847-1.1353-1.013-0.51644-2.6103-0.86982-3.8424-0.85009-1.3759 0.022-3.0307-0.39403-4.7613-1.1972-1.4589-0.67704-2.8959-1.1499-3.1933-1.0507-0.29743 0.0991-0.92268-0.20165-1.3894-0.66842s-1.4636-0.97167-2.2152-1.122-1.3665-0.42941-1.3665-0.62021c0-0.50489-2.4015-1.4195-3.4637-1.3192-2.6467 0.24997-3.7887-0.13184-5.6862-1.9012-2.1055-1.9634-3.2782-2.3384-3.2782-1.0483 0 0.65173-0.12755 0.61076-0.71655-0.23015-0.42979-0.61361-1.2127-1.0307-1.9563-1.0423-0.68185-0.0106-1.9647-0.4162-2.8508-0.90131-1.5123-0.82795-1.5405-0.88413-0.4603-0.91661l1.1508-0.0346-1.0867-0.90528c-1.3011-1.0839-2.5806-1.2089-2.1991-0.21484 0.37159 0.96834 0.25825 0.92632-3.4904-1.2942-5.7185-3.3873-7.2691-4.5539-7.5522-5.6818-0.35998-1.4343-2.5928-3.016-3.6966-2.6186-0.46602 0.16779-0.68832 0.13034-0.49399-0.0832 0.38572-0.42391-2.3122-3.4408-3.077-3.4408-0.25945 0-1.617-1.1151-3.0167-2.478s-3.6842-3.2628-5.0766-4.222c-3.4199-2.3559-6.904-5.385-6.9043-6.0026-5.1e-4 -1.1614-1.5366-3.4273-3.6869-5.4387-1.2635-1.1818-2.2972-2.3915-2.2972-2.6883 0-0.73566-3.7303-4.4869-4.4618-4.4869-0.83094 0-6.6775-8.8646-6.0872-9.2294 0.76254-0.47127-0.05488-2.7674-1.1319-3.1794-1.4445-0.55263-2.2892-1.6748-4.4387-5.8971-1.4358-2.8204-1.9774-4.4699-2.0905-6.3674-0.17378-2.9144-0.88031-4.179-1.874-3.3543-0.40822 0.33879-0.62938 0.35402-0.62938 0.0433 0-0.26346-0.12898-0.81513-0.28662-1.2259-0.18776-0.48931-0.0687-0.70074 0.34522-0.61302 0.86601 0.18352 0.57536-1.3892-0.54603-2.9545-0.49141-0.68595-0.89424-1.5145-0.89519-1.8412-9.67e-4 -0.32671-0.41522-1.2722-0.9206-2.1011s-0.91965-1.8646-0.9206-2.3015c-9.67e-4 -0.43692-0.42795-1.4935-0.9489-2.348-0.52095-0.8545-0.99963-2.4441-1.0637-3.5325-0.06411-1.0884-0.33816-2.2534-0.609-2.5891-0.67224-0.83303-1.5078-4.9831-1.0032-4.9831 0.22247 0 0.4045-0.62141 0.4045-1.3809 0-0.7595-0.20714-1.3809-0.4603-1.3809-0.25316 0-0.4603-0.39701-0.4603-0.88224s-0.25892-0.98672-0.57537-1.1144c-0.4603-0.18573-0.4603-0.23943 0-0.26851 0.75122-0.0474 0.75122-2.6505 0-2.9536-0.4603-0.18574-0.4603-0.23944 0-0.26851 0.68736-0.0434 0.8009-3.2584 0.11507-3.2584-0.25316 0-0.4603-0.31352-0.4603-0.6967s-0.25892-1.1352-0.57537-1.6712c-0.4603-0.7796-0.4603-1.0162 0-1.1829 0.69865-0.25301 0.80858-5.6552 0.11508-5.6552-0.28326 0-0.4603-2.3015-0.4603-5.9839 0-3.6824 0.17704-5.9839 0.4603-5.9839 0.65208 0 0.5736-3.8453-0.09206-4.5109-0.42961-0.42961-0.42961-0.67511 0-1.1047 0.3038-0.3038 0.55236-0.9252 0.55236-1.3809 0-0.45569 0.20714-0.82853 0.4603-0.82853 0.67062 0 0.56489-3.1032-0.11507-3.3776-0.4603-0.18574-0.4603-0.23943 0-0.26851 0.35618-0.0225 0.57537-0.72315 0.57537-1.8392 0-1.0116-0.25253-1.9047-0.57537-2.035-0.4603-0.18574-0.4603-0.23944 0-0.26851 0.35192-0.0222 0.57537-0.70898 0.57537-1.7683 0-1.3101 0.28029-1.9424 1.1507-2.5961 1.322-0.99281 1.4462-1.755 0.44839-2.7527-0.59457-0.59457-0.61869-1.0411-0.15716-2.9098 0.29986-1.2141 1.0302-2.7929 1.623-3.5085 1.0901-1.3161 1.4513-3.0717 0.63191-3.0717-0.24522 0-0.32663-0.3107-0.1809-0.69045 0.14572-0.37975 0.52762-0.69045 0.84866-0.69045 0.6691 0 2.1357-2.7589 1.776-3.3409-0.13128-0.21241-0.56973-0.11723-0.97434 0.21152-0.63284 0.5142-0.69144 0.47989-0.41932-0.24545 0.17398-0.46374 0.31633-1.0262 0.31633-1.25s0.6214-1.0425 1.3809-1.8194c0.75949-0.77695 1.4133-1.8716 1.4529-2.4324 0.03963-0.56089 0.11192-1.5608 0.16065-2.222 0.10327-1.4012 1.5749-3.5955 2.4254-3.6165 0.32272-8e-3 0.78878-0.54578 1.0357-1.1952 0.58686-1.5435 0.57943-1.5811-0.31288-1.5811-0.70885 0-0.70885-0.0585 0-0.84177 0.41898-0.46297 0.76179-1.1753 0.76179-1.583 0-0.4077 0.82854-1.6986 1.8412-2.8686 1.1139-1.287 1.8412-2.5925 1.8412-3.305 0-1.3797 2.456-5.5767 4.7999-8.2025 0.90395-1.0127 1.645-2.1519 1.6469-2.5316 0.0043-0.88578 3.6367-5.1443 4.1286-4.8402 0.58667 0.36258 3.7917-3.4469 3.5124-4.1748-0.13745-0.35819-0.0404-0.65126 0.21566-0.65126 0.69028 0 4.4754-3.6433 10.593-10.196 2.9902-3.2029 5.5248-5.5849 5.6325-5.2934 0.2304 0.62352 3.9933-2.835 3.9933-3.6703 0-0.80493 3.6934-3.855 4.6681-3.855 0.45098 0 1.6047-0.78725 2.5639-1.7494 2.1437-2.1505 6.9354-4.9406 8.203-4.7763 0.56363 0.07304 1.7529-0.61592 2.9919-1.7333 1.3268-1.1965 2.4999-1.8568 3.3061-1.861 0.77388-4e-3 1.4372-0.35698 1.7423-0.9271 0.27098-0.50633 0.73396-0.9206 1.0288-0.9206 0.39903 0 0.39489 0.14128-0.0162 0.55236-0.3038 0.3038-0.55236 0.71807-0.55236 0.9206 0 0.80052 1.0088 0.2834 2.8734-1.473 1.0751-1.0127 2.163-1.8651 2.4175-1.8943 0.25454-0.0292 0.66994-0.10122 0.9231-0.16004 0.25317-0.05882 1.0398-0.13849 1.7481-0.17705 0.70829-0.03856 1.744-0.54228 2.3015-1.1194 1.614-1.6706 5.2913-3.0315 4.0056-1.4824-0.4705 0.56691-0.43532 0.69045 0.19665 0.69045 1.2364 0 3.4857-1.3442 3.4857-2.0832 0-0.37324 0.20714-0.67863 0.4603-0.67863s0.4603 0.22959 0.4603 0.5102c0 0.71747 2.3075 0.08387 3.4522-0.94792 0.87875-0.79206 2.5488-1.4254 5.4889-2.0815 1.1834-0.2641 1.274-0.21343 0.74916 0.41896-0.51805 0.62422-0.42033 0.71939 0.73861 0.71939 0.8076 0 1.598-0.36396 1.9992-0.9206 0.45086-0.62554 1.1916-0.9206 2.311-0.9206 0.90613 0 1.8961-0.24856 2.1999-0.55236 0.42961-0.42961 0.55236-0.42961 0.55236 0 0 0.3244 0.66487 0.55236 1.611 0.55236 0.94617 0 1.611-0.22796 1.611-0.55236 0-0.42961 0.12275-0.42961 0.55236 0 0.3038 0.3038 1.0238 0.55236 1.5999 0.55236 1.2292 0 3.9677-1.5517 3.5231-1.9963-0.16786-0.16787 0.25937-0.30521 0.94942-0.30521 0.71921 0 1.1332 0.19644 0.97015 0.4603-0.17365 0.28098 0.52742 0.4603 1.7996 0.4603 1.4786 0 2.0197-0.16716 1.8624-0.57537-0.17259-0.44809 1.2788-0.54443 6.5608-0.43551 4.4147 0.09104 6.5459 0.28944 6.1049 0.56832-0.46023 0.29106 0.25378 0.43072 2.2265 0.43551 1.8204 0.0044 2.7979-0.16471 2.6196-0.45325-0.16642-0.26928 0.31114-0.4603 1.1508-0.4603 0.78938 0 1.3173 0.19088 1.1731 0.42417-0.33576 0.54327 2.3154 1.8773 3.7308 1.8773 0.59402 0 1.08-0.2325 1.08-0.51666 0-0.36772 0.16992-0.37564 0.58945-0.02746 0.3242 0.26906 1.5069 0.47654 2.6282 0.46107 1.1213-0.01548 2.1161 0.20402 2.2107 0.48776 0.22369 0.67107 2.7284 0.67184 2.952 9.12e-4 0.20167-0.60502 5.4286 0.40456 5.4286 1.0485 0 0.21288 0.7378 0.38705 1.6396 0.38705s2.7687 0.53418 4.1488 1.1871c1.3801 0.65289 2.7525 1.106 3.0498 1.0069s0.91066 0.19 1.3631 0.64242c0.45243 0.45242 1.3975 0.96301 2.1001 1.1346s1.7715 0.69473 2.3753 1.1625c1.2601 0.97615 2.6511 1.1112 2.9268 0.28418 0.14609-0.43826 0.44085-0.4453 1.3042-0.03115 0.61349 0.29429 0.85652 0.5491 0.54007 0.56623-0.99671 0.05397-0.626 0.90206 0.69045 1.5796 0.6962 0.35831 2.0809 0.57723 3.0772 0.48648 1.4719-0.13408 2.6579 0.2777 6.3291 2.1976 2.4848 1.2994 4.5178 2.6209 4.5178 2.9367 0 0.64928 2.5807 2.9574 3.3066 2.9574 0.26083 0 0.35501-0.3107 0.20928-0.69045-0.14572-0.37975-0.14897-0.69045-7e-3 -0.69045 0.71905 0 10.205 6.6857 9.9872 7.0387-0.29414 0.47595 3.4797 4.4688 4.2237 4.4688 0.27326 0 1.5247 1.0544 2.781 2.3431 2.0792 2.1329 3.8393 3.3148 5.0395 3.3844 0.67146 0.0389 4.6704 4.5812 6.4391 7.3141 0.84664 1.3082 2.6973 3.5106 4.1126 4.8944 1.4153 1.3838 2.5801 2.7301 2.5886 2.9919 0.0225 0.69749 1.482 2.3309 2.6333 2.9471 0.54971 0.29419 0.89592 0.80474 0.76937 1.1345-0.28366 0.73923 1.4837 3.0687 2.3282 3.0687 0.86404 0 2.5461 2.1136 5.267 6.6182 2.5471 4.2168 2.6712 4.5289 1.645 4.1351-0.80715-0.30973-0.89419 0.43398-0.20212 1.7271 0.30445 0.56888 0.78354 0.81877 1.2723 0.66363 1.3521-0.42915 2.4273 2.105 2.3961 5.6477-0.0127 1.4374 0.7847 2.8423 1.6132 2.8423 0.37084 0 0.67426 0.26466 0.67426 0.58815 0 0.32348 0.37503 0.90927 0.83341 1.3017 0.62542 0.5355 0.80949 1.279 0.73753 2.9792-0.0744 1.758 0.25837 3.0132 1.4854 5.6027 0.8697 1.8354 1.7537 3.3372 1.9644 3.3372 0.21073 0 0.48915 0.94051 0.61871 2.09 0.12957 1.1495 0.58236 2.4732 1.0062 2.9416 0.5052 0.55823 0.83821 1.9247 0.96685 3.9673 0.1191 1.891 0.56132 3.8162 1.125 4.8977 1.0582 2.0301 1.1936 3.1874 0.35341 3.0194-0.33756-0.0675-0.57538 0.36056-0.57538 1.0357s0.23782 1.1032 0.57538 1.0357c0.37407-0.0748 0.57537 0.45807 0.57537 1.5231 0 0.97493 0.18637 1.523 0.4603 1.3537 0.25316-0.15646 0.4603-0.0651 0.4603 0.20299 0 0.2681-0.20714 0.48746-0.4603 0.48746-0.25317 0-0.4603 0.72497-0.4603 1.611 0 0.88607 0.20713 1.611 0.4603 1.611 0.25316 0 0.4603 0.3107 0.4603 0.69044 0 0.37975-0.20714 0.69045-0.4603 0.69045-0.60553 0-0.59886 4.0198 7e-3 4.2218 0.28012 0.0934 0.49078 2.5518 0.52589 6.1373 0.0917 9.3644-0.0221 11.821-0.53289 11.505-0.28369-0.17534-0.4603 0.60895-0.4603 2.0442 0 1.2808 0.20714 2.3287 0.4603 2.3287 0.25317 0 0.4603 0.3107 0.4603 0.69045 0 0.37974-0.22297 0.69045-0.4955 0.69045-0.27989 0-0.46077 0.75107-0.4157 1.7261 0.12083 2.6136-0.0528 5.0208-0.3152 4.37-0.12822-0.31803-0.42257-0.46116-0.65411-0.31806-0.67385 0.41646-0.48568 2.0511 0.26947 2.3409 0.37974 0.14573 0.69044 0.48445 0.69044 0.75273 0 0.26827-0.13854 0.34922-0.30787 0.17989-0.52736-0.52736-1.9936 1.1621-1.9936 2.2971 0 1.2042 0.42982 1.3639 1.3566 0.50403 0.50736-0.47076 0.56595-0.42207 0.32221 0.2678-0.16384 0.46374-0.29789 1.2405-0.29789 1.7261 0 0.48818-0.31694 0.88295-0.70889 0.88295-0.54343 0-0.68462 0.45661-0.60493 1.9563 0.12328 2.3198-1.4166 8.0452-1.9372 7.2028-0.24057-0.38924-0.6526-0.073-1.31 1.0054-1.0679 1.7518-1.2046 2.5665-0.47162 2.8108 0.28792 0.096-0.0927 1.273-0.9206 2.8469-0.77631 1.4758-1.4115 2.8778-1.4115 3.1155s-0.43915 1.0262-0.97589 1.7522c-0.71923 0.9728-0.9222 1.78-0.77172 3.0689 0.16661 1.4272-0.22794 2.5994-2.1446 6.3714-4.919 9.681-12.64 21.459-14.219 21.69-1.1564 0.16972-1.899 0.88602-3.7044 3.5732-2.0295 3.0207-14.529 15.476-17.511 17.449-1.2971 0.85832-2.6367 2.2295-3.1444 3.2185-0.68855 1.3413-2.3994 2.7339-7.7216 6.285-7.5196 5.0174-19.376 11.308-20.047 10.636-0.55646-0.55647-3.937 0.22206-4.5467 1.0471-0.25995 0.35173-1.0278 0.77769-1.7063 0.94659s-1.507 0.56569-1.8412 0.88177c-1.0306 0.97481-3.5272 1.712-3.7309 1.1017-0.27718-0.83043-2.7844 0.23442-3.3002 1.4016-0.48823 1.1049-4.438 2.4442-7.2085 2.4442-0.88213 0-1.8146 0.21075-2.0722 0.46833-0.69268 0.69268-3.3982 1.3936-3.3982 0.88044 0-0.23549 0.32292-0.42817 0.71761-0.42817s0.5896-0.20713 0.43313-0.4603c-0.41478-0.67113-2.3338-0.56288-2.9385 0.16576-0.28576 0.34434-0.98431 0.54044-1.5523 0.43578-0.56801-0.10465-1.8613 0.21966-2.8739 0.7207-1.1352 0.56165-2.0089 0.74756-2.2785 0.48482-0.6165-0.60081-2.2672-0.52954-2.9229 0.1262-0.42962 0.42961-0.67511 0.42961-1.1047 0-0.71527-0.71526-3.7046-0.71433-4.4203 1e-3 -0.79402 0.79403-16.865 0.80778-17.658 0.0151-0.72785-0.72785-3.7129-0.73896-4.4354-0.0165-0.42961 0.42961-0.6751 0.42961-1.1047 0-0.65118-0.65117-2.9604-0.73893-3.3387-0.12689-0.14462 0.234 0.10207 0.52067 0.54821 0.63705 0.50583 0.13195 0.33469 0.23169-0.45466 0.26499-0.78805 0.0332-1.2224-0.16378-1.1508-0.52198z" stroke-width=".4603"/>
 </g>
</svg>
