<svg id="svg" version="1.1" xmlns="http://www.w3.org/2000/svg" xmlns:xlink="http://www.w3.org/1999/xlink" width="400" height="409.04761904761904" viewBox="0, 0, 400,409.04761904761904"><g id="svgg"><path id="path0" d="M187.400 2.020 C 179.897 2.719,177.873 2.987,171.200 4.167 C 165.894 5.105,164.534 5.404,159.400 6.763 C 154.455 8.072,151.517 9.000,150.305 9.635 C 149.923 9.836,149.414 10.000,149.174 10.000 C 148.772 10.000,145.103 11.355,142.200 12.576 C 141.540 12.853,140.370 13.323,139.600 13.620 C 137.604 14.389,126.842 19.915,125.555 20.832 C 124.962 21.254,124.365 21.600,124.228 21.600 C 123.926 21.600,118.681 24.860,118.400 25.222 C 118.290 25.364,117.390 25.983,116.400 26.597 C 115.410 27.211,113.210 28.768,111.511 30.057 C 109.812 31.346,108.237 32.400,108.011 32.400 C 107.785 32.400,107.600 32.564,107.600 32.763 C 107.600 32.963,106.406 34.065,104.946 35.212 C 98.976 39.904,88.692 51.036,83.894 58.000 C 81.723 61.151,79.552 64.533,78.963 65.683 C 78.592 66.407,78.178 67.090,78.044 67.200 C 77.599 67.565,73.685 75.236,72.025 79.000 C 71.539 80.100,70.857 81.627,70.508 82.394 C 70.159 83.160,69.732 84.330,69.559 84.994 C 69.259 86.141,67.814 90.491,67.165 92.200 C 66.998 92.640,66.569 94.350,66.211 96.000 C 65.854 97.650,65.396 99.630,65.195 100.400 C 63.148 108.220,63.331 122.478,65.546 127.687 C 65.946 128.629,66.397 129.900,66.547 130.511 C 66.698 131.122,67.401 132.562,68.110 133.711 C 68.820 134.860,69.670 136.295,70.000 136.901 C 72.022 140.611,81.386 149.574,84.800 151.068 C 85.130 151.212,85.850 151.633,86.400 152.002 C 87.478 152.727,91.930 154.349,95.800 155.427 C 99.105 156.347,112.139 156.395,114.800 155.496 C 115.790 155.161,117.134 154.765,117.786 154.615 C 119.860 154.137,125.133 151.652,126.431 150.541 C 126.779 150.243,127.197 150.000,127.360 150.000 C 127.523 150.000,127.901 149.775,128.198 149.500 C 128.496 149.225,129.608 148.289,130.670 147.420 C 132.294 146.090,133.617 144.686,137.012 140.686 C 137.777 139.785,140.659 135.011,141.229 133.700 C 141.541 132.985,141.931 132.400,142.098 132.400 C 142.264 132.400,142.400 132.187,142.400 131.927 C 142.400 131.667,142.965 130.002,143.656 128.227 C 145.009 124.749,144.970 124.855,146.606 120.400 C 147.212 118.750,147.933 116.860,148.207 116.200 C 148.481 115.540,148.929 114.280,149.201 113.400 C 149.474 112.520,149.855 111.629,150.048 111.420 C 150.242 111.211,150.400 110.811,150.400 110.530 C 150.400 110.250,151.480 107.776,152.800 105.032 C 154.120 102.289,155.200 99.959,155.200 99.854 C 155.200 99.466,159.329 92.995,159.658 92.867 C 159.846 92.793,160.000 92.507,160.000 92.229 C 160.000 90.553,169.691 79.437,172.057 78.399 C 172.575 78.172,173.830 77.469,174.843 76.838 C 175.857 76.206,177.117 75.566,177.643 75.414 C 178.170 75.263,179.320 74.811,180.200 74.410 C 182.998 73.135,184.435 72.772,191.600 71.534 C 195.342 70.888,207.899 70.662,211.000 71.186 C 226.025 73.723,233.359 77.588,242.242 87.647 C 244.471 90.171,248.800 98.108,248.800 99.670 C 248.800 99.984,248.970 100.411,249.177 100.620 C 251.701 103.167,250.560 122.512,247.672 126.131 C 247.466 126.389,247.164 127.036,247.000 127.568 C 246.635 128.759,244.616 131.942,242.096 135.303 C 239.419 138.874,239.396 138.899,235.348 142.948 C 228.459 149.837,226.687 151.473,210.837 165.566 C 209.208 167.015,207.588 168.487,207.237 168.838 C 206.887 169.190,205.520 170.430,204.200 171.596 C 187.848 186.034,174.423 200.757,169.491 209.660 C 168.924 210.683,168.036 212.213,167.518 213.060 C 166.999 213.907,166.187 215.410,165.712 216.400 C 163.986 219.997,161.600 225.252,161.600 225.455 C 161.600 225.636,160.183 229.412,159.220 231.800 C 155.170 241.835,152.899 263.066,154.749 273.600 C 155.684 278.921,159.902 288.637,162.043 290.400 C 162.176 290.510,163.207 291.712,164.333 293.071 C 166.458 295.635,172.176 300.369,174.224 301.259 C 174.871 301.541,175.842 302.047,176.382 302.385 C 178.640 303.798,184.793 305.562,189.200 306.061 C 199.426 307.217,210.315 304.815,217.083 299.910 C 218.229 299.079,219.354 298.400,219.583 298.400 C 219.812 298.400,220.000 298.226,220.000 298.012 C 220.000 297.799,221.080 296.548,222.400 295.232 C 223.720 293.916,224.800 292.675,224.800 292.474 C 224.800 292.272,225.171 291.637,225.624 291.061 C 226.618 289.797,229.600 284.169,229.600 283.557 C 229.600 283.317,229.849 282.554,230.153 281.860 C 230.677 280.666,231.275 278.337,233.814 267.600 C 234.412 265.070,235.059 262.687,235.251 262.305 C 235.443 261.923,235.600 261.305,235.600 260.931 C 235.600 259.850,236.854 255.039,237.245 254.620 C 237.440 254.411,237.600 253.919,237.600 253.527 C 237.600 248.308,248.675 235.087,266.185 219.400 C 268.149 217.640,270.043 215.930,270.394 215.600 C 271.127 214.910,282.327 204.800,284.352 203.001 C 285.095 202.341,286.535 201.021,287.552 200.070 C 288.568 199.118,291.830 196.070,294.800 193.296 C 302.629 185.985,309.907 178.614,312.470 175.400 C 313.698 173.860,315.094 172.157,315.572 171.615 C 317.496 169.435,327.600 153.597,327.600 152.761 C 327.600 152.598,328.028 151.596,328.552 150.533 C 329.076 149.470,329.817 147.880,330.200 147.000 C 330.582 146.120,331.167 144.783,331.500 144.030 C 331.832 143.276,332.341 141.656,332.630 140.430 C 332.919 139.203,333.533 136.850,333.995 135.200 C 335.170 131.001,335.957 125.906,336.406 119.600 C 336.618 116.630,336.876 113.848,336.980 113.417 C 337.632 110.712,335.502 93.320,333.721 86.800 C 333.390 85.590,332.892 83.688,332.613 82.573 C 332.334 81.458,331.918 80.194,331.688 79.765 C 331.459 79.336,330.894 77.868,330.434 76.502 C 328.560 70.937,320.910 56.176,319.187 54.800 C 319.049 54.690,318.051 53.323,316.968 51.761 C 308.402 39.407,293.261 26.546,277.656 18.370 C 275.315 17.143,273.040 15.949,272.600 15.717 C 267.179 12.854,254.139 8.254,245.600 6.194 C 243.290 5.636,241.040 5.079,240.600 4.956 C 239.862 4.750,235.763 4.040,230.400 3.189 C 229.190 2.997,226.040 2.649,223.400 2.415 C 220.760 2.181,216.839 1.812,214.686 1.595 C 208.914 1.013,196.063 1.213,187.400 2.020 M190.600 315.412 C 188.400 315.688,186.150 316.043,185.600 316.201 C 180.697 317.611,178.925 318.260,175.800 319.789 C 164.375 325.379,154.483 337.328,151.948 348.600 C 149.883 357.786,149.891 363.680,151.983 374.200 C 153.040 379.517,156.356 385.700,161.600 392.132 C 162.256 392.937,166.161 396.242,167.586 397.200 C 168.077 397.530,169.402 398.481,170.531 399.314 C 172.363 400.667,174.496 401.805,178.200 403.407 C 178.860 403.692,180.480 404.229,181.800 404.599 C 183.120 404.970,184.618 405.438,185.130 405.641 C 189.748 407.473,204.975 407.217,210.555 405.214 C 211.680 404.810,213.138 404.357,213.796 404.208 C 214.454 404.059,215.084 403.807,215.196 403.648 C 215.410 403.346,219.848 401.200,220.260 401.200 C 220.548 401.200,225.583 397.646,226.329 396.917 C 226.619 396.633,226.988 396.400,227.148 396.400 C 227.524 396.400,232.642 391.292,234.200 389.361 C 236.079 387.033,237.811 383.937,239.996 379.000 C 243.075 372.044,243.926 357.361,241.722 349.200 C 241.395 347.990,240.933 346.280,240.694 345.400 C 235.494 326.202,212.822 312.631,190.600 315.412 " stroke="none" fill="#fb0404" fill-rule="evenodd"></path><path id="path1" d="M0.000 204.400 L 0.000 408.800 200.000 408.800 L 400.000 408.800 400.000 204.400 L 400.000 0.000 200.000 0.000 L 0.000 0.000 0.000 204.400 M223.200 1.579 C 224.410 1.796,227.380 2.248,229.800 2.583 C 235.526 3.377,240.598 4.261,242.600 4.813 C 243.480 5.055,245.100 5.434,246.200 5.653 C 247.300 5.873,249.190 6.385,250.400 6.791 C 251.610 7.197,253.680 7.838,255.000 8.216 C 256.320 8.593,258.210 9.214,259.200 9.596 C 260.190 9.978,262.080 10.701,263.400 11.203 C 269.033 13.345,272.963 15.150,278.000 17.907 C 279.430 18.689,281.140 19.600,281.800 19.930 C 284.172 21.116,294.521 28.159,297.725 30.767 C 301.583 33.908,310.618 42.768,313.073 45.819 C 313.773 46.688,314.898 48.017,315.573 48.772 C 316.248 49.527,316.800 50.305,316.800 50.501 C 316.800 50.697,317.037 51.094,317.327 51.384 C 317.617 51.674,318.742 53.237,319.827 54.856 C 320.912 56.475,321.890 57.890,322.000 58.000 C 323.682 59.682,330.181 73.373,331.778 78.600 C 332.182 79.920,332.651 81.360,332.820 81.800 C 335.785 89.510,337.146 98.911,337.162 111.800 C 337.174 121.375,336.971 123.598,335.260 132.600 C 334.812 134.956,333.339 140.257,332.814 141.400 C 332.612 141.840,332.334 142.777,332.195 143.483 C 332.057 144.188,331.617 145.448,331.218 146.283 C 330.819 147.117,329.816 149.240,328.990 151.000 C 326.695 155.888,318.784 168.898,317.193 170.400 C 317.076 170.510,315.996 171.860,314.792 173.400 C 310.778 178.534,304.259 185.277,295.063 193.807 C 292.458 196.223,289.485 199.010,288.455 200.000 C 287.425 200.990,284.967 203.229,282.991 204.975 C 281.016 206.721,279.022 208.521,278.559 208.975 C 278.097 209.429,277.017 210.421,276.159 211.180 C 275.302 211.938,272.794 214.188,270.587 216.180 C 268.380 218.171,265.151 221.060,263.411 222.600 C 251.422 233.211,242.280 243.822,239.459 250.400 C 238.846 251.830,238.183 253.360,237.986 253.800 C 237.590 254.685,235.051 264.718,234.189 268.800 C 233.888 270.230,233.442 272.030,233.199 272.800 C 232.957 273.570,232.603 275.010,232.413 276.000 C 231.928 278.526,231.027 281.589,230.290 283.217 C 229.945 283.978,229.536 285.050,229.379 285.600 C 229.223 286.150,228.788 287.050,228.413 287.600 C 228.037 288.150,227.604 288.870,227.449 289.200 C 223.925 296.731,212.852 304.802,204.600 305.856 C 203.500 305.996,202.289 306.270,201.908 306.465 C 199.618 307.638,187.560 306.732,180.800 304.879 C 178.207 304.168,172.621 301.127,169.800 298.891 C 165.550 295.521,160.000 289.437,160.000 288.148 C 160.000 287.846,159.851 287.600,159.668 287.600 C 159.337 287.600,157.387 283.896,156.267 281.140 C 153.315 273.872,152.470 261.216,154.254 251.015 C 154.563 249.247,154.989 246.452,155.200 244.804 C 155.410 243.156,155.746 241.356,155.945 240.804 C 156.144 240.252,156.529 238.990,156.799 238.000 C 157.070 237.010,157.440 235.840,157.622 235.400 C 157.804 234.960,158.075 233.970,158.224 233.200 C 158.372 232.430,158.833 231.091,159.247 230.225 C 159.661 229.359,160.000 228.396,160.000 228.085 C 160.000 227.339,161.378 224.185,164.581 217.600 C 166.827 212.980,168.393 210.166,170.332 207.265 C 171.139 206.056,171.980 204.778,172.200 204.425 C 175.817 198.621,188.996 184.574,201.000 173.731 C 202.980 171.943,205.140 169.992,205.800 169.396 C 206.460 168.800,208.440 166.997,210.200 165.390 C 211.960 163.782,214.480 161.529,215.800 160.383 C 220.152 156.604,224.055 153.053,228.089 149.200 C 230.277 147.110,232.975 144.590,234.084 143.600 C 240.014 138.306,247.207 127.554,248.801 121.600 C 249.066 120.610,249.451 119.373,249.655 118.852 C 250.909 115.652,249.781 103.039,247.844 98.600 C 247.556 97.940,247.085 96.770,246.797 96.000 C 245.229 91.802,235.305 80.000,233.342 80.000 C 233.189 80.000,232.779 79.748,232.431 79.441 C 228.961 76.366,219.137 72.774,212.136 72.020 C 210.191 71.810,207.520 71.524,206.200 71.384 C 202.756 71.017,189.195 72.226,185.800 73.202 C 181.278 74.502,180.335 74.831,177.672 76.047 C 176.282 76.681,174.977 77.200,174.772 77.200 C 174.567 77.200,174.400 77.380,174.400 77.600 C 174.400 77.820,174.203 78.000,173.963 78.000 C 172.819 78.000,165.870 84.565,163.380 88.000 C 161.143 91.084,159.600 93.517,159.600 93.958 C 159.600 94.164,159.465 94.393,159.300 94.467 C 158.081 95.008,151.797 107.785,149.540 114.311 C 148.647 116.890,147.756 119.171,147.559 119.380 C 147.361 119.589,147.199 120.039,147.198 120.380 C 147.196 120.721,146.965 121.450,146.685 122.000 C 146.404 122.550,145.924 123.810,145.617 124.800 C 145.311 125.790,144.912 126.771,144.730 126.980 C 144.549 127.189,144.400 127.631,144.400 127.963 C 144.400 128.534,140.494 136.777,140.023 137.200 C 139.900 137.310,138.935 138.692,137.878 140.270 C 135.254 144.188,126.281 152.400,124.624 152.400 C 124.473 152.400,123.236 152.934,121.875 153.586 C 112.266 158.190,96.686 158.014,87.705 153.200 C 86.884 152.760,86.071 152.400,85.900 152.400 C 83.883 152.400,73.324 142.883,70.333 138.370 C 67.546 134.165,65.232 129.802,65.213 128.715 C 65.206 128.338,64.800 127.078,64.312 125.915 C 63.129 123.097,62.961 107.456,64.070 103.400 C 64.431 102.080,64.849 100.100,65.000 99.000 C 65.288 96.893,65.336 96.700,67.006 91.000 C 68.327 86.491,71.749 77.708,73.319 74.800 C 73.972 73.590,75.052 71.520,75.720 70.200 C 76.387 68.880,77.038 67.710,77.167 67.600 C 77.295 67.490,77.683 66.860,78.029 66.200 C 78.944 64.453,79.771 63.029,80.001 62.800 C 80.376 62.427,83.398 57.804,83.662 57.200 C 83.806 56.870,84.753 55.610,85.767 54.400 C 86.781 53.190,87.743 52.017,87.905 51.794 C 90.693 47.950,97.874 40.479,102.600 36.506 C 104.580 34.841,106.260 33.326,106.333 33.140 C 106.407 32.953,106.707 32.800,107.000 32.800 C 107.293 32.800,107.593 32.646,107.667 32.458 C 107.823 32.057,114.676 26.800,115.043 26.800 C 115.180 26.800,116.127 26.192,117.146 25.449 C 118.897 24.172,122.893 21.658,126.000 19.878 C 132.155 16.351,144.968 10.400,146.405 10.400 C 146.754 10.400,147.211 10.248,147.420 10.063 C 147.965 9.580,153.110 7.903,158.000 6.614 C 160.310 6.005,162.560 5.365,163.000 5.190 C 164.316 4.668,174.388 2.860,177.400 2.606 C 178.940 2.476,180.830 2.191,181.600 1.974 C 185.528 0.863,217.507 0.559,223.200 1.579 M208.200 315.553 C 212.557 316.631,215.176 317.492,216.262 318.204 C 216.762 318.532,217.385 318.800,217.646 318.800 C 218.211 318.800,224.541 322.791,224.733 323.269 C 224.807 323.451,225.081 323.600,225.343 323.600 C 226.136 323.600,232.144 329.658,235.194 333.533 C 236.265 334.894,238.139 337.983,238.874 339.600 C 240.762 343.753,241.200 344.803,241.200 345.181 C 241.200 345.417,241.356 345.923,241.547 346.305 C 245.682 354.575,243.469 375.962,237.502 385.393 C 234.383 390.322,231.140 393.931,227.002 397.080 C 225.903 397.916,224.463 399.094,223.802 399.698 C 223.141 400.302,222.452 400.797,222.271 400.798 C 222.090 400.799,219.869 401.816,217.336 403.057 C 212.792 405.283,210.889 405.880,204.600 407.054 C 200.548 407.810,189.915 407.576,187.200 406.671 C 186.210 406.341,184.597 405.943,183.615 405.786 C 182.634 405.629,181.554 405.361,181.215 405.190 C 180.877 405.020,179.340 404.381,177.800 403.772 C 176.260 403.162,174.522 402.334,173.938 401.932 C 173.354 401.529,172.692 401.200,172.467 401.200 C 171.705 401.200,163.817 395.073,161.436 392.632 C 158.243 389.358,154.940 384.024,152.748 378.600 C 149.571 370.739,148.979 355.372,151.562 347.800 C 152.012 346.480,152.385 345.085,152.390 344.700 C 152.396 344.315,152.558 344.000,152.750 344.000 C 152.942 344.000,153.211 343.445,153.347 342.766 C 153.482 342.088,153.955 341.025,154.397 340.405 C 154.839 339.784,155.200 339.048,155.200 338.770 C 155.200 338.491,155.458 337.978,155.772 337.631 C 156.087 337.283,156.590 336.525,156.890 335.946 C 158.313 333.204,167.376 323.600,168.541 323.600 C 168.867 323.600,169.193 323.465,169.267 323.300 C 169.622 322.501,172.406 320.788,177.696 318.113 C 184.425 314.712,199.643 313.434,208.200 315.553 " stroke="none" fill="#ffffff" fill-rule="evenodd"></path><path id="path2" d="M192.700 1.095 C 193.855 1.176,195.745 1.176,196.900 1.095 C 198.055 1.014,197.110 0.948,194.800 0.948 C 192.490 0.948,191.545 1.014,192.700 1.095 M210.700 1.093 C 211.635 1.177,213.165 1.177,214.100 1.093 C 215.035 1.009,214.270 0.940,212.400 0.940 C 210.530 0.940,209.765 1.009,210.700 1.093 M186.700 1.489 C 187.415 1.578,188.585 1.578,189.300 1.489 C 190.015 1.401,189.430 1.328,188.000 1.328 C 186.570 1.328,185.985 1.401,186.700 1.489 M217.300 1.491 C 218.125 1.578,219.475 1.578,220.300 1.491 C 221.125 1.405,220.450 1.334,218.800 1.334 C 217.150 1.334,216.475 1.405,217.300 1.491 M181.600 2.003 C 181.190 2.270,181.635 2.314,183.000 2.141 C 184.100 2.001,185.075 1.823,185.167 1.744 C 185.564 1.401,182.141 1.650,181.600 2.003 M223.400 2.000 C 224.060 2.168,225.050 2.309,225.600 2.313 L 226.600 2.320 225.600 2.000 C 225.050 1.824,224.060 1.683,223.400 1.687 L 222.200 1.695 223.400 2.000 M172.600 3.200 C 171.530 3.472,171.508 3.505,172.400 3.505 C 172.950 3.505,173.940 3.368,174.600 3.200 C 175.670 2.928,175.692 2.895,174.800 2.895 C 174.250 2.895,173.260 3.032,172.600 3.200 M231.633 2.947 C 231.725 3.028,232.520 3.204,233.400 3.338 C 234.515 3.507,234.758 3.471,234.200 3.219 C 233.432 2.871,231.290 2.644,231.633 2.947 M238.500 4.276 C 238.885 4.376,239.515 4.376,239.900 4.276 C 240.285 4.175,239.970 4.093,239.200 4.093 C 238.430 4.093,238.115 4.175,238.500 4.276 M163.045 5.128 C 162.933 5.308,163.373 5.377,164.021 5.282 C 164.670 5.187,165.200 5.040,165.200 4.955 C 165.200 4.650,163.243 4.807,163.045 5.128 M242.033 4.944 C 242.125 5.023,242.740 5.208,243.400 5.356 C 244.276 5.552,244.438 5.515,244.000 5.218 C 243.460 4.853,241.632 4.598,242.033 4.944 M248.600 6.612 C 250.673 7.358,251.394 7.340,249.654 6.584 C 248.914 6.263,248.014 6.008,247.654 6.018 C 247.294 6.027,247.720 6.295,248.600 6.612 M255.800 8.800 C 256.240 8.989,256.870 9.144,257.200 9.144 C 257.578 9.144,257.504 9.017,257.000 8.800 C 256.560 8.611,255.930 8.456,255.600 8.456 C 255.222 8.456,255.296 8.583,255.800 8.800 M148.100 9.612 C 146.761 10.151,147.011 10.424,148.400 9.940 C 149.060 9.710,149.600 9.449,149.600 9.361 C 149.600 9.124,149.113 9.205,148.100 9.612 M258.800 9.800 C 259.350 10.114,259.980 10.372,260.200 10.372 C 260.420 10.372,260.150 10.114,259.600 9.800 C 259.050 9.486,258.420 9.228,258.200 9.228 C 257.980 9.228,258.250 9.486,258.800 9.800 M143.400 11.438 C 142.300 11.972,141.850 12.294,142.400 12.154 C 143.542 11.862,146.407 10.427,145.800 10.451 C 145.580 10.460,144.500 10.904,143.400 11.438 M262.758 11.237 C 263.725 11.666,264.588 11.945,264.675 11.858 C 264.848 11.686,261.765 10.382,261.292 10.428 C 261.131 10.444,261.791 10.808,262.758 11.237 M268.000 13.334 C 268.000 13.437,268.581 13.724,269.291 13.972 C 270.001 14.219,270.406 14.257,270.191 14.056 C 269.735 13.629,268.000 13.058,268.000 13.334 M136.700 14.229 C 135.149 15.070,135.325 15.361,136.900 14.559 C 138.408 13.793,138.675 13.594,138.167 13.616 C 137.965 13.625,137.305 13.901,136.700 14.229 M274.200 16.210 C 275.080 16.752,275.980 17.196,276.200 17.196 C 276.420 17.196,275.880 16.752,275.000 16.210 C 274.120 15.668,273.220 15.225,273.000 15.225 C 272.780 15.225,273.320 15.668,274.200 16.210 M127.200 19.236 C 126.536 19.779,126.469 19.915,127.000 19.640 C 128.305 18.966,129.028 18.412,128.600 18.415 C 128.380 18.417,127.750 18.786,127.200 19.236 M124.400 20.836 C 123.736 21.379,123.669 21.515,124.200 21.240 C 125.505 20.566,126.228 20.012,125.800 20.015 C 125.580 20.017,124.950 20.386,124.400 20.836 M282.600 20.607 C 283.040 20.966,283.760 21.435,284.200 21.651 L 285.000 22.044 284.200 21.393 C 283.760 21.034,283.040 20.565,282.600 20.349 L 281.800 19.956 282.600 20.607 M285.400 22.273 C 286.251 23.062,288.762 24.800,289.051 24.800 C 289.218 24.800,288.735 24.337,287.978 23.771 C 286.536 22.694,284.710 21.633,285.400 22.273 M291.200 26.111 C 291.200 26.187,291.785 26.678,292.500 27.201 C 293.304 27.790,293.584 27.887,293.233 27.455 C 292.700 26.799,291.200 25.807,291.200 26.111 M294.000 28.107 C 294.000 28.195,294.720 28.845,295.600 29.552 C 296.480 30.259,297.196 30.694,297.191 30.519 C 297.183 30.204,294.000 27.799,294.000 28.107 M108.400 31.600 C 107.850 32.030,107.597 32.386,107.838 32.391 C 108.079 32.396,108.602 32.040,109.000 31.600 C 109.912 30.592,109.688 30.592,108.400 31.600 M105.900 33.633 C 105.515 34.055,105.352 34.400,105.538 34.400 C 105.724 34.400,106.202 34.040,106.600 33.600 C 106.998 33.160,107.161 32.815,106.962 32.833 C 106.763 32.852,106.285 33.212,105.900 33.633 M102.379 36.622 C 101.851 37.184,101.688 37.541,102.018 37.414 C 102.539 37.215,103.834 35.600,103.473 35.600 C 103.400 35.600,102.907 36.060,102.379 36.622 M306.600 39.200 C 308.571 41.180,310.273 42.800,310.383 42.800 C 310.493 42.800,308.971 41.180,307.000 39.200 C 305.029 37.220,303.327 35.600,303.217 35.600 C 303.107 35.600,304.629 37.220,306.600 39.200 M99.775 38.861 L 98.600 40.121 99.900 39.185 C 100.615 38.671,101.200 38.103,101.200 37.925 C 101.200 37.406,101.020 37.525,99.775 38.861 M95.986 42.700 L 93.800 45.000 96.100 42.814 C 97.365 41.611,98.400 40.576,98.400 40.514 C 98.400 40.217,98.018 40.563,95.986 42.700 M315.200 48.738 C 315.200 48.924,315.588 49.419,316.062 49.838 L 316.924 50.600 316.216 49.500 C 315.486 48.366,315.200 48.151,315.200 48.738 M317.200 51.368 C 317.200 51.733,320.803 56.800,321.062 56.800 C 321.168 56.800,320.844 56.215,320.343 55.500 C 317.963 52.105,317.200 51.103,317.200 51.368 M84.970 55.410 C 84.154 56.406,83.557 57.281,83.643 57.356 C 83.730 57.430,84.478 56.615,85.306 55.545 C 87.205 53.093,86.953 52.991,84.970 55.410 M322.749 59.800 C 322.965 60.240,323.434 60.960,323.793 61.400 L 324.444 62.200 324.051 61.400 C 323.835 60.960,323.366 60.240,323.007 59.800 L 322.356 59.000 322.749 59.800 M78.953 64.500 C 77.576 66.836,77.486 67.035,78.187 66.200 C 79.000 65.232,79.700 64.000,79.438 64.000 C 79.333 64.000,79.115 64.225,78.953 64.500 M76.465 68.617 C 75.795 70.088,75.923 70.402,76.647 69.065 C 76.986 68.440,77.188 67.854,77.096 67.763 C 77.005 67.671,76.721 68.056,76.465 68.617 M194.600 71.611 C 193.693 71.779,194.646 71.818,196.800 71.700 C 198.890 71.585,200.675 71.426,200.767 71.346 C 201.055 71.094,196.276 71.299,194.600 71.611 M208.400 71.620 C 210.814 72.050,212.706 72.013,210.600 71.577 C 209.720 71.395,208.460 71.258,207.800 71.273 C 206.900 71.293,207.050 71.380,208.400 71.620 M186.200 72.800 C 185.696 73.017,185.622 73.144,186.000 73.144 C 186.330 73.144,186.960 72.989,187.400 72.800 C 187.904 72.583,187.978 72.456,187.600 72.456 C 187.270 72.456,186.640 72.611,186.200 72.800 M183.200 73.600 C 182.396 73.857,182.357 73.923,183.000 73.932 C 183.440 73.938,184.160 73.789,184.600 73.600 C 185.619 73.162,184.568 73.162,183.200 73.600 M223.200 74.600 C 223.750 74.914,224.380 75.172,224.600 75.172 C 224.820 75.172,224.550 74.914,224.000 74.600 C 223.450 74.286,222.820 74.028,222.600 74.028 C 222.380 74.028,222.650 74.286,223.200 74.600 M177.100 75.829 C 176.495 76.157,176.000 76.506,176.000 76.604 C 176.000 76.828,178.066 75.963,178.580 75.524 C 179.207 74.990,178.304 75.176,177.100 75.829 M225.600 75.379 C 225.600 75.489,226.140 75.859,226.800 76.200 C 227.460 76.541,228.000 76.731,228.000 76.621 C 228.000 76.511,227.460 76.141,226.800 75.800 C 226.140 75.459,225.600 75.269,225.600 75.379 M71.800 77.861 C 71.464 78.665,71.282 79.415,71.395 79.528 C 71.508 79.641,71.600 79.635,71.600 79.516 C 71.600 79.396,71.872 78.646,72.205 77.849 C 72.538 77.052,72.721 76.400,72.611 76.400 C 72.501 76.400,72.136 77.058,71.800 77.861 M171.800 79.023 C 171.054 79.656,170.915 79.891,171.433 79.643 C 172.176 79.287,173.525 77.997,173.149 78.002 C 173.067 78.003,172.460 78.463,171.800 79.023 M167.206 82.994 C 166.463 83.761,165.932 84.450,166.027 84.525 C 166.122 84.600,166.806 83.973,167.546 83.131 C 169.229 81.218,169.012 81.131,167.206 82.994 M238.783 84.500 C 239.764 85.545,240.619 86.400,240.683 86.400 C 240.984 86.400,240.666 86.041,238.900 84.383 L 237.000 82.600 238.783 84.500 M163.600 87.200 C 163.130 87.860,162.836 88.400,162.946 88.400 C 163.056 88.400,163.530 87.860,164.000 87.200 C 164.470 86.540,164.764 86.000,164.654 86.000 C 164.544 86.000,164.070 86.540,163.600 87.200 M334.406 88.233 C 334.409 88.655,334.595 89.270,334.818 89.600 C 335.115 90.038,335.152 89.876,334.956 89.000 C 334.627 87.529,334.398 87.210,334.406 88.233 M67.244 90.044 C 66.998 90.751,66.866 91.400,66.952 91.485 C 67.038 91.571,67.309 91.062,67.556 90.356 C 67.802 89.649,67.934 89.000,67.848 88.915 C 67.762 88.829,67.491 89.338,67.244 90.044 M243.199 89.900 C 243.722 90.615,244.213 91.200,244.289 91.200 C 244.593 91.200,243.601 89.700,242.945 89.167 C 242.513 88.816,242.610 89.096,243.199 89.900 M160.953 90.900 C 159.576 93.236,159.486 93.435,160.187 92.600 C 161.000 91.632,161.700 90.400,161.438 90.400 C 161.333 90.400,161.115 90.625,160.953 90.900 M66.446 92.467 C 66.421 92.834,66.296 93.464,66.170 93.867 C 65.952 94.562,65.963 94.563,66.397 93.887 C 66.648 93.496,66.773 92.866,66.673 92.487 C 66.511 91.868,66.488 91.866,66.446 92.467 M336.276 98.200 C 336.405 99.520,336.576 100.675,336.656 100.767 C 336.963 101.121,336.725 97.357,336.392 96.600 C 336.169 96.092,336.126 96.676,336.276 98.200 M247.418 97.700 C 247.568 98.195,247.855 98.776,248.056 98.991 C 248.257 99.206,248.219 98.801,247.972 98.091 C 247.465 96.638,246.997 96.308,247.418 97.700 M155.879 99.174 C 155.506 99.806,155.201 100.476,155.201 100.662 C 155.202 100.848,155.572 100.395,156.023 99.655 C 156.474 98.915,156.779 98.246,156.701 98.167 C 156.622 98.089,156.252 98.542,155.879 99.174 M64.200 102.800 C 64.048 103.491,64.007 104.141,64.109 104.242 C 64.211 104.344,64.409 103.853,64.550 103.150 C 64.691 102.447,64.731 101.798,64.641 101.708 C 64.550 101.617,64.352 102.109,64.200 102.800 M336.901 103.000 C 336.905 103.880,336.987 104.193,337.083 103.695 C 337.179 103.198,337.175 102.478,337.075 102.095 C 336.975 101.713,336.896 102.120,336.901 103.000 M249.256 103.000 C 249.256 103.440,249.411 104.160,249.600 104.600 L 249.944 105.400 249.944 104.600 C 249.944 104.160,249.789 103.440,249.600 103.000 L 249.256 102.200 249.256 103.000 M63.422 108.022 C 63.266 109.810,63.223 111.356,63.326 111.459 C 63.429 111.562,63.642 110.185,63.800 108.400 C 63.958 106.615,64.001 105.068,63.897 104.963 C 63.792 104.858,63.578 106.235,63.422 108.022 M250.120 110.000 C 250.120 111.210,250.195 111.705,250.287 111.100 C 250.378 110.495,250.378 109.505,250.287 108.900 C 250.195 108.295,250.120 108.790,250.120 110.000 M250.120 114.400 C 250.120 115.610,250.195 116.105,250.287 115.500 C 250.378 114.895,250.378 113.905,250.287 113.300 C 250.195 112.695,250.120 113.190,250.120 114.400 M149.244 114.044 C 148.998 114.751,148.866 115.400,148.952 115.485 C 149.038 115.571,149.309 115.062,149.556 114.356 C 149.802 113.649,149.934 113.000,149.848 112.915 C 149.762 112.829,149.491 113.338,149.244 114.044 M147.913 117.781 C 147.542 118.781,147.317 119.600,147.414 119.600 C 147.693 119.600,148.831 116.694,148.703 116.309 C 148.639 116.118,148.284 116.780,147.913 117.781 M336.924 119.800 C 336.926 121.120,337.001 121.612,337.090 120.893 C 337.179 120.174,337.177 119.094,337.086 118.493 C 336.995 117.892,336.922 118.480,336.924 119.800 M63.309 119.600 C 63.309 120.590,63.387 120.995,63.482 120.500 C 63.578 120.005,63.578 119.195,63.482 118.700 C 63.387 118.205,63.309 118.610,63.309 119.600 M249.473 118.953 C 249.323 119.345,249.211 119.966,249.225 120.333 C 249.242 120.775,249.381 120.674,249.637 120.034 C 249.849 119.503,249.961 118.882,249.885 118.654 C 249.809 118.427,249.624 118.561,249.473 118.953 M146.467 121.580 C 146.233 122.251,146.127 122.800,146.231 122.800 C 146.501 122.800,147.256 120.722,147.057 120.524 C 146.967 120.433,146.701 120.908,146.467 121.580 M63.701 123.000 C 63.705 123.880,63.787 124.193,63.883 123.695 C 63.979 123.198,63.975 122.478,63.875 122.095 C 63.775 121.713,63.696 122.120,63.701 123.000 M336.454 124.000 C 336.419 124.550,336.296 125.450,336.183 126.000 L 335.977 127.000 336.407 126.015 C 336.643 125.474,336.765 124.574,336.678 124.015 L 336.520 123.000 336.454 124.000 M246.125 128.032 C 245.650 128.900,245.429 129.506,245.634 129.379 C 246.077 129.105,247.318 126.784,247.124 126.591 C 247.050 126.516,246.600 127.165,246.125 128.032 M335.693 128.800 C 335.693 129.570,335.775 129.885,335.876 129.500 C 335.976 129.115,335.976 128.485,335.876 128.100 C 335.775 127.715,335.693 128.030,335.693 128.800 M143.667 129.180 C 143.433 129.851,143.327 130.400,143.431 130.400 C 143.701 130.400,144.456 128.322,144.257 128.124 C 144.167 128.033,143.901 128.508,143.667 129.180 M65.212 128.800 C 65.212 129.130,65.387 129.670,65.600 130.000 C 65.945 130.533,65.988 130.533,65.988 130.000 C 65.988 129.670,65.813 129.130,65.600 128.800 C 65.255 128.267,65.212 128.267,65.212 128.800 M66.000 130.986 C 66.000 131.405,67.606 134.000,67.865 134.000 C 67.975 134.000,67.659 133.325,67.163 132.500 C 66.058 130.662,66.000 130.587,66.000 130.986 M68.015 134.600 C 68.017 134.820,68.386 135.450,68.836 136.000 C 69.379 136.664,69.515 136.731,69.240 136.200 C 68.566 134.895,68.012 134.172,68.015 134.600 M239.828 137.200 C 238.584 138.740,237.708 139.990,237.883 139.978 C 238.211 139.955,242.576 134.400,242.265 134.400 C 242.169 134.400,241.072 135.660,239.828 137.200 M73.120 141.900 C 74.220 143.165,75.623 144.650,76.238 145.200 C 76.853 145.750,76.027 144.715,74.402 142.900 C 72.777 141.085,71.374 139.600,71.284 139.600 C 71.194 139.600,72.020 140.635,73.120 141.900 M135.026 143.500 C 133.721 144.985,133.243 145.660,133.964 145.000 C 135.218 143.851,137.812 140.800,137.534 140.800 C 137.460 140.800,136.332 142.015,135.026 143.500 M235.775 142.100 L 234.600 143.400 235.900 142.225 C 236.615 141.579,237.200 140.994,237.200 140.925 C 237.200 140.616,236.870 140.888,235.775 142.100 M233.200 144.200 C 232.922 144.535,232.879 144.800,233.102 144.800 C 233.322 144.800,233.726 144.530,234.000 144.200 C 234.278 143.865,234.321 143.600,234.098 143.600 C 233.878 143.600,233.474 143.870,233.200 144.200 M228.501 148.851 C 226.467 150.824,225.059 152.294,225.371 152.119 C 226.093 151.713,232.460 145.527,232.310 145.377 C 232.249 145.315,230.534 146.879,228.501 148.851 M78.893 147.567 C 79.612 148.209,80.265 148.668,80.346 148.587 C 80.531 148.402,78.307 146.430,77.894 146.413 C 77.725 146.406,78.175 146.925,78.893 147.567 M80.803 149.073 C 80.804 149.253,81.344 149.707,82.003 150.081 C 83.543 150.958,83.542 150.698,82.000 149.600 C 81.340 149.130,80.801 148.893,80.803 149.073 M328.278 151.805 C 327.912 152.572,327.695 153.200,327.796 153.200 C 328.070 153.200,329.284 150.751,329.101 150.568 C 329.014 150.481,328.644 151.038,328.278 151.805 M84.400 151.564 C 85.291 152.271,86.800 152.924,86.800 152.603 C 86.800 152.536,86.035 152.096,85.100 151.625 C 83.533 150.837,83.478 150.832,84.400 151.564 M125.400 151.600 C 124.740 152.037,124.380 152.392,124.600 152.388 C 125.001 152.382,127.176 150.823,126.800 150.812 C 126.690 150.808,126.060 151.163,125.400 151.600 M87.600 153.019 C 87.600 153.313,90.049 154.450,90.409 154.324 C 90.604 154.256,90.051 153.898,89.182 153.530 C 88.312 153.161,87.600 152.931,87.600 153.019 M222.825 154.008 C 222.069 154.654,221.529 155.256,221.625 155.344 C 221.721 155.432,222.430 154.897,223.200 154.154 C 224.918 152.497,224.694 152.410,222.825 154.008 M113.200 156.000 C 111.816 156.291,111.814 156.295,113.000 156.341 C 113.660 156.367,114.470 156.213,114.800 156.000 C 115.466 155.570,115.245 155.570,113.200 156.000 M97.705 156.287 C 98.314 156.379,99.214 156.377,99.705 156.282 C 100.197 156.187,99.700 156.111,98.600 156.114 C 97.500 156.117,97.097 156.195,97.705 156.287 M101.505 156.683 C 102.002 156.779,102.722 156.775,103.105 156.675 C 103.487 156.575,103.080 156.496,102.200 156.501 C 101.320 156.505,101.007 156.587,101.505 156.683 M106.200 156.800 L 103.800 157.066 106.000 157.103 C 107.210 157.124,109.010 156.997,110.000 156.820 L 111.800 156.500 110.200 156.517 C 109.320 156.527,107.520 156.654,106.200 156.800 M215.781 160.500 L 214.200 162.200 215.900 160.619 C 217.481 159.148,217.784 158.800,217.481 158.800 C 217.416 158.800,216.651 159.565,215.781 160.500 M322.646 161.800 C 322.291 162.350,321.709 163.295,321.353 163.900 L 320.705 165.000 321.510 164.026 C 322.460 162.876,323.721 160.800,323.469 160.800 C 323.371 160.800,323.001 161.250,322.646 161.800 M212.000 163.668 C 210.952 164.620,210.701 164.965,211.400 164.495 C 212.504 163.751,214.338 161.977,213.962 162.017 C 213.873 162.026,212.990 162.770,212.000 163.668 M208.575 166.900 L 207.400 168.200 208.700 167.025 C 209.415 166.379,210.000 165.794,210.000 165.725 C 210.000 165.416,209.670 165.688,208.575 166.900 M205.096 170.100 C 204.146 171.035,203.823 171.440,204.379 171.000 C 205.890 169.805,207.342 168.400,207.066 168.400 C 206.933 168.400,206.046 169.165,205.096 170.100 M313.681 174.253 C 312.736 175.434,312.106 176.390,312.281 176.377 C 312.642 176.351,315.738 172.393,315.533 172.219 C 315.460 172.157,314.626 173.073,313.681 174.253 M198.473 176.050 C 197.523 176.946,196.814 177.748,196.898 177.831 C 196.982 177.915,197.841 177.177,198.808 176.192 C 201.001 173.957,200.787 173.866,198.473 176.050 M190.595 183.700 L 185.000 189.400 190.700 183.805 C 195.995 178.608,196.581 178.000,196.295 178.000 C 196.237 178.000,193.672 180.565,190.595 183.700 M307.375 181.700 L 306.200 183.000 307.500 181.825 C 308.215 181.179,308.800 180.594,308.800 180.525 C 308.800 180.216,308.470 180.488,307.375 181.700 M304.115 184.810 C 303.189 185.685,302.567 186.400,302.734 186.400 C 302.901 186.400,303.741 185.680,304.600 184.800 C 306.610 182.741,306.300 182.748,304.115 184.810 M298.600 190.125 L 296.200 192.525 298.400 190.596 C 299.610 189.535,300.768 188.520,300.973 188.340 C 301.179 188.161,301.269 187.948,301.173 187.869 C 301.078 187.790,299.920 188.805,298.600 190.125 M182.386 191.900 L 180.200 194.200 182.500 192.014 C 183.765 190.811,184.800 189.776,184.800 189.714 C 184.800 189.417,184.418 189.763,182.386 191.900 M179.329 195.300 C 178.884 195.795,178.376 196.470,178.201 196.800 C 177.863 197.437,177.955 197.350,179.576 195.500 C 180.106 194.895,180.449 194.400,180.339 194.400 C 180.229 194.400,179.775 194.805,179.329 195.300 M291.381 196.900 L 289.800 198.600 291.500 197.019 C 293.081 195.548,293.384 195.200,293.081 195.200 C 293.016 195.200,292.251 195.965,291.381 196.900 M173.977 201.831 C 173.071 203.058,172.390 204.122,172.464 204.194 C 172.539 204.267,173.365 203.263,174.299 201.963 C 175.233 200.663,175.914 199.600,175.812 199.600 C 175.709 199.600,174.884 200.604,173.977 201.831 M284.581 203.300 L 283.000 205.000 284.794 203.400 C 285.780 202.520,286.665 201.755,286.761 201.700 C 286.856 201.645,286.760 201.600,286.548 201.600 C 286.336 201.600,285.451 202.365,284.581 203.300 M171.079 206.100 C 169.994 207.568,169.262 208.832,169.863 208.200 C 170.605 207.420,172.438 204.800,172.241 204.800 C 172.131 204.800,171.608 205.385,171.079 206.100 M280.981 206.500 L 279.400 208.200 281.100 206.619 C 282.681 205.148,282.984 204.800,282.681 204.800 C 282.616 204.800,281.851 205.565,280.981 206.500 M277.123 209.809 C 276.091 210.794,275.371 211.595,275.523 211.588 C 275.843 211.575,277.939 209.685,278.749 208.681 C 279.682 207.524,279.083 207.940,277.123 209.809 M168.614 209.835 C 168.241 210.404,168.027 210.961,168.139 211.072 C 168.250 211.183,168.629 210.718,168.981 210.037 C 169.759 208.533,169.544 208.415,168.614 209.835 M272.585 214.100 L 270.600 216.200 272.792 214.200 C 273.997 213.100,275.062 212.155,275.158 212.100 C 275.255 212.045,275.162 212.000,274.952 212.000 C 274.742 212.000,273.677 212.945,272.585 214.100 M267.800 218.273 C 266.480 219.510,265.940 220.150,266.600 219.696 C 267.756 218.900,270.744 215.987,270.378 216.012 C 270.280 216.019,269.120 217.036,267.800 218.273 M160.411 226.571 C 159.817 228.134,159.934 228.380,160.647 227.065 C 160.986 226.440,161.164 225.830,161.042 225.709 C 160.921 225.588,160.637 225.976,160.411 226.571 M158.996 230.672 C 158.658 231.481,158.433 232.300,158.497 232.491 C 158.561 232.682,158.916 232.020,159.287 231.019 C 160.093 228.845,159.870 228.579,158.996 230.672 M252.687 232.312 C 251.429 233.583,250.400 234.750,250.400 234.904 C 250.400 235.059,251.480 234.068,252.800 232.702 C 254.120 231.337,255.200 230.170,255.200 230.110 C 255.200 229.824,254.815 230.162,252.687 232.312 M248.575 236.900 L 247.400 238.200 248.700 237.025 C 249.415 236.379,250.000 235.794,250.000 235.725 C 250.000 235.416,249.670 235.688,248.575 236.900 M245.999 239.700 C 245.410 240.504,245.313 240.784,245.745 240.433 C 246.401 239.900,247.393 238.400,247.089 238.400 C 247.013 238.400,246.522 238.985,245.999 239.700 M155.858 241.070 C 155.739 241.471,155.549 242.520,155.434 243.400 C 155.275 244.629,155.357 244.493,155.790 242.810 C 156.305 240.810,156.361 239.361,155.858 241.070 M154.656 248.084 C 154.521 248.588,154.428 249.450,154.449 250.000 C 154.472 250.589,154.631 250.271,154.836 249.225 C 155.203 247.352,155.073 246.527,154.656 248.084 M238.050 252.650 C 237.786 253.229,237.662 253.795,237.774 253.907 C 237.886 254.019,238.168 253.611,238.400 253.000 C 238.632 252.389,238.757 251.823,238.676 251.743 C 238.596 251.662,238.314 252.071,238.050 252.650 M153.734 256.400 C 153.734 258.050,153.805 258.725,153.891 257.900 C 153.978 257.075,153.978 255.725,153.891 254.900 C 153.805 254.075,153.734 254.750,153.734 256.400 M236.629 257.429 C 236.481 258.015,236.438 258.572,236.532 258.666 C 236.627 258.760,236.824 258.358,236.971 257.771 C 237.119 257.185,237.162 256.628,237.068 256.534 C 236.973 256.440,236.776 256.842,236.629 257.429 M235.856 260.084 C 235.721 260.588,235.627 261.360,235.646 261.800 C 235.665 262.240,235.845 261.898,236.046 261.040 C 236.436 259.378,236.270 258.540,235.856 260.084 M153.348 264.000 C 153.348 266.310,153.414 267.255,153.495 266.100 C 153.576 264.945,153.576 263.055,153.495 261.900 C 153.414 260.745,153.348 261.690,153.348 264.000 M234.846 264.467 C 234.821 264.834,234.696 265.464,234.570 265.867 C 234.352 266.562,234.363 266.563,234.797 265.887 C 235.048 265.496,235.173 264.866,235.073 264.487 C 234.911 263.868,234.888 263.866,234.846 264.467 M233.422 270.422 C 233.042 271.986,232.807 273.341,232.900 273.433 C 232.993 273.526,233.378 272.321,233.756 270.756 C 234.133 269.190,234.368 267.835,234.278 267.744 C 234.187 267.654,233.802 268.859,233.422 270.422 M153.693 270.000 C 153.693 270.770,153.775 271.085,153.876 270.700 C 153.976 270.315,153.976 269.685,153.876 269.300 C 153.775 268.915,153.693 269.230,153.693 270.000 M154.087 272.800 C 154.083 273.350,154.224 274.250,154.400 274.800 C 154.831 276.144,154.831 274.692,154.400 273.000 C 154.126 271.922,154.094 271.902,154.087 272.800 M231.800 277.200 C 231.650 277.673,231.617 278.150,231.727 278.260 C 231.837 278.370,232.050 278.073,232.200 277.600 C 232.350 277.127,232.383 276.650,232.273 276.540 C 232.163 276.430,231.950 276.727,231.800 277.200 M155.451 278.774 C 155.827 280.239,156.771 282.286,156.755 281.600 C 156.747 281.270,156.394 280.280,155.971 279.400 C 155.548 278.520,155.314 278.238,155.451 278.774 M228.691 286.291 C 227.823 288.205,228.086 288.469,228.982 286.582 C 229.359 285.786,229.598 285.065,229.512 284.979 C 229.426 284.893,229.057 285.484,228.691 286.291 M160.364 289.133 C 160.580 289.536,161.071 290.121,161.455 290.433 C 161.887 290.784,161.790 290.504,161.201 289.700 C 160.151 288.265,159.757 287.998,160.364 289.133 M225.481 291.839 C 225.086 292.368,224.908 292.800,225.085 292.800 C 225.434 292.800,226.538 291.201,226.328 291.000 C 226.257 290.933,225.877 291.311,225.481 291.839 M220.000 298.043 C 219.230 298.709,217.472 299.989,216.093 300.887 C 214.715 301.785,213.659 302.592,213.747 302.681 C 213.978 302.911,219.793 298.872,220.850 297.746 C 222.066 296.452,221.686 296.585,220.000 298.043 M210.400 303.800 C 209.850 304.114,209.580 304.372,209.800 304.372 C 210.020 304.372,210.650 304.114,211.200 303.800 C 211.750 303.486,212.020 303.228,211.800 303.228 C 211.580 303.228,210.950 303.486,210.400 303.800 M179.200 304.382 C 179.530 304.605,180.145 304.791,180.567 304.794 C 181.590 304.802,181.271 304.573,179.800 304.244 C 178.924 304.048,178.762 304.085,179.200 304.382 M182.000 305.149 C 182.330 305.346,183.230 305.620,184.000 305.756 C 184.944 305.923,185.140 305.892,184.600 305.661 C 183.363 305.132,181.290 304.723,182.000 305.149 M206.400 305.200 C 205.576 305.464,205.541 305.526,206.200 305.554 C 206.640 305.573,207.270 305.413,207.600 305.200 C 208.301 304.747,207.814 304.747,206.400 305.200 M187.200 306.398 C 188.178 306.713,193.096 306.941,192.767 306.656 C 192.675 306.577,191.160 306.414,189.400 306.294 C 187.554 306.169,186.623 306.213,187.200 306.398 M198.600 306.400 L 195.800 306.659 198.600 306.723 C 200.140 306.759,201.670 306.613,202.000 306.400 C 202.533 306.055,202.533 306.019,202.000 306.077 C 201.670 306.112,200.140 306.258,198.600 306.400 M192.291 314.689 C 193.001 314.777,194.261 314.779,195.091 314.692 C 195.921 314.605,195.340 314.533,193.800 314.531 C 192.260 314.529,191.581 314.600,192.291 314.689 M199.100 314.689 C 199.815 314.778,200.985 314.778,201.700 314.689 C 202.415 314.601,201.830 314.528,200.400 314.528 C 198.970 314.528,198.385 314.601,199.100 314.689 M188.000 315.200 C 187.208 315.454,187.167 315.520,187.800 315.520 C 188.240 315.520,189.050 315.376,189.600 315.200 C 190.392 314.946,190.433 314.880,189.800 314.880 C 189.360 314.880,188.550 315.024,188.000 315.200 M204.400 315.200 C 204.950 315.376,205.850 315.520,206.400 315.520 L 207.400 315.520 206.400 315.200 C 205.850 315.024,204.950 314.880,204.400 314.880 L 203.400 314.880 204.400 315.200 M178.300 317.829 C 177.695 318.157,177.200 318.514,177.200 318.623 C 177.200 318.732,177.695 318.571,178.300 318.265 C 178.905 317.960,179.670 317.609,180.000 317.486 C 180.533 317.288,180.533 317.261,180.000 317.248 C 179.670 317.239,178.905 317.501,178.300 317.829 M174.200 319.810 C 173.320 320.352,172.780 320.791,173.000 320.785 C 173.220 320.780,174.120 320.332,175.000 319.790 C 175.880 319.248,176.420 318.809,176.200 318.815 C 175.980 318.820,175.080 319.268,174.200 319.810 M218.224 319.387 C 218.651 319.710,219.180 319.975,219.400 319.975 C 219.620 319.975,219.451 319.710,219.024 319.387 C 218.596 319.064,218.067 318.800,217.847 318.800 C 217.627 318.800,217.796 319.064,218.224 319.387 M164.693 326.900 C 162.855 328.715,162.262 329.364,163.376 328.343 C 164.489 327.321,166.120 325.837,167.000 325.045 C 167.880 324.252,168.473 323.603,168.318 323.602 C 168.163 323.601,166.532 325.085,164.693 326.900 M225.233 323.700 C 225.325 323.755,225.940 324.250,226.600 324.800 L 227.800 325.800 226.830 324.700 C 226.297 324.095,225.682 323.600,225.464 323.600 C 225.245 323.600,225.142 323.645,225.233 323.700 M157.861 334.267 C 157.454 334.810,157.205 335.338,157.307 335.440 C 157.408 335.542,157.800 335.154,158.178 334.578 C 159.067 333.221,158.822 332.981,157.861 334.267 M234.800 333.403 C 234.800 333.515,235.340 334.352,236.000 335.263 C 237.480 337.306,237.586 336.966,236.147 334.791 C 235.156 333.295,234.800 332.927,234.800 333.403 M156.075 337.184 C 155.594 337.835,155.200 338.500,155.200 338.662 C 155.200 338.823,155.650 338.345,156.200 337.600 C 156.750 336.855,157.200 336.190,157.200 336.122 C 157.200 335.795,156.875 336.102,156.075 337.184 M238.082 338.773 C 238.580 339.638,239.055 340.278,239.139 340.194 C 239.312 340.021,237.631 337.200,237.355 337.200 C 237.257 337.200,237.584 337.908,238.082 338.773 M154.304 340.500 C 153.755 341.339,152.883 343.642,153.281 343.200 C 153.609 342.835,155.190 339.600,155.040 339.600 C 154.958 339.600,154.627 340.005,154.304 340.500 M151.091 349.338 C 150.711 350.764,150.410 352.262,150.422 352.666 C 150.434 353.070,150.796 352.056,151.226 350.412 C 151.656 348.769,151.957 347.272,151.895 347.085 C 151.833 346.898,151.471 347.912,151.091 349.338 M242.475 351.000 C 242.486 351.440,242.632 352.340,242.800 353.000 L 243.105 354.200 243.125 353.000 C 243.135 352.340,242.989 351.440,242.800 351.000 L 242.456 350.200 242.475 351.000 M150.120 357.600 C 150.120 358.810,150.195 359.305,150.287 358.700 C 150.378 358.095,150.378 357.105,150.287 356.500 C 150.195 355.895,150.120 356.390,150.120 357.600 M243.320 357.600 C 243.320 358.810,243.395 359.305,243.487 358.700 C 243.578 358.095,243.578 357.105,243.487 356.500 C 243.395 355.895,243.320 356.390,243.320 357.600 M149.691 361.400 C 149.680 362.280,149.810 363.900,149.982 365.000 C 150.231 366.603,150.296 366.722,150.307 365.600 C 150.315 364.830,150.184 363.210,150.017 362.000 C 149.752 360.084,149.710 360.007,149.691 361.400 M243.328 364.800 C 243.328 366.230,243.401 366.815,243.489 366.100 C 243.578 365.385,243.578 364.215,243.489 363.500 C 243.401 362.785,243.328 363.370,243.328 364.800 M242.849 368.800 C 242.816 369.130,242.689 369.850,242.567 370.400 C 242.375 371.264,242.407 371.303,242.799 370.688 C 243.048 370.297,243.175 369.577,243.081 369.088 C 242.986 368.600,242.882 368.470,242.849 368.800 M150.468 370.200 C 150.462 370.640,150.611 371.360,150.800 371.800 C 151.238 372.819,151.238 371.768,150.800 370.400 C 150.543 369.596,150.477 369.557,150.468 370.200 M151.268 373.200 C 151.288 374.239,151.918 375.946,151.932 375.000 C 151.938 374.560,151.789 373.840,151.600 373.400 C 151.389 372.910,151.261 372.832,151.268 373.200 M238.280 383.280 C 237.892 383.956,237.657 384.591,237.758 384.691 C 237.859 384.792,238.238 384.301,238.600 383.600 C 239.457 381.943,239.197 381.683,238.280 383.280 M155.560 384.600 C 156.234 385.905,156.788 386.628,156.785 386.200 C 156.783 385.980,156.414 385.350,155.964 384.800 C 155.421 384.136,155.285 384.069,155.560 384.600 M236.253 386.900 L 235.533 388.200 236.358 387.200 C 237.089 386.313,237.414 385.600,237.086 385.600 C 237.024 385.600,236.649 386.185,236.253 386.900 M157.843 388.327 C 158.259 389.057,158.948 389.957,159.374 390.327 C 159.824 390.718,159.666 390.331,158.996 389.400 C 157.393 387.174,156.950 386.761,157.843 388.327 M229.578 394.700 L 228.200 396.200 229.700 394.822 C 230.525 394.063,231.200 393.388,231.200 393.322 C 231.200 393.016,230.862 393.304,229.578 394.700 M167.000 397.368 C 167.660 397.935,169.010 398.954,170.000 399.632 C 171.383 400.578,171.522 400.625,170.600 399.832 C 169.940 399.265,168.590 398.246,167.600 397.568 C 166.217 396.622,166.078 396.575,167.000 397.368 M223.000 399.812 C 222.340 400.353,221.954 400.797,222.142 400.798 C 222.330 400.799,223.019 400.350,223.673 399.800 C 224.327 399.250,224.713 398.806,224.531 398.814 C 224.349 398.822,223.660 399.271,223.000 399.812 M181.400 405.200 C 181.536 405.420,182.042 405.587,182.524 405.572 C 183.369 405.545,183.371 405.531,182.600 405.200 C 181.499 404.727,181.108 404.727,181.400 405.200 M189.100 407.082 C 189.595 407.178,190.405 407.178,190.900 407.082 C 191.395 406.987,190.990 406.909,190.000 406.909 C 189.010 406.909,188.605 406.987,189.100 407.082 M200.200 407.200 L 197.800 407.466 199.800 407.503 C 200.900 407.524,202.610 407.397,203.600 407.220 C 205.924 406.807,203.865 406.795,200.200 407.200 M193.107 407.490 C 193.826 407.579,194.906 407.577,195.507 407.486 C 196.108 407.395,195.520 407.322,194.200 407.324 C 192.880 407.326,192.388 407.401,193.107 407.490 " stroke="none" fill="#f88e8e" fill-rule="evenodd"></path><path id="path3" d="M202.505 1.087 C 203.114 1.179,204.014 1.177,204.505 1.082 C 204.997 0.987,204.500 0.911,203.400 0.914 C 202.300 0.917,201.897 0.995,202.505 1.087 M192.105 1.487 C 192.714 1.579,193.614 1.577,194.105 1.482 C 194.597 1.387,194.100 1.311,193.000 1.314 C 191.900 1.317,191.497 1.395,192.105 1.487 M213.100 1.482 C 213.595 1.578,214.405 1.578,214.900 1.482 C 215.395 1.387,214.990 1.309,214.000 1.309 C 213.010 1.309,212.605 1.387,213.100 1.482 M186.900 1.887 C 187.505 1.978,188.495 1.978,189.100 1.887 C 189.705 1.795,189.210 1.720,188.000 1.720 C 186.790 1.720,186.295 1.795,186.900 1.887 M217.091 1.889 C 217.801 1.977,219.061 1.979,219.891 1.892 C 220.721 1.805,220.140 1.733,218.600 1.731 C 217.060 1.729,216.381 1.800,217.091 1.889 M183.300 2.276 C 183.685 2.376,184.315 2.376,184.700 2.276 C 185.085 2.175,184.770 2.093,184.000 2.093 C 183.230 2.093,182.915 2.175,183.300 2.276 M177.600 2.800 C 176.233 3.088,176.228 3.095,177.400 3.119 C 178.060 3.133,178.960 2.989,179.400 2.800 C 180.362 2.387,179.564 2.387,177.600 2.800 M229.300 3.076 C 229.685 3.176,230.315 3.176,230.700 3.076 C 231.085 2.975,230.770 2.893,230.000 2.893 C 229.230 2.893,228.915 2.975,229.300 3.076 M172.400 3.600 C 171.043 3.886,171.037 3.895,172.200 3.907 C 172.860 3.915,173.850 3.776,174.400 3.600 C 175.712 3.180,174.396 3.180,172.400 3.600 M166.400 4.800 C 165.576 5.064,165.541 5.126,166.200 5.154 C 166.640 5.173,167.270 5.013,167.600 4.800 C 168.301 4.347,167.814 4.347,166.400 4.800 M161.200 6.018 C 160.762 6.315,160.924 6.352,161.800 6.156 C 163.271 5.827,163.590 5.598,162.567 5.606 C 162.145 5.609,161.530 5.795,161.200 6.018 M134.000 16.036 C 133.336 16.579,133.269 16.715,133.800 16.440 C 135.105 15.766,135.828 15.212,135.400 15.215 C 135.180 15.217,134.550 15.586,134.000 16.036 M273.200 15.964 C 273.750 16.414,274.380 16.783,274.600 16.785 C 275.028 16.788,274.305 16.234,273.000 15.560 C 272.469 15.285,272.536 15.421,273.200 15.964 M276.800 17.784 C 276.800 17.894,277.520 18.351,278.400 18.800 C 279.280 19.249,280.000 19.526,280.000 19.416 C 280.000 19.306,279.280 18.849,278.400 18.400 C 277.520 17.951,276.800 17.674,276.800 17.784 M125.000 20.800 C 124.340 21.237,123.980 21.592,124.200 21.588 C 124.601 21.582,126.776 20.023,126.400 20.012 C 126.290 20.008,125.660 20.363,125.000 20.800 M113.000 28.635 L 111.800 29.666 113.100 28.806 C 113.815 28.333,114.400 27.868,114.400 27.773 C 114.400 27.473,114.231 27.578,113.000 28.635 M109.800 31.044 L 108.200 32.476 109.900 31.204 C 111.363 30.110,111.891 29.583,111.500 29.606 C 111.445 29.609,110.680 30.256,109.800 31.044 M300.400 33.800 C 301.146 34.570,301.847 35.200,301.957 35.200 C 302.067 35.200,301.546 34.570,300.800 33.800 C 300.054 33.030,299.353 32.400,299.243 32.400 C 299.133 32.400,299.654 33.030,300.400 33.800 M305.600 38.600 C 306.346 39.370,307.047 40.000,307.157 40.000 C 307.267 40.000,306.746 39.370,306.000 38.600 C 305.254 37.830,304.553 37.200,304.443 37.200 C 304.333 37.200,304.854 37.830,305.600 38.600 M95.775 43.300 L 94.600 44.600 95.900 43.425 C 97.112 42.330,97.384 42.000,97.075 42.000 C 97.006 42.000,96.421 42.585,95.775 43.300 M311.881 45.387 C 312.277 45.931,312.766 46.381,312.970 46.387 C 313.173 46.394,312.917 45.950,312.400 45.400 C 311.201 44.123,310.957 44.118,311.881 45.387 M84.756 56.300 C 83.546 57.790,82.312 59.701,82.725 59.447 C 82.963 59.299,83.701 58.374,84.365 57.390 C 85.593 55.570,85.787 55.030,84.756 56.300 M75.053 72.100 L 74.333 73.400 75.158 72.400 C 75.889 71.513,76.214 70.800,75.886 70.800 C 75.824 70.800,75.449 71.385,75.053 72.100 M194.200 71.187 C 193.540 71.347,194.800 71.392,197.000 71.285 C 199.200 71.179,201.075 71.026,201.167 70.946 C 201.470 70.680,195.422 70.889,194.200 71.187 M206.707 71.090 C 207.426 71.179,208.506 71.177,209.107 71.086 C 209.708 70.995,209.120 70.922,207.800 70.924 C 206.480 70.926,205.988 71.001,206.707 71.090 M190.305 71.883 C 190.802 71.979,191.522 71.975,191.905 71.875 C 192.287 71.775,191.880 71.696,191.000 71.701 C 190.120 71.705,189.807 71.787,190.305 71.883 M167.785 82.100 L 165.800 84.200 167.900 82.215 C 169.055 81.123,170.000 80.178,170.000 80.115 C 170.000 79.817,169.629 80.149,167.785 82.100 M162.000 88.800 C 161.530 89.460,161.236 90.000,161.346 90.000 C 161.456 90.000,161.930 89.460,162.400 88.800 C 162.870 88.140,163.164 87.600,163.054 87.600 C 162.944 87.600,162.470 88.140,162.000 88.800 M334.658 90.800 C 334.975 92.525,335.202 92.851,335.194 91.567 C 335.191 91.035,335.011 90.330,334.794 90.000 C 334.518 89.578,334.477 89.815,334.658 90.800 M158.653 94.100 L 157.933 95.400 158.758 94.400 C 159.489 93.513,159.814 92.800,159.486 92.800 C 159.424 92.800,159.049 93.385,158.653 94.100 M336.093 99.200 C 336.093 99.970,336.175 100.285,336.276 99.900 C 336.376 99.515,336.376 98.885,336.276 98.500 C 336.175 98.115,336.093 98.430,336.093 99.200 M336.509 103.200 C 336.509 104.190,336.587 104.595,336.682 104.100 C 336.778 103.605,336.778 102.795,336.682 102.300 C 336.587 101.805,336.509 102.210,336.509 103.200 M64.101 106.200 C 64.105 107.080,64.187 107.393,64.283 106.895 C 64.379 106.398,64.375 105.678,64.275 105.295 C 64.175 104.913,64.096 105.320,64.101 106.200 M336.931 108.200 C 336.933 109.740,337.005 110.321,337.092 109.491 C 337.179 108.661,337.177 107.401,337.089 106.691 C 337.000 105.981,336.929 106.660,336.931 108.200 M250.550 112.200 C 250.551 114.620,250.616 115.558,250.696 114.285 C 250.776 113.012,250.775 111.032,250.694 109.885 C 250.614 108.738,250.549 109.780,250.550 112.200 M63.701 109.800 C 63.705 110.680,63.787 110.993,63.883 110.495 C 63.979 109.998,63.975 109.278,63.875 108.895 C 63.775 108.513,63.696 108.920,63.701 109.800 M149.579 112.255 C 149.358 112.836,149.252 113.385,149.343 113.476 C 149.433 113.567,149.699 113.092,149.933 112.420 C 150.453 110.928,150.139 110.782,149.579 112.255 M336.909 114.800 C 336.909 115.790,336.987 116.195,337.082 115.700 C 337.178 115.205,337.178 114.395,337.082 113.900 C 336.987 113.405,336.909 113.810,336.909 114.800 M63.301 116.200 C 63.305 117.080,63.387 117.393,63.483 116.895 C 63.579 116.398,63.575 115.678,63.475 115.295 C 63.375 114.913,63.296 115.320,63.301 116.200 M336.531 119.800 C 336.533 121.340,336.605 121.921,336.692 121.091 C 336.779 120.261,336.777 119.001,336.689 118.291 C 336.600 117.581,336.529 118.260,336.531 119.800 M146.250 121.191 C 145.347 123.447,145.487 123.783,146.437 121.642 C 146.866 120.675,147.145 119.812,147.058 119.725 C 146.971 119.638,146.608 120.298,146.250 121.191 M249.280 121.080 C 248.688 123.009,248.975 123.295,249.600 121.400 C 249.864 120.601,250.002 119.869,249.907 119.774 C 249.812 119.678,249.530 120.266,249.280 121.080 M64.093 123.200 C 64.093 123.970,64.175 124.285,64.276 123.900 C 64.376 123.515,64.376 122.885,64.276 122.500 C 64.175 122.115,64.093 122.430,64.093 123.200 M65.051 127.174 C 65.427 128.639,66.371 130.686,66.355 130.000 C 66.347 129.670,65.994 128.680,65.571 127.800 C 65.148 126.920,64.914 126.638,65.051 127.174 M245.853 129.300 L 245.133 130.600 245.958 129.600 C 246.689 128.713,247.014 128.000,246.686 128.000 C 246.624 128.000,246.249 128.585,245.853 129.300 M243.623 132.700 C 242.891 133.745,242.631 134.297,243.046 133.927 C 243.771 133.280,245.399 130.800,245.100 130.800 C 245.020 130.800,244.355 131.655,243.623 132.700 M334.650 132.450 C 334.317 134.117,334.640 134.440,335.000 132.800 C 335.152 132.109,335.193 131.459,335.091 131.358 C 334.989 131.256,334.791 131.747,334.650 132.450 M241.119 136.100 C 239.957 137.648,239.496 138.400,239.709 138.400 C 239.794 138.400,240.446 137.590,241.157 136.600 C 242.632 134.546,242.600 134.127,241.119 136.100 M69.964 137.533 C 70.180 137.936,70.671 138.521,71.055 138.833 C 71.487 139.184,71.390 138.904,70.801 138.100 C 69.751 136.665,69.357 136.398,69.964 137.533 M235.906 142.211 C 235.084 142.975,234.554 143.600,234.727 143.600 C 234.901 143.600,235.654 142.970,236.400 142.200 C 238.141 140.403,237.843 140.410,235.906 142.211 M134.181 144.100 L 132.600 145.800 134.300 144.219 C 135.881 142.748,136.184 142.400,135.881 142.400 C 135.816 142.400,135.051 143.165,134.181 144.100 M75.200 143.763 C 76.256 144.942,80.000 148.184,80.000 147.919 C 80.000 147.833,78.695 146.612,77.100 145.204 C 75.505 143.797,74.650 143.149,75.200 143.763 M227.200 150.600 C 226.228 151.590,225.523 152.400,225.633 152.400 C 225.743 152.400,226.628 151.590,227.600 150.600 C 228.572 149.610,229.277 148.800,229.167 148.800 C 229.057 148.800,228.172 149.610,227.200 150.600 M223.506 153.811 C 222.684 154.575,222.154 155.200,222.327 155.200 C 222.501 155.200,223.254 154.570,224.000 153.800 C 225.741 152.003,225.443 152.010,223.506 153.811 M94.000 155.182 C 94.330 155.405,94.945 155.591,95.367 155.594 C 96.390 155.602,96.071 155.373,94.600 155.044 C 93.724 154.848,93.562 154.885,94.000 155.182 M101.505 156.283 C 102.002 156.379,102.722 156.375,103.105 156.275 C 103.487 156.175,103.080 156.096,102.200 156.101 C 101.320 156.105,101.007 156.187,101.505 156.283 M109.105 156.283 C 109.602 156.379,110.322 156.375,110.705 156.275 C 111.087 156.175,110.680 156.096,109.800 156.101 C 108.920 156.105,108.607 156.187,109.105 156.283 M104.900 156.687 C 105.505 156.778,106.495 156.778,107.100 156.687 C 107.705 156.595,107.210 156.520,106.000 156.520 C 104.790 156.520,104.295 156.595,104.900 156.687 M212.378 163.900 L 211.000 165.400 212.500 164.022 C 213.896 162.738,214.184 162.400,213.878 162.400 C 213.812 162.400,213.137 163.075,212.378 163.900 M203.578 171.900 L 202.200 173.400 203.700 172.022 C 205.096 170.738,205.384 170.400,205.078 170.400 C 205.012 170.400,204.337 171.075,203.578 171.900 M198.175 176.900 L 197.000 178.200 198.300 177.025 C 199.015 176.379,199.600 175.794,199.600 175.725 C 199.600 175.416,199.270 175.688,198.175 176.900 M193.600 181.000 C 192.628 181.990,191.923 182.800,192.033 182.800 C 192.143 182.800,193.028 181.990,194.000 181.000 C 194.972 180.010,195.677 179.200,195.567 179.200 C 195.457 179.200,194.572 180.010,193.600 181.000 M304.786 183.900 L 302.600 186.200 304.900 184.014 C 307.037 181.982,307.383 181.600,307.086 181.600 C 307.024 181.600,305.989 182.635,304.786 183.900 M189.186 185.500 L 187.000 187.800 189.300 185.614 C 191.437 183.582,191.783 183.200,191.486 183.200 C 191.424 183.200,190.389 184.235,189.186 185.500 M297.977 190.310 L 295.800 192.600 297.992 190.600 C 299.197 189.500,300.262 188.555,300.358 188.500 C 300.455 188.445,300.448 188.314,300.343 188.210 C 300.239 188.105,299.174 189.050,297.977 190.310 M182.778 191.900 L 181.400 193.400 182.900 192.022 C 183.725 191.263,184.400 190.588,184.400 190.522 C 184.400 190.216,184.062 190.504,182.778 191.900 M290.581 197.300 L 289.000 199.000 290.700 197.419 C 292.281 195.948,292.584 195.600,292.281 195.600 C 292.216 195.600,291.451 196.365,290.581 197.300 M177.563 197.900 C 175.850 199.811,175.069 200.800,175.275 200.800 C 175.385 200.800,176.234 199.900,177.161 198.800 C 178.945 196.685,179.235 196.036,177.563 197.900 M280.800 206.200 C 279.828 207.190,279.123 208.000,279.233 208.000 C 279.343 208.000,280.228 207.190,281.200 206.200 C 282.172 205.210,282.877 204.400,282.767 204.400 C 282.657 204.400,281.772 205.210,280.800 206.200 M276.981 209.700 L 275.400 211.400 277.100 209.819 C 278.681 208.348,278.984 208.000,278.681 208.000 C 278.616 208.000,277.851 208.765,276.981 209.700 M168.253 211.300 L 167.533 212.600 168.358 211.600 C 169.089 210.713,169.414 210.000,169.086 210.000 C 169.024 210.000,168.649 210.585,168.253 211.300 M272.981 213.300 L 271.400 215.000 273.194 213.400 C 274.180 212.520,275.065 211.755,275.161 211.700 C 275.256 211.645,275.160 211.600,274.948 211.600 C 274.736 211.600,273.851 212.365,272.981 213.300 M259.481 225.481 C 257.993 226.927,256.829 228.162,256.894 228.227 C 256.959 228.293,258.230 227.164,259.719 225.719 C 261.207 224.273,262.371 223.038,262.306 222.973 C 262.241 222.907,260.970 224.036,259.481 225.481 M252.185 232.500 L 250.200 234.600 252.300 232.615 C 253.455 231.523,254.400 230.578,254.400 230.515 C 254.400 230.217,254.029 230.549,252.185 232.500 M247.620 237.379 L 245.840 239.400 247.801 237.514 C 248.879 236.477,249.680 235.567,249.581 235.493 C 249.481 235.419,248.599 236.267,247.620 237.379 M155.422 245.022 C 155.272 245.825,155.228 246.562,155.326 246.660 C 155.424 246.757,155.627 246.181,155.778 245.378 C 155.928 244.575,155.972 243.838,155.874 243.740 C 155.776 243.643,155.573 244.219,155.422 245.022 M154.185 253.385 C 154.030 254.623,153.990 255.723,154.095 255.829 C 154.201 255.934,154.407 255.001,154.554 253.754 C 154.700 252.507,154.741 251.407,154.643 251.310 C 154.546 251.212,154.339 252.146,154.185 253.385 M153.746 264.200 C 153.747 266.400,153.814 267.249,153.895 266.087 C 153.976 264.924,153.976 263.124,153.893 262.087 C 153.811 261.049,153.745 262.000,153.746 264.200 M233.246 269.667 C 233.221 270.034,233.096 270.664,232.970 271.067 C 232.752 271.762,232.763 271.763,233.197 271.087 C 233.448 270.696,233.573 270.066,233.473 269.687 C 233.311 269.068,233.288 269.066,233.246 269.667 M154.258 272.000 C 154.575 273.725,154.802 274.051,154.794 272.767 C 154.791 272.235,154.611 271.530,154.394 271.200 C 154.118 270.778,154.077 271.015,154.258 272.000 M232.046 274.867 C 232.021 275.234,231.896 275.864,231.770 276.267 C 231.552 276.962,231.563 276.963,231.997 276.287 C 232.248 275.896,232.373 275.266,232.273 274.887 C 232.111 274.268,232.088 274.266,232.046 274.867 M158.004 284.200 C 158.005 284.420,158.363 285.140,158.800 285.800 C 159.836 287.364,159.837 286.808,158.801 285.110 C 158.362 284.389,158.004 283.980,158.004 284.200 M162.314 291.004 C 162.541 291.447,163.148 292.166,163.663 292.602 C 164.567 293.366,164.565 293.352,163.606 292.197 C 162.013 290.279,161.879 290.155,162.314 291.004 M164.800 294.125 C 164.800 294.194,165.385 294.779,166.100 295.425 L 167.400 296.600 166.225 295.300 C 165.130 294.088,164.800 293.816,164.800 294.125 M221.301 296.240 C 220.806 296.804,220.611 297.196,220.867 297.111 C 221.298 296.967,222.680 295.191,222.349 295.207 C 222.267 295.211,221.795 295.676,221.301 296.240 M171.400 299.756 C 172.280 300.544,173.165 301.191,173.367 301.194 C 173.568 301.197,173.658 301.145,173.567 301.077 C 173.475 301.010,172.590 300.363,171.600 299.639 L 169.800 298.324 171.400 299.756 M178.800 303.800 C 179.350 304.114,179.980 304.372,180.200 304.372 C 180.420 304.372,180.150 304.114,179.600 303.800 C 179.050 303.486,178.420 303.228,178.200 303.228 C 177.980 303.228,178.250 303.486,178.800 303.800 M203.400 305.600 C 202.896 305.817,202.822 305.944,203.200 305.944 C 203.530 305.944,204.160 305.789,204.600 305.600 C 205.104 305.383,205.178 305.256,204.800 305.256 C 204.470 305.256,203.840 305.411,203.400 305.600 M198.900 306.276 C 199.285 306.376,199.915 306.376,200.300 306.276 C 200.685 306.175,200.370 306.093,199.600 306.093 C 198.830 306.093,198.515 306.175,198.900 306.276 M189.800 315.211 C 189.072 315.402,189.702 315.441,191.400 315.309 C 192.940 315.189,194.275 315.025,194.367 314.945 C 194.673 314.678,191.016 314.891,189.800 315.211 M200.700 315.082 C 201.195 315.178,202.005 315.178,202.500 315.082 C 202.995 314.987,202.590 314.909,201.600 314.909 C 200.610 314.909,200.205 314.987,200.700 315.082 M185.200 316.000 C 184.376 316.264,184.341 316.326,185.000 316.354 C 185.440 316.373,186.070 316.213,186.400 316.000 C 187.101 315.547,186.614 315.547,185.200 316.000 M211.800 317.200 C 212.240 317.389,212.870 317.544,213.200 317.544 C 213.578 317.544,213.504 317.417,213.000 317.200 C 212.560 317.011,211.930 316.856,211.600 316.856 C 211.222 316.856,211.296 316.983,211.800 317.200 M227.200 325.800 C 227.946 326.570,228.647 327.200,228.757 327.200 C 228.867 327.200,228.346 326.570,227.600 325.800 C 226.854 325.030,226.153 324.400,226.043 324.400 C 225.933 324.400,226.454 325.030,227.200 325.800 M163.385 328.500 L 161.400 330.600 163.500 328.615 C 164.655 327.523,165.600 326.578,165.600 326.515 C 165.600 326.217,165.229 326.549,163.385 328.500 M232.012 330.600 C 232.781 331.480,234.024 333.055,234.774 334.100 C 235.523 335.145,236.206 336.000,236.291 336.000 C 236.747 336.000,232.849 330.899,231.555 329.800 C 231.036 329.360,231.242 329.720,232.012 330.600 M238.278 339.795 C 238.644 340.562,239.014 341.119,239.101 341.032 C 239.284 340.849,238.070 338.400,237.796 338.400 C 237.695 338.400,237.912 339.028,238.278 339.795 M241.668 348.600 C 241.662 349.040,241.811 349.760,242.000 350.200 C 242.438 351.219,242.438 350.168,242.000 348.800 C 241.743 347.996,241.677 347.957,241.668 348.600 M150.493 354.800 C 150.493 355.570,150.575 355.885,150.676 355.500 C 150.776 355.115,150.776 354.485,150.676 354.100 C 150.575 353.715,150.493 354.030,150.493 354.800 M242.914 356.600 C 242.917 357.700,242.995 358.103,243.087 357.495 C 243.179 356.886,243.177 355.986,243.082 355.495 C 242.987 355.003,242.911 355.500,242.914 356.600 M242.870 365.450 C 242.831 366.358,242.711 367.707,242.601 368.450 L 242.403 369.800 242.823 368.462 C 243.053 367.727,243.174 366.377,243.091 365.462 L 242.940 363.800 242.870 365.450 M150.493 367.600 C 150.493 368.370,150.575 368.685,150.676 368.300 C 150.776 367.915,150.776 367.285,150.676 366.900 C 150.575 366.515,150.493 366.830,150.493 367.600 M151.256 372.000 C 151.256 372.330,151.411 372.960,151.600 373.400 C 151.817 373.904,151.944 373.978,151.944 373.600 C 151.944 373.270,151.789 372.640,151.600 372.200 C 151.383 371.696,151.256 371.622,151.256 372.000 M241.029 375.429 C 240.881 376.015,240.838 376.572,240.932 376.666 C 241.027 376.760,241.224 376.358,241.371 375.771 C 241.519 375.185,241.562 374.628,241.468 374.534 C 241.373 374.440,241.176 374.842,241.029 375.429 M183.233 405.344 C 183.325 405.423,183.940 405.608,184.600 405.756 C 185.476 405.952,185.638 405.915,185.200 405.618 C 184.660 405.253,182.832 404.998,183.233 405.344 M188.905 406.687 C 189.514 406.779,190.414 406.777,190.905 406.682 C 191.397 406.587,190.900 406.511,189.800 406.514 C 188.700 406.517,188.297 406.595,188.905 406.687 M203.305 406.687 C 203.914 406.779,204.814 406.777,205.305 406.682 C 205.797 406.587,205.300 406.511,204.200 406.514 C 203.100 406.517,202.697 406.595,203.305 406.687 M192.500 407.076 C 192.885 407.176,193.515 407.176,193.900 407.076 C 194.285 406.975,193.970 406.893,193.200 406.893 C 192.430 406.893,192.115 406.975,192.500 407.076 " stroke="none" fill="#f86c6c" fill-rule="evenodd"></path><path id="path4" d="M199.505 1.083 C 200.002 1.179,200.722 1.175,201.105 1.075 C 201.487 0.975,201.080 0.896,200.200 0.901 C 199.320 0.905,199.007 0.987,199.505 1.083 M207.105 1.083 C 207.602 1.179,208.322 1.175,208.705 1.075 C 209.087 0.975,208.680 0.896,207.800 0.901 C 206.920 0.905,206.607 0.987,207.105 1.083 M202.307 71.090 C 203.026 71.179,204.106 71.177,204.707 71.086 C 205.308 70.995,204.720 70.922,203.400 70.924 C 202.080 70.926,201.588 71.001,202.307 71.090 M243.301 361.000 C 243.305 361.880,243.387 362.193,243.483 361.695 C 243.579 361.198,243.575 360.478,243.475 360.095 C 243.375 359.713,243.296 360.120,243.301 361.000 " stroke="none" fill="#f87474" fill-rule="evenodd"></path></g></svg>