<?xml version="1.0" encoding="utf-8"?>
<!-- Generator: Adobe Illustrator 19.2.0, SVG Export Plug-In . SVG Version: 6.00 Build 0)  -->
<svg version="1.1" id="Layer_1" xmlns="http://www.w3.org/2000/svg" xmlns:xlink="http://www.w3.org/1999/xlink" x="0px" y="0px"
	 viewBox="0 0 462 150" style="enable-background:new 0 0 462 150;" xml:space="preserve">
<style type="text/css">
	.st0{fill:#FFFFFF;}
	.st1{fill:none;stroke:#FF0000;stroke-width:0.25;stroke-linecap:round;stroke-linejoin:round;}
	.st2{fill:none;stroke:#FFFFFF;stroke-width:40;stroke-linecap:round;stroke-linejoin:round;}
	.st3{fill:#C40000;}
</style>
<path class="st0" d="M1602,507c0,5-4,9-9,9h-90c-5,0-9-4-9-9v-90c0-5,4-9,9-9h90c5,0,9,4,9,9V507z"/>
<path class="st0" d="M1770,483c0,5-4,9-9,9h-138c-5,0-9-4-9-9v-42c0-5,4-9,9-9h138c5,0,9,4,9,9V483z"/>
<path class="st0" d="M1578,308c0-4.4-4-8-9-8h-42c-5,0-9,3.6-9,8v80c0,4.4,4,8,9,8h42c5,0,9-3.6,9-8V308z"/>
<path class="st1" d="M1542-636"/>
<path class="st2" d="M1860.2,287.8c35.6-33.9,57.6-80.7,57.6-132.3c0-51.5-21.9-98.1-57.2-132"/>
<path class="st2" d="M1917.8,348c50.3-49.4,81.3-117.4,81.3-192.5c0-74.9-30.9-142.7-80.8-192"/>
<path class="st2" d="M1808.2,237.4c20.9-21,33.8-50,33.8-81.9c0-31.9-12.8-60.7-33.6-81.7"/>
<g>
	<path class="st3" d="M320.2,115c0,16-13,29-29,29h58h77.4c16,0,29-13,29-29V8.6H349.2c-16,0-29,13-29,29V115z"/>
	<path class="st3" d="M300.9,37.6c0-16,13-29,29-29h-58h-77.4c-16,0-29,13-29,29V144h106.4c16,0,29-13,29-29L300.9,37.6L300.9,37.6z
		"/>
	<path class="st3" d="M146.2,37.6c0-16,13-29,29-29h-58H39.8c-16,0-29,13-29,29V144h106.4c16,0,29-13,29-29V37.6z"/>
	<path class="st3" d="M141.4,37.6c0-16,13-29,29-29h-58H35c-16,0-29,13-29,29V144h106.4c16,0,29-13,29-29L141.4,37.6L141.4,37.6z"/>
	<path class="st3" d="M160.7,115c0,16-13,29-29,29h58h77.3c16,0,29-13,29-29V37.6c0-16,13-29,29-29h-58h-77.4c-16,0-29,13-29,29
		L160.7,115L160.7,115z"/>
	<path class="st3" d="M315.4,115c0,16-13,29-29,29h58h77.4c16,0,29-13,29-29V8.6H344.4c-16,0-29,13-29,29V115z"/>
	<path class="st0" d="M423,58.6v-8.9C423,32,405.2,32,405.2,32h-44.4c-17.7,0-17.7,17.7-17.7,17.7v53.2c0,17.7,17.7,17.7,17.7,17.7
		h44.4c17.7,0,17.7-17.7,17.7-17.7V85.2c0,0,0-8.9-8.9-8.9c-6.6,0-17.8,0-26.6,0c-4.6,0-13.2,0-13.2,0v13.3h22.2h8.9v13.3
		c0,0-29.4,0-35.5,0c-8.9,0-8.9-8.9-8.9-8.9s-0.1-26.6-0.1-35.5s8.9-8.9,8.9-8.9s17.7,0,26.6,0c8.9,0,8.9,8.9,8.9,8.9H423z"/>
	<path class="st0" d="M246.1,49.7c0,0-8.9,0-8.9,8.9s0,62,0,62h-17.7c0,0,0-53.2,0-62s-8.9-8.9-8.9-8.9h-26.6V32h88.6v17.7H246.1z"
		/>
	<path class="st0" d="M29.4,32h17.7v70.9H56c0,0,8.9,0,8.9-8.9s0-62,0-62h17.7v70.9h8.9c0,0,8.9,0,8.9-8.9s0-62,0-62H118
		c0,0,0,53.2,0,70.9s-17.7,17.7-17.7,17.7H29.4V32z"/>
</g>
</svg>
